<svg width="107" height="21" viewBox="0 0 202 40" fill="none" xmlns="http://www.w3.org/2000/svg">
<g clip-path="url(#clip0_828_843)">
<path d="M0 29.087L5.76396 24.627C8.8263 28.664 12.0799 30.5248 15.7014 30.5248C19.3036 30.5248 22.4652 28.686 25.3895 24.6807L31.2358 29.0332C27.0163 34.8088 21.7728 37.8604 15.7014 37.8604C9.64937 37.8604 4.35505 34.8284 0 29.087Z" fill="url(#paint0_linear_828_843)"/>
<path d="M15.683 9.70268L5.42353 18.6326L0.681152 13.0771L15.7047 9.15527e-05L30.6097 13.0868L25.8455 18.6228L15.683 9.70268Z" fill="url(#paint1_linear_828_843)"/>
<path fill-rule="evenodd" clip-rule="evenodd" d="M72.8255 8.96017C72.8255 10.8919 74.2199 12.3003 76.1324 12.3003V12.3028C77.9819 12.3028 79.4101 10.8919 79.4101 8.96017C79.4101 7.09203 77.9819 5.68359 76.1324 5.68359C74.2853 5.68359 72.8255 7.09203 72.8255 8.96017ZM70.7224 6.99399V31.9938H65.0141V6.99399H70.7224ZM53.3388 32.3548C49.8364 32.3545 46.9173 31.2077 44.55 28.9144C42.1825 26.589 41.0156 23.6083 41.0156 19.9698C41.0156 16.302 42.2139 13.2871 44.5815 10.9274C46.9829 8.53603 49.9025 7.35744 53.3739 7.35744C57.6563 7.35744 61.4498 9.22313 63.6575 12.1403L59.7939 16.236C57.9444 14.2358 55.9327 13.221 53.7612 13.221C51.9117 13.221 50.3866 13.8421 49.1205 15.121C47.8883 16.3998 47.2734 18.0063 47.2734 19.938C47.2734 21.8062 47.8883 23.3784 49.1205 24.6573C50.3866 25.9019 51.9117 26.523 53.7273 26.523C56.0949 26.523 58.172 25.474 59.8908 23.4102L63.9142 27.3103C62.8103 28.7848 61.319 29.9976 59.4695 30.9463C57.6204 31.8974 55.5776 32.3546 53.3388 32.3548ZM79.02 13.9063V31.9935H73.2778V13.9063H79.02ZM83.1363 29.7319C84.918 31.5022 87.1888 32.3874 90.0114 32.3874C93.8073 32.3874 97.0173 30.5192 98.5763 27.5043L94.0009 24.7534C93.3522 26.1619 91.8271 27.0788 90.1736 27.0788C87.869 27.0788 86.1502 25.3085 86.1502 22.9171C86.1301 21.8317 86.5386 20.7829 87.2856 20.0024C88.0651 19.215 89.0383 18.8214 90.239 18.8214C91.8924 18.8214 93.1585 19.6087 94.0663 21.1492L98.6392 18.7235C97.1165 15.2831 93.8388 13.4492 90.1083 13.4492C87.2541 13.4492 84.9519 14.332 83.1678 16.1023C81.3837 17.8726 80.5073 20.132 80.5073 22.9171C80.5073 25.7022 81.3837 27.964 83.1363 29.7319ZM118.486 31.9938H111.672L106.382 24.8171L105.54 25.6045V31.9938H99.8341V6.99399H105.542V19.1491L110.926 13.9066H117.901L110.215 21.1811L118.486 31.9938ZM118.869 7.77931V22.5899C118.869 29.7324 123.8 32.4197 128.763 32.4197C133.757 32.4197 138.657 29.7324 138.657 22.5899V7.77931H132.525V22.4921C132.525 25.1452 130.968 26.5218 128.763 26.5218C126.524 26.5218 124.967 25.2112 124.967 22.4921V7.77931H118.869ZM152.209 13.4492C154.773 13.4492 156.85 14.3662 158.503 16.2001C160.156 18.0022 160.967 20.264 160.967 22.9171C160.967 25.5726 160.125 27.832 158.472 29.7001C156.816 31.534 154.741 32.4534 152.243 32.4534C150.263 32.4534 148.544 31.7981 147.149 30.4874V39.432H141.407V13.9065H147.053V15.579C148.447 14.1681 150.166 13.4492 152.209 13.4492ZM151.107 18.8221C153.444 18.8221 155.128 20.6242 155.128 22.9838H155.131C155.145 24.0787 154.737 25.1362 153.993 25.9327C153.247 26.7519 152.274 27.1455 151.107 27.1455C149.938 27.1455 148.965 26.7519 148.188 25.9327C147.44 25.1136 147.053 24.1306 147.053 22.9838C147.053 20.6242 148.771 18.8221 151.107 18.8221Z" fill="black"/>
<path fill-rule="evenodd" clip-rule="evenodd" d="M164.322 30.902C166.24 32.0628 168.309 32.7441 170.656 32.7441C174.794 32.7441 177.645 30.4478 177.645 27.117C177.645 24.9721 176.434 23.0544 173.986 22.4992V22.3983C175.601 21.8179 177.065 20.3796 177.065 18.3104C177.065 15.5095 174.34 13.4656 170.984 13.4656C168.536 13.4656 166.29 14.4497 164.751 15.8123L166.946 19.1936C168.385 18.2347 169.293 17.8815 170.328 17.8815C171.463 17.8815 172.346 18.4366 172.346 19.4207C172.346 20.3039 171.564 20.9852 170.075 20.9852H168.233V25.174H170.656C171.968 25.174 172.775 25.8301 172.775 26.7385C172.775 27.7226 171.917 28.4291 170.328 28.4291C169.369 28.4291 167.956 28.1516 166.214 27.1674L164.322 30.902ZM193.318 32.7441C188.322 32.7441 185.571 28.7824 185.571 23.1048C185.571 17.4273 188.322 13.4656 193.318 13.4656C198.339 13.4656 201.09 17.4273 201.09 23.1048C201.09 28.7824 198.339 32.7441 193.318 32.7441ZM193.343 28.3282C195.463 28.3282 196.447 26.1076 196.447 23.1048C196.447 20.1525 195.438 17.8815 193.343 17.8815C191.249 17.8815 190.214 20.1525 190.214 23.1048C190.214 26.1076 191.198 28.3282 193.343 28.3282ZM181.713 32.845C180.351 32.845 179.24 31.8104 179.24 30.4226C179.24 29.0852 180.351 28.0506 181.713 28.0506C183 28.0506 184.085 29.0852 184.085 30.4226C184.085 31.8104 183 32.845 181.713 32.845Z" fill="black"/>
</g>
<defs>
<linearGradient id="paint0_linear_828_843" x1="0" y1="40.2438" x2="31.2358" y2="40.2438" gradientUnits="userSpaceOnUse">
<stop stop-color="#7612FA"/>
<stop offset="1" stop-color="#40DDFF"/>
</linearGradient>
<linearGradient id="paint1_linear_828_843" x1="0.681152" y1="21.9883" x2="30.6097" y2="21.9883" gradientUnits="userSpaceOnUse">
<stop stop-color="#FA12E3"/>
<stop offset="1" stop-color="#FFD700"/>
</linearGradient>
<clipPath id="clip0_828_843">
<rect width="202" height="40" fill="white"/>
</clipPath>
</defs>
</svg>
