<svg width="345" height="229" fill="none" xmlns="http://www.w3.org/2000/svg"><g opacity=".6" filter="url(#prefix__filter0_f_499_13289)"><g filter="url(#prefix__filter1_d_499_13289)"><circle cx="50.321" cy="189.359" fill="#fff" r="25.504"/></g><g clip-path="url(#prefix__clip0_499_13289)"><path d="M60.111 178.125H48.334a5.316 5.316 0 005.316 5.317h2.17v2.094a5.317 5.317 0 005.313 5.314v-11.704c0-.564-.457-1.021-1.022-1.021z" fill="#2684FF"/><path d="M54.284 183.993H42.506a5.317 5.317 0 005.313 5.314h2.17v2.101a5.317 5.317 0 005.317 5.31v-11.703c0-.564-.458-1.022-1.022-1.022z" fill="url(#prefix__paint0_linear_499_13289)"/><path d="M48.453 189.859H36.675a5.316 5.316 0 005.317 5.316h2.176v2.095a5.316 5.316 0 005.307 5.313V190.88c0-.564-.458-1.021-1.022-1.021z" fill="url(#prefix__paint1_linear_499_13289)"/></g><g filter="url(#prefix__filter2_d_499_13289)"><circle cx="307.393" cy="131.976" fill="#fff" r="25.504"/></g><path fill-rule="evenodd" clip-rule="evenodd" d="M315.216 132.409a6.023 6.023 0 10.001 12.045 6.023 6.023 0 00-.001-12.045zm-15.646.001a6.022 6.022 0 100 12.045 6.022 6.022 0 000-12.045zm13.845-7.528a6.022 6.022 0 11-12.044 0 6.022 6.022 0 0112.044 0z" fill="#F06A6A"/><g filter="url(#prefix__filter3_d_499_13289)"><circle cx="310.081" cy="51.451" fill="#fff" r="25.504"/></g><path d="M300.264 58.919a3.423 3.423 0 01-2.981-1.73 3.31 3.31 0 01.093-3.405l6.139-9.64a3.433 3.433 0 013.031-1.647 3.416 3.416 0 012.933 1.808 3.304 3.304 0 01-.185 3.4l-6.135 9.64a3.422 3.422 0 01-2.895 1.574z" fill="#F62B54"/><path d="M310.794 58.918a3.41 3.41 0 01-2.976-1.726 3.293 3.293 0 01.094-3.396l6.127-9.618a3.422 3.422 0 013.033-1.682 3.414 3.414 0 012.953 1.819 3.298 3.298 0 01-.221 3.415l-6.127 9.618a3.413 3.413 0 01-2.883 1.57z" fill="#FC0"/><path d="M321.089 58.999c1.745 0 3.16-1.386 3.16-3.095 0-1.708-1.415-3.094-3.16-3.094-1.746 0-3.161 1.386-3.161 3.094 0 1.71 1.415 3.095 3.161 3.095z" fill="#00CA72"/><g filter="url(#prefix__filter4_d_499_13289)"><circle cx="239.71" cy="192.666" fill="#fff" r="16.53"/></g><path d="M246.607 184.095h-13.795c-.924 0-1.674.749-1.674 1.674v13.794c0 .925.75 1.674 1.674 1.674h13.795c.924 0 1.674-.749 1.674-1.674v-13.794c0-.925-.75-1.674-1.674-1.674z" fill="url(#prefix__paint2_linear_499_13289)"/><path d="M245.249 186.323h-3.621a.804.804 0 00-.804.804v5.893c0 .444.36.803.804.803h3.621a.802.802 0 00.803-.803v-5.893a.803.803 0 00-.803-.804zM237.791 186.323h-3.621a.804.804 0 00-.804.804v10.178c0 .444.36.804.804.804h3.621c.444 0 .804-.36.804-.804v-10.178a.804.804 0 00-.804-.804z" fill="#fff"/><g filter="url(#prefix__filter5_d_499_13289)"><circle cx="141.474" cy="192.666" fill="#fff" r="16.53"/></g><path d="M136.558 192.596s.824-1.288 1.946-1.288c1.697-.051 3.094 3.246 3.344 3.71 1.896-4.534 5.04-8.373 7.584-10.923h-15.718v18.729c0 .721-.075 1.391-.2 2.087 2.046-.361 4.067-.876 6.013-1.598 4.766-1.829 6.637-3.761 6.637-3.761l.125-.129.075.155c.299.773.748 1.468 1.197 2.164.649.85.998.927 1.248.85.274-.077.424-.567.499-1.314.074-.773.124-2.447.124-4.534v-11.207c-4.565 6.055-7.984 15.123-7.984 15.123s-2.27-8.09-4.89-8.064z" fill="#003059"/><g filter="url(#prefix__filter6_d_499_13289)"><circle cx="120.83" cy="31.06" fill="#fff" r="25.504"/></g><path d="M119.737 19.09l-10.918 4.517a.732.732 0 00.01 1.356l10.963 4.347a4.067 4.067 0 002.999 0l10.963-4.347a.731.731 0 00.01-1.356l-10.917-4.518a4.068 4.068 0 00-3.111 0" fill="#FCB400"/><path d="M122.265 31.684v10.86c0 .517.521.87 1.001.68l12.216-4.741a.73.73 0 00.461-.68v-10.86a.731.731 0 00-1.001-.68l-12.216 4.741a.73.73 0 00-.461.68z" fill="#18BFFF"/><path d="M119.412 32.244l-3.625 1.75-.369.178-7.653 3.667c-.485.234-1.104-.12-1.104-.658V26.988c0-.195.1-.364.234-.49a.838.838 0 01.186-.14.779.779 0 01.665-.05l11.605 4.598c.59.234.636 1.06.061 1.338z" fill="#F82B60"/><path d="M119.412 32.244l-3.626 1.75-8.891-7.497a.828.828 0 01.185-.138.781.781 0 01.666-.052l11.605 4.599c.59.234.636 1.06.061 1.338z" fill="#000" fill-opacity=".25"/><g filter="url(#prefix__filter7_d_499_13289)"><circle cx="229.319" cy="24.53" fill="#fff" r="16.53"/></g><path fill-rule="evenodd" clip-rule="evenodd" d="M224.075 18.506c.55.446.756.412 1.787.343l9.726-.584c.206 0 .035-.205-.034-.24l-1.615-1.167c-.31-.24-.722-.516-1.512-.447l-9.418.687c-.343.034-.412.206-.275.343l1.341 1.065zm.584 2.267v10.233c0 .55.275.756.893.721l10.689-.618c.619-.034.688-.412.688-.86V20.086c0-.446-.172-.686-.55-.652l-11.17.652c-.412.035-.55.241-.55.688zm10.552.549c.068.309 0 .618-.31.653l-.515.102v7.555c-.447.24-.859.378-1.203.378-.55 0-.688-.172-1.1-.687l-3.369-5.288v5.116l1.066.241s0 .618-.86.618l-2.371.137c-.069-.137 0-.48.241-.549l.619-.171V22.66l-.86-.069c-.068-.309.103-.755.585-.79l2.543-.171 3.506 5.357V22.25l-.894-.103c-.069-.378.206-.652.55-.686l2.372-.139zm-12.993-5.151l9.796-.721c1.203-.104 1.513-.035 2.269.515l3.127 2.197c.516.378.688.481.688.893V31.11c0 .755-.276 1.202-1.238 1.27l-11.376.688c-.722.034-1.066-.069-1.444-.55l-2.303-2.988c-.412-.55-.584-.961-.584-1.442V17.372c0-.617.276-1.133 1.065-1.201z" fill="#000"/><g filter="url(#prefix__filter8_d_499_13289)"><circle cx="89.521" cy="126.545" fill="#fff" r="16.53"/></g><path d="M84.796 117.055h10.062a3.848 3.848 0 013.847 3.846v10.063a3.848 3.848 0 01-3.847 3.846H84.796a3.848 3.848 0 01-3.846-3.846v-10.063a3.848 3.848 0 013.846-3.846z" fill="#FFD02F"/><path d="M93.287 119.272h-1.949l1.624 2.853-3.573-2.853h-1.95l1.787 3.489-3.736-3.489h-1.95l1.95 4.44-1.95 8.88h1.95l3.736-9.516-1.787 9.516h1.95l3.573-10.146-1.624 10.146h1.95l3.573-11.102-3.574-2.218z" fill="#050038"/><g filter="url(#prefix__filter9_d_499_13289)"><circle cx="35.208" cy="79.788" fill="#fff" r="25.504"/></g><path d="M27.184 77.623c1.463 0 2.153.245 3.213 1.21l5.685 5.173c.168.153.202.214.236.306a.24.24 0 01.016.107c0 .03 0 .076-.016.107-.034.092-.068.153-.236.306l-3.886 3.551c-.168.153-.235.184-.336.214-.034.016-.084.016-.118.016-.033 0-.084 0-.117-.016-.101-.03-.169-.061-.337-.214L20.27 78.358c-.32-.29-.202-.735.337-.735h6.577zM43.231 71.302c-1.463 0-2.153.245-3.212 1.21l-5.686 5.173c-.168.153-.202.214-.235.306-.017.03-.017.076-.017.107 0 .03 0 .076.017.107.033.092.067.153.235.306l3.886 3.536c.168.153.235.184.336.214.034.015.084.015.118.015.034 0 .084 0 .118-.015.1-.03.168-.061.336-.214l11.018-10.025c.32-.291.202-.735-.337-.735h-6.577v.015z" fill="#08CF65"/></g><g filter="url(#prefix__filter10_d_499_13289)"><circle cx="188.835" cy="109.925" r="65.165" fill="#fff"/></g><path d="M154.287 131.119l12.793-9.859c6.797 8.924 14.019 13.037 22.057 13.037 7.995 0 15.013-4.064 21.504-12.918L223.617 131c-9.366 12.767-21.004 19.512-34.48 19.512-13.433 0-25.184-6.702-34.85-19.393z" fill="url(#prefix__paint3_linear_499_13289)"/><path d="M189.095 88.278l-22.771 19.739-10.526-12.28 33.345-28.905 33.083 28.927-10.574 12.237-22.557-19.718z" fill="url(#prefix__paint4_linear_499_13289)"/><defs><filter id="prefix__filter0_f_499_13289" x="4.704" y=".557" width="335.88" height="219.306" filterUnits="userSpaceOnUse" color-interpolation-filters="sRGB"><feFlood flood-opacity="0" result="BackgroundImageFix"/><feBlend in="SourceGraphic" in2="BackgroundImageFix" result="shape"/><feGaussianBlur stdDeviation="2.5" result="effect1_foregroundBlur_499_13289"/></filter><filter id="prefix__filter1_d_499_13289" x="15.799" y="159.346" width="69.045" height="69.045" filterUnits="userSpaceOnUse" color-interpolation-filters="sRGB"><feFlood flood-opacity="0" result="BackgroundImageFix"/><feColorMatrix in="SourceAlpha" values="0 0 0 0 0 0 0 0 0 0 0 0 0 0 0 0 0 0 127 0" result="hardAlpha"/><feOffset dy="4.509"/><feGaussianBlur stdDeviation="4.509"/><feComposite in2="hardAlpha" operator="out"/><feColorMatrix values="0 0 0 0 0.343614 0 0 0 0 0.154931 0 0 0 0 0.808333 0 0 0 0.18 0"/><feBlend in2="BackgroundImageFix" result="effect1_dropShadow_499_13289"/><feBlend in="SourceGraphic" in2="effect1_dropShadow_499_13289" result="shape"/></filter><filter id="prefix__filter2_d_499_13289" x="272.871" y="101.963" width="69.045" height="69.045" filterUnits="userSpaceOnUse" color-interpolation-filters="sRGB"><feFlood flood-opacity="0" result="BackgroundImageFix"/><feColorMatrix in="SourceAlpha" values="0 0 0 0 0 0 0 0 0 0 0 0 0 0 0 0 0 0 127 0" result="hardAlpha"/><feOffset dy="4.509"/><feGaussianBlur stdDeviation="4.509"/><feComposite in2="hardAlpha" operator="out"/><feColorMatrix values="0 0 0 0 0.343614 0 0 0 0 0.154931 0 0 0 0 0.808333 0 0 0 0.18 0"/><feBlend in2="BackgroundImageFix" result="effect1_dropShadow_499_13289"/><feBlend in="SourceGraphic" in2="effect1_dropShadow_499_13289" result="shape"/></filter><filter id="prefix__filter3_d_499_13289" x="275.558" y="21.438" width="69.045" height="69.045" filterUnits="userSpaceOnUse" color-interpolation-filters="sRGB"><feFlood flood-opacity="0" result="BackgroundImageFix"/><feColorMatrix in="SourceAlpha" values="0 0 0 0 0 0 0 0 0 0 0 0 0 0 0 0 0 0 127 0" result="hardAlpha"/><feOffset dy="4.509"/><feGaussianBlur stdDeviation="4.509"/><feComposite in2="hardAlpha" operator="out"/><feColorMatrix values="0 0 0 0 0.343614 0 0 0 0 0.154931 0 0 0 0 0.808333 0 0 0 0.18 0"/><feBlend in2="BackgroundImageFix" result="effect1_dropShadow_499_13289"/><feBlend in="SourceGraphic" in2="effect1_dropShadow_499_13289" result="shape"/></filter><filter id="prefix__filter4_d_499_13289" x="214.161" y="171.626" width="51.098" height="51.098" filterUnits="userSpaceOnUse" color-interpolation-filters="sRGB"><feFlood flood-opacity="0" result="BackgroundImageFix"/><feColorMatrix in="SourceAlpha" values="0 0 0 0 0 0 0 0 0 0 0 0 0 0 0 0 0 0 127 0" result="hardAlpha"/><feOffset dy="4.509"/><feGaussianBlur stdDeviation="4.509"/><feComposite in2="hardAlpha" operator="out"/><feColorMatrix values="0 0 0 0 0.343614 0 0 0 0 0.154931 0 0 0 0 0.808333 0 0 0 0.18 0"/><feBlend in2="BackgroundImageFix" result="effect1_dropShadow_499_13289"/><feBlend in="SourceGraphic" in2="effect1_dropShadow_499_13289" result="shape"/></filter><filter id="prefix__filter5_d_499_13289" x="115.925" y="171.626" width="51.098" height="51.098" filterUnits="userSpaceOnUse" color-interpolation-filters="sRGB"><feFlood flood-opacity="0" result="BackgroundImageFix"/><feColorMatrix in="SourceAlpha" values="0 0 0 0 0 0 0 0 0 0 0 0 0 0 0 0 0 0 127 0" result="hardAlpha"/><feOffset dy="4.509"/><feGaussianBlur stdDeviation="4.509"/><feComposite in2="hardAlpha" operator="out"/><feColorMatrix values="0 0 0 0 0.343614 0 0 0 0 0.154931 0 0 0 0 0.808333 0 0 0 0.18 0"/><feBlend in2="BackgroundImageFix" result="effect1_dropShadow_499_13289"/><feBlend in="SourceGraphic" in2="effect1_dropShadow_499_13289" result="shape"/></filter><filter id="prefix__filter6_d_499_13289" x="86.307" y="1.047" width="69.045" height="69.045" filterUnits="userSpaceOnUse" color-interpolation-filters="sRGB"><feFlood flood-opacity="0" result="BackgroundImageFix"/><feColorMatrix in="SourceAlpha" values="0 0 0 0 0 0 0 0 0 0 0 0 0 0 0 0 0 0 127 0" result="hardAlpha"/><feOffset dy="4.509"/><feGaussianBlur stdDeviation="4.509"/><feComposite in2="hardAlpha" operator="out"/><feColorMatrix values="0 0 0 0 0.343614 0 0 0 0 0.154931 0 0 0 0 0.808333 0 0 0 0.18 0"/><feBlend in2="BackgroundImageFix" result="effect1_dropShadow_499_13289"/><feBlend in="SourceGraphic" in2="effect1_dropShadow_499_13289" result="shape"/></filter><filter id="prefix__filter7_d_499_13289" x="203.77" y="3.491" width="51.098" height="51.098" filterUnits="userSpaceOnUse" color-interpolation-filters="sRGB"><feFlood flood-opacity="0" result="BackgroundImageFix"/><feColorMatrix in="SourceAlpha" values="0 0 0 0 0 0 0 0 0 0 0 0 0 0 0 0 0 0 127 0" result="hardAlpha"/><feOffset dy="4.509"/><feGaussianBlur stdDeviation="4.509"/><feComposite in2="hardAlpha" operator="out"/><feColorMatrix values="0 0 0 0 0.343614 0 0 0 0 0.154931 0 0 0 0 0.808333 0 0 0 0.18 0"/><feBlend in2="BackgroundImageFix" result="effect1_dropShadow_499_13289"/><feBlend in="SourceGraphic" in2="effect1_dropShadow_499_13289" result="shape"/></filter><filter id="prefix__filter8_d_499_13289" x="63.972" y="105.505" width="51.098" height="51.098" filterUnits="userSpaceOnUse" color-interpolation-filters="sRGB"><feFlood flood-opacity="0" result="BackgroundImageFix"/><feColorMatrix in="SourceAlpha" values="0 0 0 0 0 0 0 0 0 0 0 0 0 0 0 0 0 0 127 0" result="hardAlpha"/><feOffset dy="4.509"/><feGaussianBlur stdDeviation="4.509"/><feComposite in2="hardAlpha" operator="out"/><feColorMatrix values="0 0 0 0 0.343614 0 0 0 0 0.154931 0 0 0 0 0.808333 0 0 0 0.18 0"/><feBlend in2="BackgroundImageFix" result="effect1_dropShadow_499_13289"/><feBlend in="SourceGraphic" in2="effect1_dropShadow_499_13289" result="shape"/></filter><filter id="prefix__filter9_d_499_13289" x=".685" y="49.775" width="69.045" height="69.045" filterUnits="userSpaceOnUse" color-interpolation-filters="sRGB"><feFlood flood-opacity="0" result="BackgroundImageFix"/><feColorMatrix in="SourceAlpha" values="0 0 0 0 0 0 0 0 0 0 0 0 0 0 0 0 0 0 127 0" result="hardAlpha"/><feOffset dy="4.509"/><feGaussianBlur stdDeviation="4.509"/><feComposite in2="hardAlpha" operator="out"/><feColorMatrix values="0 0 0 0 0.343614 0 0 0 0 0.154931 0 0 0 0 0.808333 0 0 0 0.18 0"/><feBlend in2="BackgroundImageFix" result="effect1_dropShadow_499_13289"/><feBlend in="SourceGraphic" in2="effect1_dropShadow_499_13289" result="shape"/></filter><filter id="prefix__filter10_d_499_13289" x="109.784" y="37.817" width="158.101" height="158.101" filterUnits="userSpaceOnUse" color-interpolation-filters="sRGB"><feFlood flood-opacity="0" result="BackgroundImageFix"/><feColorMatrix in="SourceAlpha" values="0 0 0 0 0 0 0 0 0 0 0 0 0 0 0 0 0 0 127 0" result="hardAlpha"/><feOffset dy="6.943"/><feGaussianBlur stdDeviation="6.943"/><feComposite in2="hardAlpha" operator="out"/><feColorMatrix values="0 0 0 0 0.343614 0 0 0 0 0.154931 0 0 0 0 0.808333 0 0 0 0.18 0"/><feBlend in2="BackgroundImageFix" result="effect1_dropShadow_499_13289"/><feBlend in="SourceGraphic" in2="effect1_dropShadow_499_13289" result="shape"/></filter><linearGradient id="prefix__paint0_linear_499_13289" x1="3246.23" y1="189.852" x2="1975.63" y2="1674.73" gradientUnits="userSpaceOnUse"><stop offset=".18" stop-color="#0052CC"/><stop offset="1" stop-color="#2684FF"/></linearGradient><linearGradient id="prefix__paint1_linear_499_13289" x1="3326.5" y1="206.415" x2="1856.74" y2="1825.96" gradientUnits="userSpaceOnUse"><stop offset=".18" stop-color="#0052CC"/><stop offset="1" stop-color="#2684FF"/></linearGradient><linearGradient id="prefix__paint2_linear_499_13289" x1="1088.26" y1="184.095" x2="1088.26" y2="1898.33" gradientUnits="userSpaceOnUse"><stop stop-color="#0091E6"/><stop offset="1" stop-color="#0079BF"/></linearGradient><linearGradient id="prefix__paint3_linear_499_13289" x1="154.287" y1="141.154" x2="223.617" y2="141.154" gradientUnits="userSpaceOnUse"><stop stop-color="#8930FD"/><stop offset="1" stop-color="#49CCF9"/></linearGradient><linearGradient id="prefix__paint4_linear_499_13289" x1="155.798" y1="94.842" x2="222.226" y2="94.842" gradientUnits="userSpaceOnUse"><stop stop-color="#FF02F0"/><stop offset="1" stop-color="#FFC800"/></linearGradient><clipPath id="prefix__clip0_499_13289"><path fill="#fff" transform="translate(35.208 175.19)" d="M0 0h27.393v27.393H0z"/></clipPath></defs></svg>
