<svg width="344" height="239" viewBox="0 0 344 239" fill="none" xmlns="http://www.w3.org/2000/svg">
<path d="M113.145 137.687C113.145 124.723 123.654 114.214 136.618 114.214C149.582 114.214 160.091 124.723 160.091 137.687" stroke="white" stroke-width="0.5" stroke-dasharray="2 2"/>
<g filter="url(#filter0_d_409_13505)">
<ellipse cx="50.3211" cy="199.359" rx="25.5037" ry="25.5037" fill="white"/>
</g>
<g clip-path="url(#clip0_409_13505)">
<path d="M60.1115 188.125H48.3335C48.3335 189.535 48.8937 190.887 49.8907 191.884C50.8878 192.881 52.2402 193.442 53.6502 193.442H55.8199V195.536C55.8218 198.47 58.1995 200.848 61.1332 200.85V189.146C61.1332 188.582 60.6759 188.125 60.1115 188.125Z" fill="#2684FF"/>
<path d="M54.2837 193.993H42.5059C42.5077 196.927 44.8854 199.305 47.8192 199.307H49.9888V201.408C49.9925 204.342 52.3719 206.718 55.3056 206.718V195.015C55.3056 194.451 54.848 193.993 54.2837 193.993Z" fill="url(#paint0_linear_409_13505)"/>
<path d="M48.4528 199.859H36.6748C36.6748 202.795 39.0553 205.175 41.9916 205.175H44.168V207.27C44.1699 210.201 46.5435 212.578 49.4746 212.583V200.88C49.4746 200.316 49.0171 199.859 48.4528 199.859Z" fill="url(#paint1_linear_409_13505)"/>
</g>
<g filter="url(#filter1_d_409_13505)">
<ellipse cx="307.393" cy="141.976" rx="25.5037" ry="25.5037" fill="white"/>
</g>
<path fill-rule="evenodd" clip-rule="evenodd" d="M315.216 142.409C311.89 142.409 309.194 145.106 309.194 148.432C309.194 151.758 311.89 154.454 315.216 154.454C318.542 154.454 321.238 151.758 321.238 148.432C321.238 145.106 318.542 142.409 315.216 142.409ZM299.57 142.41C296.245 142.41 293.548 145.106 293.548 148.432C293.548 151.758 296.245 154.454 299.57 154.454C302.896 154.454 305.593 151.758 305.593 148.432C305.593 145.106 302.896 142.41 299.57 142.41ZM313.415 134.882C313.415 138.208 310.719 140.904 307.393 140.904C304.067 140.904 301.371 138.208 301.371 134.882C301.371 131.556 304.067 128.86 307.393 128.86C310.719 128.86 313.415 131.556 313.415 134.882Z" fill="#F06A6A"/>
<g filter="url(#filter2_d_409_13505)">
<ellipse cx="308.706" cy="61.5" rx="25.5037" ry="25.5037" fill="white"/>
</g>
<path d="M298.889 68.9677C298.283 68.969 297.688 68.8096 297.165 68.5057C296.641 68.2017 296.207 67.7642 295.908 67.2378C295.613 66.7152 295.466 66.1221 295.483 65.5223C295.499 64.9225 295.679 64.3384 296.002 63.8327L302.141 54.1924C302.455 53.6743 302.901 53.2488 303.433 52.9595C303.966 52.6702 304.565 52.5274 305.171 52.5458C305.776 52.5603 306.367 52.7353 306.882 53.053C307.397 53.3706 307.819 53.8195 308.104 54.3536C308.676 55.4358 308.605 56.7377 307.919 57.7535L301.784 67.3939C301.473 67.8787 301.045 68.2771 300.539 68.5523C300.032 68.8274 299.465 68.9703 298.889 68.9677Z" fill="#F62B54"/>
<path d="M309.419 68.9673C308.181 68.9673 307.042 68.3052 306.443 67.2413C306.149 66.7201 306.003 66.1286 306.019 65.5303C306.036 64.9321 306.215 64.3496 306.537 63.8453L312.664 54.2271C312.974 53.7017 313.418 53.2687 313.952 52.9729C314.485 52.6772 315.088 52.5296 315.697 52.5453C316.946 52.5726 318.078 53.2711 318.65 54.3636C319.218 55.4562 319.135 56.7659 318.429 57.7791L312.303 67.3974C311.993 67.8801 311.566 68.277 311.062 68.5514C310.558 68.8257 309.993 68.9688 309.419 68.9673Z" fill="#FFCC00"/>
<path d="M319.714 69.0478C321.46 69.0478 322.875 67.6625 322.875 65.9536C322.875 64.2447 321.46 62.8594 319.714 62.8594C317.969 62.8594 316.553 64.2447 316.553 65.9536C316.553 67.6625 317.969 69.0478 319.714 69.0478Z" fill="#00CA72"/>
<g filter="url(#filter3_d_409_13505)">
<ellipse cx="239.71" cy="202.666" rx="16.5302" ry="16.5302" fill="white"/>
</g>
<path d="M246.607 194.095H232.812C231.888 194.095 231.138 194.844 231.138 195.769V209.563C231.138 210.488 231.888 211.237 232.812 211.237H246.607C247.531 211.237 248.281 210.488 248.281 209.563V195.769C248.281 194.844 247.531 194.095 246.607 194.095Z" fill="url(#paint2_linear_409_13505)"/>
<path d="M245.249 196.323H241.628C241.184 196.323 240.824 196.683 240.824 197.127V203.02C240.824 203.464 241.184 203.823 241.628 203.823H245.249C245.693 203.823 246.052 203.464 246.052 203.02V197.127C246.052 196.683 245.693 196.323 245.249 196.323Z" fill="white"/>
<path d="M237.791 196.323H234.17C233.726 196.323 233.366 196.683 233.366 197.127V207.305C233.366 207.749 233.726 208.109 234.17 208.109H237.791C238.235 208.109 238.595 207.749 238.595 207.305V197.127C238.595 196.683 238.235 196.323 237.791 196.323Z" fill="white"/>
<g filter="url(#filter4_d_409_13505)">
<ellipse cx="141.474" cy="202.666" rx="16.5302" ry="16.5302" fill="white"/>
</g>
<path d="M136.558 202.596C136.558 202.596 137.382 201.308 138.504 201.308C140.201 201.257 141.598 204.554 141.848 205.018C143.744 200.484 146.888 196.645 149.432 194.095H133.714C133.714 195.666 133.714 211.51 133.714 212.824C133.714 213.545 133.639 214.215 133.514 214.911C135.56 214.55 137.581 214.035 139.527 213.313C144.293 211.484 146.164 209.552 146.164 209.552L146.289 209.423L146.364 209.578C146.663 210.351 147.112 211.046 147.561 211.742C148.21 212.592 148.559 212.669 148.809 212.592C149.083 212.515 149.233 212.025 149.308 211.278C149.382 210.505 149.432 208.831 149.432 206.744V195.537C144.867 201.592 141.448 210.66 141.448 210.66C141.448 210.66 139.178 202.57 136.558 202.596Z" fill="#003059"/>
<g filter="url(#filter5_d_409_13505)">
<ellipse cx="137.83" cy="34.0603" rx="25.5037" ry="25.5037" fill="white"/>
</g>
<path d="M136.737 22.0895L125.819 26.6069C125.212 26.8581 125.219 27.7206 125.829 27.9628L136.792 32.3101C137.755 32.6921 138.828 32.6921 139.791 32.3101L150.754 27.9626C151.365 27.7206 151.372 26.8583 150.764 26.6071L139.847 22.0894C138.851 21.6772 137.732 21.6772 136.736 22.0894" fill="#FCB400"/>
<path d="M139.265 34.6838V45.5443C139.265 46.0607 139.786 46.4145 140.266 46.2242L152.482 41.4826C152.618 41.4286 152.735 41.3349 152.817 41.2136C152.899 41.0924 152.943 40.9492 152.943 40.8026V29.9423C152.943 29.4258 152.422 29.0721 151.942 29.2624L139.726 34.004C139.59 34.0581 139.473 34.1518 139.391 34.273C139.309 34.3942 139.265 34.5372 139.265 34.6838Z" fill="#18BFFF"/>
<path d="M136.412 35.2439L132.787 36.9944L132.418 37.1723L124.765 40.8393C124.28 41.0733 123.661 40.7198 123.661 40.1808V29.9876C123.661 29.7926 123.761 29.6243 123.895 29.4976C123.95 29.4429 124.013 29.3961 124.081 29.3586C124.263 29.2489 124.524 29.2196 124.746 29.3073L136.351 33.9056C136.941 34.1396 136.987 34.966 136.412 35.2439Z" fill="#F82B60"/>
<path d="M136.412 35.2439L132.786 36.9944L123.895 29.4975C123.95 29.4428 124.012 29.396 124.08 29.3586C124.263 29.2489 124.524 29.2196 124.746 29.3073L136.351 33.9056C136.941 34.1396 136.987 34.966 136.412 35.2439Z" fill="black" fill-opacity="0.25"/>
<g filter="url(#filter6_d_409_13505)">
<ellipse cx="228.319" cy="28.5302" rx="16.5302" ry="16.5302" fill="white"/>
</g>
<path fill-rule="evenodd" clip-rule="evenodd" d="M223.075 22.5059C223.625 22.9523 223.831 22.9182 224.862 22.8494L234.588 22.2654C234.794 22.2654 234.623 22.0596 234.554 22.0254L232.939 20.8577C232.629 20.6174 232.217 20.3423 231.427 20.4111L222.009 21.098C221.666 21.132 221.597 21.3038 221.734 21.4414L223.075 22.5059ZM223.659 24.7725V35.0058C223.659 35.5558 223.934 35.7615 224.552 35.7275L235.241 35.109C235.86 35.075 235.929 34.6967 235.929 34.2499V24.0853C235.929 23.6393 235.757 23.3988 235.379 23.4331L224.209 24.0853C223.797 24.12 223.659 24.3262 223.659 24.7725ZM234.211 25.3215C234.279 25.6308 234.211 25.9399 233.901 25.9747L233.386 26.0773V33.6322C232.939 33.8725 232.527 34.0099 232.183 34.0099C231.633 34.0099 231.495 33.838 231.083 33.3232L227.714 28.0348V33.1515L228.78 33.392C228.78 33.392 228.78 34.0099 227.92 34.0099L225.549 34.1474C225.48 34.0099 225.549 33.6668 225.79 33.598L226.409 33.4265V26.6613L225.549 26.5924C225.481 26.2831 225.652 25.837 226.134 25.8024L228.677 25.6309L232.183 30.9882V26.249L231.289 26.1464C231.22 25.7682 231.495 25.4936 231.839 25.4596L234.211 25.3215ZM221.218 20.1708L231.014 19.4495C232.217 19.3463 232.527 19.4154 233.283 19.9646L236.41 22.1624C236.926 22.5403 237.098 22.6432 237.098 23.0552V35.109C237.098 35.8644 236.822 36.3112 235.86 36.3795L224.484 37.0665C223.762 37.1009 223.418 36.998 223.04 36.5169L220.737 33.5293C220.325 32.9793 220.153 32.5679 220.153 32.0866V21.3723C220.153 20.7546 220.429 20.2392 221.218 20.1708Z" fill="black"/>
<g filter="url(#filter7_d_409_13505)">
<ellipse cx="89.5214" cy="136.545" rx="16.5302" ry="16.5302" fill="white"/>
</g>
<path d="M84.7962 127.055H94.8584C96.9811 127.055 98.7046 128.779 98.7046 130.901V140.964C98.7046 143.086 96.9811 144.81 94.8584 144.81H84.7962C82.6734 144.81 80.95 143.086 80.95 140.964V130.901C80.95 128.779 82.6734 127.055 84.7962 127.055Z" fill="#FFD02F"/>
<path d="M93.2875 129.272H91.3381L92.9617 132.125L89.3887 129.272H87.4393L89.2258 132.761L85.4899 129.272H83.5405L85.4899 133.712L83.5405 142.592H85.4899L89.2258 133.076L87.4393 142.592H89.3887L92.9617 132.446L91.3381 142.592H93.2875L96.8605 131.49L93.2875 129.272Z" fill="#050038"/>
<g filter="url(#filter8_d_409_13505)">
<ellipse cx="35.2078" cy="89.7879" rx="25.5037" ry="25.5037" fill="white"/>
</g>
<path d="M27.1837 87.6233C28.6471 87.6233 29.3368 87.8682 30.3966 88.8324L36.0821 94.0056C36.2503 94.1587 36.2839 94.2199 36.3176 94.3117C36.3344 94.3424 36.3344 94.3883 36.3344 94.4189C36.3344 94.4495 36.3344 94.4954 36.3176 94.526C36.2839 94.6179 36.2503 94.6791 36.0821 94.8321L32.1964 98.383C32.0282 98.536 31.9609 98.5666 31.86 98.5973C31.8263 98.6126 31.7759 98.6126 31.7422 98.6126C31.7086 98.6126 31.6581 98.6126 31.6245 98.5973C31.5236 98.5666 31.4563 98.536 31.2881 98.383L20.2702 88.3579C19.9506 88.0671 20.0684 87.6233 20.6067 87.6233H27.1837Z" fill="#08CF65"/>
<path d="M43.2315 81.3024C41.7681 81.3024 41.0784 81.5473 40.0187 82.5115L34.3331 87.6848C34.1649 87.8378 34.1313 87.8991 34.0976 87.9909C34.0808 88.0215 34.0808 88.0674 34.0808 88.098C34.0808 88.1286 34.0808 88.1745 34.0976 88.2052C34.1313 88.297 34.1649 88.3582 34.3331 88.5113L38.2188 92.0468C38.387 92.1999 38.4543 92.2305 38.5552 92.2611C38.5889 92.2764 38.6393 92.2764 38.673 92.2764C38.7066 92.2764 38.7571 92.2764 38.7907 92.2611C38.8917 92.2305 38.9589 92.1999 39.1271 92.0468L50.1451 82.0218C50.4646 81.731 50.3469 81.2871 49.8085 81.2871H43.2315V81.3024Z" fill="#08CF65"/>
<g filter="url(#filter9_d_409_13505)">
<circle cx="183.034" cy="120.487" r="47.7014" fill="white"/>
</g>
<path d="M157.819 135.469L167.184 128.252C172.16 134.784 177.446 137.795 183.33 137.795C189.183 137.795 194.319 134.82 199.071 128.339L208.569 135.382C201.714 144.727 193.194 149.664 183.33 149.664C173.497 149.664 164.895 144.758 157.819 135.469Z" fill="url(#paint3_linear_409_13505)"/>
<path d="M183.3 104.11L166.631 118.559L158.926 109.57L183.335 88.4106L207.552 109.585L199.811 118.543L183.3 104.11Z" fill="url(#paint4_linear_409_13505)"/>
<path fill-rule="evenodd" clip-rule="evenodd" d="M137.688 0.500001C137.355 0.500154 137.022 0.505198 136.69 0.515059L136.698 0.764949L136.712 1.26473L136.72 1.51462C137.044 1.50497 137.37 1.50008 137.696 1.5C138.023 1.50008 138.348 1.50497 138.673 1.51462L138.68 1.26473L138.695 0.764949L138.702 0.515059C138.371 0.505198 138.038 0.500154 137.704 0.500001C137.699 0.499999 137.694 0.500001 137.688 0.500001ZM134.671 0.635498C133.996 0.696118 133.326 0.776782 132.663 0.876897L132.7 1.1241L132.775 1.6185L132.812 1.8657C133.455 1.76857 134.105 1.69031 134.76 1.63149L134.738 1.38249L134.693 0.884497L134.671 0.635498ZM130.671 1.23963C130.008 1.38125 129.353 1.54247 128.705 1.72266L128.772 1.96352L128.906 2.44522L128.973 2.68607C129.601 2.5113 130.237 2.35493 130.88 2.21756L130.828 1.97308L130.723 1.48412L130.671 1.23963ZM126.772 2.32427C126.133 2.54498 125.502 2.78451 124.881 3.0422L124.976 3.27313L125.168 3.73499L125.264 3.96592C125.866 3.71597 126.478 3.48365 127.099 3.26958L127.017 3.03325L126.854 2.5606L126.772 2.32427ZM123.036 3.87386C122.428 4.17032 121.83 4.48461 121.244 4.81606L121.367 5.0337L121.613 5.46898L121.736 5.68662C122.305 5.36508 122.884 5.0602 123.474 4.77263L123.364 4.54794L123.145 4.09856L123.036 3.87386ZM119.513 5.86467C118.946 6.2319 118.391 6.61578 117.849 7.01563L117.997 7.21688L118.294 7.61937L118.442 7.82062C118.968 7.43266 119.507 7.06021 120.057 6.70393L119.921 6.49411L119.649 6.07448L119.513 5.86467ZM116.256 8.26471C115.738 8.69709 115.233 9.14482 114.742 9.60721L114.914 9.78922L115.256 10.1532L115.428 10.3352C115.904 9.88655 116.394 9.45211 116.897 9.03257L116.737 8.84061L116.417 8.45668L116.256 8.26471ZM113.311 11.0381C112.849 11.5291 112.401 12.0341 111.969 12.5524L112.161 12.7125L112.545 13.0329L112.737 13.193C113.156 12.6901 113.591 12.2001 114.039 11.7237L113.857 11.5523L113.493 11.2095L113.311 11.0381ZM110.72 14.1445C110.32 14.6871 109.936 15.2421 109.569 15.8089L109.779 15.9448L110.198 16.2167L110.408 16.3526C110.764 15.8027 111.137 15.2642 111.525 14.7378L111.323 14.5895L110.921 14.2929L110.72 14.1445ZM108.52 17.5399C108.189 18.1263 107.874 18.7237 107.578 19.3314L107.803 19.441L108.252 19.6602L108.477 19.7698C108.764 19.1803 109.069 18.6008 109.391 18.0319L109.173 17.9089L108.738 17.6629L108.52 17.5399ZM106.746 21.1765C106.489 21.7979 106.249 22.4287 106.028 23.0684L106.265 23.1499L106.737 23.313L106.974 23.3946C107.188 22.7742 107.42 22.1623 107.67 21.5595L107.439 21.4638L106.977 21.2722L106.746 21.1765ZM105.427 25.0008C105.247 25.6485 105.085 26.304 104.944 26.9668L105.188 27.0191L105.677 27.1235L105.922 27.1758C106.059 26.5329 106.215 25.897 106.39 25.2689L106.149 25.2019L105.668 25.0678L105.427 25.0008ZM104.581 28.9587C104.481 29.6219 104.4 30.2915 104.34 30.9668L104.589 30.9892L105.087 31.0339L105.336 31.0562C105.394 30.4009 105.473 29.7513 105.57 29.1079L105.323 29.0706L104.828 28.996L104.581 28.9587ZM104.219 32.986C104.209 33.3228 104.204 33.6608 104.204 34C104.204 34.3392 104.209 34.6772 104.219 35.014L104.469 35.0066L104.969 34.9917L105.219 34.9843C105.209 34.6574 105.204 34.3293 105.204 34C105.204 33.6707 105.209 33.3426 105.219 33.0157L104.969 33.0083L104.469 32.9934L104.219 32.986ZM104.34 37.0332C104.4 37.7085 104.481 38.3781 104.581 39.0413L104.828 39.004L105.323 38.9294L105.57 38.8921C105.473 38.2487 105.394 37.5991 105.336 36.9438L105.087 36.9662L104.589 37.0109L104.34 37.0332ZM104.944 41.0332C105.085 41.696 105.247 42.3515 105.427 42.9992L105.668 42.9322L106.149 42.7981L106.39 42.7311C106.215 42.103 106.059 41.4671 105.922 40.8242L105.677 40.8765L105.188 40.9809L104.944 41.0332ZM106.028 44.9316C106.249 45.5713 106.489 46.2021 106.746 46.8235L106.977 46.7278L107.439 46.5362L107.67 46.4405C107.42 45.8377 107.188 45.2258 106.974 44.6054L106.737 44.687L106.265 44.8501L106.028 44.9316ZM107.578 48.6686C107.874 49.2763 108.189 49.8737 108.52 50.4601L108.738 50.3371L109.173 50.0911L109.391 49.9681C109.069 49.3992 108.764 48.8197 108.477 48.2302L108.252 48.3398L107.803 48.559L107.578 48.6686ZM109.569 52.1911C109.936 52.7579 110.32 53.3129 110.72 53.8555L110.921 53.7071L111.323 53.4105L111.525 53.2622C111.137 52.7358 110.764 52.1973 110.408 51.6474L110.198 51.7833L109.779 52.0552L109.569 52.1911ZM111.969 55.4476C112.401 55.9659 112.849 56.4709 113.311 56.9619L113.493 56.7905L113.857 56.4477L114.039 56.2763C113.591 55.7999 113.156 55.3099 112.737 54.807L112.545 54.9671L112.161 55.2875L111.969 55.4476ZM114.742 58.3928C115.233 58.8552 115.738 59.3029 116.256 59.7353L116.417 59.5433L116.737 59.1594L116.897 58.9674C116.394 58.5479 115.904 58.1134 115.428 57.6648L115.256 57.8468L114.914 58.2108L114.742 58.3928ZM117.849 60.9844C118.391 61.3842 118.946 61.7681 119.513 62.1353L119.649 61.9255L119.921 61.5059L120.057 61.2961C119.507 60.9398 118.968 60.5673 118.442 60.1794L118.294 60.3806L117.997 60.7831L117.849 60.9844ZM121.244 63.1839C121.83 63.5154 122.428 63.8297 123.036 64.1261L123.145 63.9014L123.364 63.4521L123.474 63.2274C122.884 62.9398 122.305 62.6349 121.736 62.3134L121.613 62.531L121.367 62.9663L121.244 63.1839ZM124.881 64.9578C125.502 65.2155 126.133 65.455 126.772 65.6757L126.854 65.4394L127.017 64.9668L127.099 64.7304C126.478 64.5164 125.866 64.284 125.264 64.0341L125.168 64.265L124.976 64.7269L124.881 64.9578ZM128.705 66.2773C129.353 66.4575 130.008 66.6188 130.671 66.7604L130.723 66.5159L130.828 66.0269L130.88 65.7824C130.237 65.6451 129.601 65.4887 128.973 65.3139L128.906 65.5548L128.772 66.0365L128.705 66.2773ZM132.663 67.1231C133.326 67.2232 133.996 67.3039 134.671 67.3645L134.693 67.1155L134.738 66.6175L134.76 66.3685C134.105 66.3097 133.455 66.2314 132.812 66.1343L132.775 66.3815L132.7 66.8759L132.663 67.1231ZM136.69 67.4849C137.027 67.495 137.365 67.5 137.704 67.5V67.25V66.75V66.5C137.375 66.5 137.047 66.4951 136.72 66.4854L136.712 66.7353L136.698 67.2351L136.69 67.4849ZM142.581 1.8657C141.937 1.76857 141.288 1.69031 140.632 1.63149L140.655 1.38249L140.699 0.884497L140.722 0.635498C141.397 0.696118 142.067 0.776782 142.73 0.876897L142.693 1.1241L142.618 1.6185L142.581 1.8657ZM146.42 2.68607C145.791 2.5113 145.156 2.35492 144.513 2.21756L144.565 1.97308L144.669 1.48412L144.722 1.23963C145.384 1.38125 146.04 1.54247 146.688 1.72266L146.621 1.96352L146.487 2.44522L146.42 2.68607ZM150.129 3.96592C149.526 3.71597 148.914 3.48365 148.294 3.26958L148.375 3.03325L148.539 2.5606L148.62 2.32427C149.26 2.54498 149.891 2.78451 150.512 3.04219L150.416 3.27313L150.225 3.73499L150.129 3.96592ZM153.657 5.68662C153.088 5.36508 152.508 5.0602 151.919 4.77263L152.028 4.54794L152.247 4.09856L152.357 3.87386C152.965 4.17032 153.562 4.48461 154.149 4.81606L154.026 5.0337L153.78 5.46898L153.657 5.68662ZM156.951 7.82061C156.424 7.43266 155.886 7.06021 155.336 6.70393L155.472 6.49411L155.744 6.07448L155.88 5.86467C156.446 6.23189 157.001 6.61578 157.544 7.01563L157.396 7.21687L157.099 7.61937L156.951 7.82061ZM159.965 10.3352C159.488 9.88655 158.998 9.45211 158.495 9.03257L158.656 8.84061L158.976 8.45668L159.136 8.26471C159.654 8.69709 160.159 9.14482 160.65 9.60721L160.479 9.78921L160.136 10.1532L159.965 10.3352ZM162.656 13.193C162.236 12.6901 161.802 12.2001 161.353 11.7237L161.535 11.5523L161.899 11.2095L162.081 11.0381C162.544 11.5291 162.991 12.0341 163.424 12.5524L163.232 12.7125L162.848 13.0329L162.656 13.193ZM164.985 16.3526C164.628 15.8027 164.256 15.2642 163.868 14.7378L164.069 14.5895L164.472 14.2929L164.673 14.1445C165.073 14.6871 165.457 15.2421 165.824 15.8089L165.614 15.9448L165.194 16.2167L164.985 16.3526ZM166.916 19.7698C166.628 19.1803 166.323 18.6008 166.002 18.0319L166.219 17.9089L166.655 17.6629L166.872 17.5399C167.204 18.1263 167.518 18.7237 167.815 19.3314L167.59 19.441L167.141 19.6602L166.916 19.7698ZM168.419 23.3946C168.205 22.7742 167.973 22.1623 167.723 21.5595L167.953 21.4638L168.415 21.2722L168.646 21.1765C168.904 21.7979 169.144 22.4287 169.364 23.0684L169.128 23.1499L168.655 23.313L168.419 23.3946ZM169.471 27.1758C169.334 26.5329 169.177 25.897 169.002 25.2689L169.243 25.2019L169.725 25.0678L169.966 25.0008C170.146 25.6485 170.307 26.304 170.449 26.9668L170.204 27.0191L169.715 27.1235L169.471 27.1758ZM170.057 31.0562C169.998 30.4009 169.92 29.7513 169.823 29.1079L170.07 29.0706L170.564 28.996L170.812 28.9587C170.912 29.6219 170.992 30.2915 171.053 30.9668L170.804 30.9891L170.306 31.0339L170.057 31.0562ZM170.188 34C170.188 33.6707 170.184 33.3426 170.174 33.0157L170.424 33.0083L170.924 32.9934L171.173 32.986C171.183 33.3228 171.188 33.6608 171.188 34H170.938H170.438H170.188Z" fill="url(#paint5_linear_409_13505)"/>
<path fill-rule="evenodd" clip-rule="evenodd" d="M17.7192 199.516C17.7095 199.843 17.7046 200.171 17.7046 200.5C17.7046 200.829 17.7095 201.157 17.7192 201.484L17.4693 201.492L16.9695 201.507L16.7197 201.514C16.7096 201.177 16.7046 200.839 16.7046 200.5C16.7046 200.161 16.7096 199.823 16.7196 199.486L16.9695 199.493L17.4693 199.508L17.7192 199.516ZM18.0703 195.608C17.9732 196.251 17.8949 196.901 17.8361 197.556L17.5871 197.534L17.0891 197.489L16.8401 197.467C16.9007 196.791 16.9814 196.122 17.0815 195.459L17.3287 195.496L17.8231 195.571L18.0703 195.608ZM18.8907 191.769C18.7159 192.397 18.5595 193.033 18.4221 193.676L18.1777 193.624L17.6887 193.519L17.4442 193.467C17.5858 192.804 17.7471 192.148 17.9273 191.501L18.1681 191.568L18.6498 191.702L18.8907 191.769ZM20.1705 188.06C19.9206 188.662 19.6882 189.274 19.4742 189.895L19.2378 189.813L18.7652 189.65L18.5289 189.568C18.7496 188.929 18.9891 188.298 19.2468 187.676L19.4777 187.772L19.9396 187.964L20.1705 188.06ZM21.8912 184.532C21.5697 185.101 21.2648 185.68 20.9772 186.27L20.7525 186.16L20.3031 185.941L20.0785 185.831C20.3749 185.224 20.6892 184.626 21.0206 184.04L21.2383 184.163L21.6736 184.409L21.8912 184.532ZM24.0252 181.238C23.6372 181.764 23.2648 182.303 22.9085 182.853L22.6987 182.717L22.2791 182.445L22.0693 182.309C22.4365 181.742 22.8204 181.187 23.2202 180.645L23.4215 180.793L23.824 181.09L24.0252 181.238ZM26.5398 178.224C26.0911 178.7 25.6567 179.19 25.2372 179.693L25.0452 179.533L24.6613 179.213L24.4693 179.052C24.9017 178.534 25.3494 178.029 25.8118 177.538L25.9938 177.71L26.3578 178.052L26.5398 178.224ZM29.3976 175.533C28.8947 175.952 28.4047 176.387 27.9283 176.835L27.7569 176.653L27.4141 176.289L27.2427 176.107C27.7337 175.645 28.2387 175.197 28.757 174.765L28.9171 174.957L29.2374 175.341L29.3976 175.533ZM32.5572 173.204C32.0073 173.56 31.4688 173.933 30.9424 174.321L30.7941 174.119L30.4975 173.717L30.3491 173.516C30.8917 173.116 31.4467 172.732 32.0135 172.365L32.1494 172.574L32.4213 172.994L32.5572 173.204ZM35.9744 171.273C35.3849 171.56 34.8054 171.865 34.2365 172.187L34.1135 171.969L33.8675 171.534L33.7444 171.316C34.3309 170.985 34.9283 170.67 35.536 170.374L35.6456 170.599L35.8648 171.048L35.9744 171.273ZM39.5991 169.77C38.9787 169.984 38.3669 170.216 37.7641 170.466L37.6684 170.235L37.4768 169.773L37.3811 169.542C38.0025 169.285 38.6333 169.045 39.273 168.824L39.3545 169.061L39.5176 169.533L39.5991 169.77ZM43.3804 168.718C42.7375 168.855 42.1016 169.011 41.4735 169.186L41.4064 168.945L41.2724 168.464L41.2054 168.223C41.8531 168.042 42.5086 167.881 43.1714 167.74L43.2236 167.984L43.3281 168.473L43.3804 168.718ZM47.2608 168.131C46.6055 168.19 45.9559 168.269 45.3125 168.366L45.2752 168.118L45.2006 167.624L45.1632 167.377C45.8265 167.277 46.4961 167.196 47.1714 167.135L47.1937 167.384L47.2384 167.882L47.2608 168.131ZM50.2046 168C49.8753 168 49.5472 168.005 49.2203 168.015L49.2129 167.765L49.198 167.265L49.1906 167.015C49.5274 167.005 49.8654 167 50.2046 167V167.25V167.75V168ZM16.8401 203.533C16.9007 204.209 16.9814 204.878 17.0815 205.541L17.3287 205.504L17.8231 205.429L18.0703 205.392C17.9732 204.749 17.8949 204.099 17.8361 203.444L17.5871 203.466L17.0891 203.511L16.8401 203.533ZM17.4442 207.533C17.5858 208.196 17.7471 208.852 17.9273 209.499L18.1681 209.432L18.6498 209.298L18.8907 209.231C18.7159 208.603 18.5595 207.967 18.4222 207.324L18.1777 207.376L17.6887 207.481L17.4442 207.533ZM18.5289 211.432C18.7496 212.071 18.9891 212.702 19.2468 213.324L19.4777 213.228L19.9396 213.036L20.1705 212.94C19.9206 212.338 19.6882 211.726 19.4742 211.105L19.2378 211.187L18.7652 211.35L18.5289 211.432ZM20.0785 215.169C20.3749 215.776 20.6892 216.374 21.0207 216.96L21.2383 216.837L21.6736 216.591L21.8912 216.468C21.5697 215.899 21.2648 215.32 20.9772 214.73L20.7525 214.84L20.3032 215.059L20.0785 215.169ZM22.0693 218.691C22.4365 219.258 22.8204 219.813 23.2202 220.355L23.4215 220.207L23.824 219.91L24.0252 219.762C23.6373 219.236 23.2648 218.697 22.9085 218.147L22.6987 218.283L22.2791 218.555L22.0693 218.691ZM24.4693 221.948C24.9017 222.466 25.3494 222.971 25.8118 223.462L25.9938 223.29L26.3578 222.948L26.5398 222.776C26.0911 222.3 25.6567 221.81 25.2372 221.307L25.0452 221.467L24.6613 221.787L24.4693 221.948ZM27.2427 224.893C27.7337 225.355 28.2387 225.803 28.757 226.235L28.9171 226.043L29.2374 225.659L29.3976 225.467C28.8947 225.048 28.4047 224.613 27.9283 224.165L27.7569 224.347L27.4141 224.711L27.2427 224.893ZM30.3491 227.484C30.8917 227.884 31.4467 228.268 32.0135 228.635L32.1494 228.426L32.4213 228.006L32.5572 227.796C32.0073 227.44 31.4688 227.067 30.9424 226.679L30.7941 226.881L30.4975 227.283L30.3491 227.484ZM33.7445 229.684C34.3309 230.015 34.9283 230.33 35.536 230.626L35.6456 230.401L35.8648 229.952L35.9744 229.727C35.3849 229.44 34.8054 229.135 34.2365 228.813L34.1135 229.031L33.8675 229.466L33.7445 229.684ZM37.3811 231.458C38.0025 231.715 38.6333 231.955 39.273 232.176L39.3545 231.939L39.5176 231.467L39.5991 231.23C38.9788 231.016 38.3669 230.784 37.7641 230.534L37.6684 230.765L37.4768 231.227L37.3811 231.458ZM41.2054 232.777C41.8531 232.958 42.5086 233.119 43.1714 233.26L43.2237 233.016L43.3281 232.527L43.3804 232.282C42.7375 232.145 42.1016 231.989 41.4735 231.814L41.4065 232.055L41.2724 232.536L41.2054 232.777ZM45.1633 233.623C45.8265 233.723 46.4961 233.804 47.1714 233.865L47.1937 233.616L47.2384 233.118L47.2608 232.869C46.6055 232.81 45.9559 232.731 45.3125 232.634L45.2752 232.882L45.2006 233.376L45.1633 233.623ZM49.1906 233.985C49.5274 233.995 49.8654 234 50.2046 234C50.5438 234 50.8818 233.995 51.2186 233.985L51.2112 233.735L51.1963 233.235L51.1889 232.985C50.862 232.995 50.5339 233 50.2046 233C49.8753 233 49.5472 232.995 49.2203 232.985L49.2129 233.235L49.198 233.735L49.1906 233.985ZM53.2378 233.865C53.9131 233.804 54.5827 233.723 55.2459 233.623L55.2086 233.376L55.134 232.882L55.0967 232.634C54.4533 232.731 53.8037 232.81 53.1484 232.869L53.1707 233.118L53.2155 233.616L53.2378 233.865ZM57.2378 233.26C57.9006 233.119 58.5561 232.958 59.2038 232.777L59.1368 232.536L59.0027 232.055L58.9357 231.814C58.3076 231.989 57.6717 232.145 57.0288 232.282L57.0811 232.527L57.1855 233.016L57.2378 233.26ZM61.1362 232.176C61.7759 231.955 62.4067 231.715 63.0281 231.458L62.9324 231.227L62.7408 230.765L62.6451 230.534C62.0423 230.784 61.4304 231.016 60.81 231.23L60.8916 231.467L61.0547 231.939L61.1362 232.176ZM64.8732 230.626C65.4809 230.33 66.0783 230.015 66.6647 229.684L66.5417 229.466L66.2957 229.031L66.1727 228.813C65.6038 229.135 65.0243 229.44 64.4348 229.727L64.5444 229.952L64.7636 230.401L64.8732 230.626ZM68.3957 228.635C68.9625 228.268 69.5175 227.884 70.0601 227.484L69.9117 227.283L69.6151 226.881L69.4668 226.679C68.9404 227.067 68.4019 227.44 67.852 227.796L67.9879 228.006L68.2598 228.426L68.3957 228.635ZM71.6522 226.235C72.1705 225.803 72.6755 225.355 73.1665 224.893L72.9951 224.711L72.6523 224.347L72.4809 224.165C72.0045 224.613 71.5145 225.048 71.0116 225.467L71.1717 225.659L71.4921 226.043L71.6522 226.235ZM74.5974 223.462C75.0598 222.971 75.5075 222.466 75.9399 221.948L75.7479 221.787L75.364 221.467L75.172 221.307C74.7525 221.81 74.318 222.3 73.8694 222.776L74.0514 222.948L74.4154 223.29L74.5974 223.462ZM77.189 220.355C77.5888 219.813 77.9727 219.258 78.3399 218.691L78.1301 218.555L77.7105 218.283L77.5007 218.147C77.1444 218.697 76.7719 219.236 76.384 219.762L76.5852 219.91L76.9877 220.207L77.189 220.355ZM79.3885 216.96C79.72 216.374 80.0343 215.776 80.3307 215.169L80.106 215.059L79.6567 214.84L79.432 214.73C79.1444 215.32 78.8395 215.899 78.518 216.468L78.7356 216.591L79.1709 216.837L79.3885 216.96ZM81.1624 213.324C81.4201 212.702 81.6596 212.071 81.8803 211.432L81.644 211.35L81.1713 211.187L80.935 211.105C80.7209 211.726 80.4886 212.338 80.2387 212.94L80.4696 213.036L80.9315 213.228L81.1624 213.324ZM82.4819 209.499C82.6621 208.852 82.8233 208.196 82.965 207.533L82.7205 207.481L82.2315 207.376L81.987 207.324C81.8497 207.967 81.6933 208.603 81.5185 209.231L81.7594 209.298L82.2411 209.432L82.4819 209.499ZM83.3277 205.541C83.4278 204.878 83.5085 204.209 83.5691 203.533L83.3201 203.511L82.8221 203.466L82.5731 203.444C82.5143 204.099 82.436 204.749 82.3389 205.392L82.5861 205.429L83.0805 205.504L83.3277 205.541ZM83.6895 201.514C83.6996 201.177 83.7046 200.839 83.7046 200.5H83.4546H82.9546H82.7046C82.7046 200.829 82.6997 201.157 82.69 201.484L82.9399 201.492L83.4397 201.507L83.6895 201.514Z" fill="url(#paint6_linear_409_13505)"/>
<path d="M83.2041 200.5C83.2041 182.275 97.9787 167.5 116.204 167.5" stroke="white" stroke-width="0.5" stroke-dasharray="2 2"/>
<path d="M149.204 134.5C149.204 152.725 134.429 167.5 116.204 167.5" stroke="white" stroke-width="0.5" stroke-dasharray="2 2"/>
<path fill-rule="evenodd" clip-rule="evenodd" d="M6.71103 71.6221C6.70071 71.6381 6.6904 71.6541 6.68012 71.6701L6.89046 71.8052L7.31113 72.0755L7.52147 72.2106C7.69823 71.9354 7.87966 71.662 8.06579 71.3904L7.99343 71.3408C8.00513 71.3233 8.01684 71.3059 8.02856 71.2884L7.82104 71.149L7.40601 70.8702L7.19849 70.7308C7.01059 71.0104 6.82624 71.2938 6.64554 71.5809L6.71103 71.6221ZM10.4075 68.1683C9.98253 68.6611 9.57022 69.1692 9.17137 69.6924L8.97255 69.5408L8.57492 69.2377L8.3761 69.0861C8.78717 68.5469 9.21215 68.0232 9.6502 67.5153L9.83952 67.6785L10.2182 68.0051L10.4075 68.1683ZM13.147 65.3565C12.6644 65.795 12.1933 66.2498 11.7346 66.7207L11.5555 66.5462L11.1974 66.1973L11.0183 66.0228C11.4912 65.5374 11.9769 65.0685 12.4744 64.6164L12.6426 64.8014L12.9788 65.1714L13.147 65.3565ZM16.2062 62.8991C15.6735 63.2761 15.1509 63.6701 14.6393 64.0811L14.4827 63.8862L14.1696 63.4964L14.013 63.3015C14.5406 62.8778 15.0794 62.4715 15.6285 62.0829L15.7729 62.2869L16.0617 62.6951L16.2062 62.8991ZM19.5416 60.8305C18.9665 61.1406 18.3997 61.4686 17.8423 61.8143L17.7105 61.6019L17.447 61.1769L17.3152 60.9645C17.8899 60.6081 18.4741 60.27 19.067 59.9503L19.1857 60.1703L19.423 60.6104L19.5416 60.8305ZM23.1025 59.1796C22.4937 59.4184 21.8917 59.6757 21.2972 59.9513L21.192 59.7245L20.9817 59.2708L20.8766 59.044C21.4893 58.76 22.1099 58.4948 22.7373 58.2487L22.8286 58.4814L23.0112 58.9469L23.1025 59.1796ZM26.8363 57.9684C26.2028 58.1326 25.5741 58.3158 24.9511 58.5179L24.874 58.2801L24.7197 57.8045L24.6426 57.5667C25.2846 57.3584 25.9325 57.1696 26.5854 57.0004L26.6481 57.2424L26.7736 57.7264L26.8363 57.9684ZM30.6884 57.2134C30.0394 57.3005 29.3932 57.4072 28.751 57.533L28.7029 57.2877L28.6067 56.797L28.5586 56.5517C29.2205 56.422 29.8864 56.3121 30.5553 56.2223L30.5886 56.4701L30.6552 56.9656L30.6884 57.2134ZM34.6029 56.9259C33.9477 56.9345 33.2936 56.9628 32.6414 57.0107L32.6231 56.7614L32.5865 56.2627L32.5682 56.0134C33.2403 55.964 33.9145 55.9348 34.5899 55.926L34.5931 56.176L34.5996 56.676L34.6029 56.9259ZM38.5237 57.112C37.8716 57.0413 37.2187 56.9906 36.566 56.9596L36.5778 56.7099L36.6015 56.2105L36.6134 55.9607C37.2862 55.9926 37.9592 56.0449 38.6315 56.1178L38.6045 56.3664L38.5506 56.8634L38.5237 57.112ZM42.392 57.771C41.7529 57.6216 41.1113 57.4923 40.468 57.3827L40.51 57.1363L40.594 56.6434L40.636 56.3969C41.2991 56.5099 41.9606 56.6432 42.6195 56.7972L42.5626 57.0407L42.4488 57.5275L42.392 57.771ZM46.1524 58.8951C45.5351 58.6688 44.9137 58.4624 44.289 58.2757L44.3606 58.0362L44.5038 57.5571L44.5754 57.3176C45.2195 57.5101 45.8602 57.7229 46.4965 57.9561L46.4105 58.1909L46.2384 58.6603L46.1524 58.8951ZM49.7485 60.4663C49.1627 60.167 48.5712 59.8872 47.975 59.6266L48.0751 59.3975L48.2753 58.9394L48.3754 58.7103C48.99 58.9789 49.5997 59.2673 50.2035 59.5758L50.0897 59.7984L49.8623 60.2437L49.7485 60.4663ZM52.3099 61.9233C52.0312 61.7479 51.7509 61.5772 51.4691 61.4113L51.5959 61.1959L51.8496 60.765L51.9764 60.5496C52.2668 60.7205 52.5556 60.8963 52.8426 61.077L52.7094 61.2886L52.4431 61.7117L52.3099 61.9233ZM5.63812 73.4039C5.30641 73.9952 4.99447 74.5932 4.70216 75.1969L4.92717 75.3058L5.37719 75.5237L5.60221 75.6327C5.88577 75.047 6.18841 74.4669 6.51028 73.8931L6.29224 73.7708L5.85616 73.5262L5.63812 73.4039ZM3.8755 77.045C3.61768 77.6718 3.38013 78.3037 3.16269 78.9398L3.39925 79.0207L3.87237 79.1824L4.10893 79.2633C4.31983 78.6463 4.55024 78.0334 4.80032 77.4254L4.56912 77.3303L4.10671 77.1401L3.8755 77.045ZM2.56665 80.874C2.38716 81.5264 2.22816 82.1822 2.08948 82.8405L2.33411 82.892L2.82337 82.9951L3.068 83.0466C3.20252 82.4081 3.35673 81.7721 3.53082 81.1393L3.28978 81.073L2.80769 80.9403L2.56665 80.874ZM1.73262 84.8326C1.63365 85.5015 1.55523 86.172 1.49718 86.8431L1.74625 86.8646L2.24439 86.9077L2.49346 86.9293C2.54978 86.2782 2.62585 85.6278 2.72185 84.979L2.47455 84.9424L1.97993 84.8692L1.73262 84.8326ZM1.38378 88.8637C1.36631 89.5389 1.36926 90.2137 1.39245 90.8872L1.6423 90.8786L2.14201 90.8614L2.39186 90.8528C2.36936 90.1993 2.3665 89.5446 2.38344 88.8896L2.13353 88.8831L1.63369 88.8702L1.38378 88.8637ZM1.52288 92.9067C1.58661 93.5786 1.67051 94.2483 1.77439 94.9147L2.02141 94.8762L2.51544 94.7992L2.76246 94.7607C2.66165 94.114 2.58025 93.4642 2.51841 92.8123L2.26953 92.8359L1.77176 92.8831L1.52288 92.9067ZM2.14595 96.9039C2.28964 97.5629 2.45314 98.2177 2.63626 98.8673L2.87688 98.7995L3.35813 98.6638L3.59875 98.596C3.42107 97.9656 3.26242 97.3303 3.123 96.6909L2.87874 96.7441L2.39021 96.8506L2.14595 96.9039ZM3.24362 100.798C3.46514 101.434 3.70599 102.065 3.966 102.688L4.19673 102.592L4.65819 102.399L4.88893 102.303C4.63667 101.698 4.40299 101.087 4.18806 100.469L3.95195 100.551L3.47973 100.715L3.24362 100.798ZM4.80117 104.531C5.09757 105.136 5.41273 105.733 5.74649 106.321L5.96391 106.198L6.39876 105.951L6.61618 105.828C6.29243 105.257 5.9867 104.678 5.69916 104.091L5.47466 104.201L5.02567 104.421L4.80117 104.531ZM6.79842 108.05C7.16537 108.614 7.55038 109.168 7.95327 109.712L8.15413 109.563L8.55583 109.265L8.75668 109.116C8.36591 108.589 7.99247 108.052 7.63654 107.505L7.42701 107.641L7.00795 107.914L6.79842 108.05ZM9.20733 111.3C9.63974 111.815 10.0894 112.319 10.5561 112.81L10.7374 112.638L11.0999 112.294L11.2812 112.122C10.8285 111.645 10.3924 111.156 9.97301 110.657L9.78159 110.818L9.39875 111.14L9.20733 111.3ZM11.9942 114.235C12.4847 114.693 12.9914 115.138 13.5143 115.57L13.6734 115.377L13.9918 114.991L14.151 114.798C13.6437 114.38 13.1521 113.948 12.6762 113.504L12.5057 113.687L12.1647 114.052L11.9942 114.235ZM15.1118 116.81C15.384 117.009 15.66 117.204 15.9398 117.396C16.2196 117.588 16.5013 117.774 16.7848 117.957L16.9199 117.746L17.1902 117.326L17.3253 117.115C17.0501 116.938 16.7767 116.757 16.5051 116.571C16.2334 116.385 15.9655 116.195 15.7014 116.002L15.554 116.204L15.2592 116.608L15.1118 116.81ZM18.5186 118.999C19.1099 119.33 19.7079 119.642 20.3116 119.935L20.4205 119.71L20.6384 119.259L20.7474 119.034C20.1617 118.751 19.5816 118.448 19.0078 118.126L18.8855 118.344L18.6409 118.781L18.5186 118.999ZM22.1597 120.761C22.7865 121.019 23.4184 121.257 24.0545 121.474L24.1354 121.237L24.2971 120.764L24.378 120.528C23.761 120.317 23.1481 120.086 22.5401 119.836L22.445 120.068L22.2548 120.53L22.1597 120.761ZM25.9887 122.07C26.6411 122.25 27.2969 122.409 27.9552 122.547L28.0067 122.303L28.1098 121.813L28.1613 121.569C27.5228 121.434 26.8867 121.28 26.254 121.106L26.1877 121.347L26.055 121.829L25.9887 122.07ZM29.9473 122.904C30.6162 123.003 31.2867 123.081 31.9578 123.139L31.9793 122.89L32.0224 122.392L32.044 122.143C31.3929 122.087 30.7425 122.011 30.0937 121.915L30.0571 122.162L29.9839 122.657L29.9473 122.904ZM33.9784 123.253C34.6536 123.27 35.3284 123.267 36.0019 123.244L35.9933 122.994L35.9761 122.495L35.9675 122.245C35.314 122.267 34.6593 122.27 34.0042 122.253L33.9978 122.503L33.9849 123.003L33.9784 123.253ZM38.0214 123.114C38.6933 123.05 39.363 122.966 40.0294 122.862L39.9909 122.615L39.9139 122.121L39.8754 121.874C39.2287 121.975 38.5789 122.056 37.927 122.118L37.9506 122.367L37.9978 122.865L38.0214 123.114ZM42.0186 122.491C42.6776 122.347 43.3324 122.184 43.982 122L43.9142 121.76L43.7785 121.279L43.7107 121.038C43.0803 121.216 42.445 121.374 41.8055 121.514L41.8588 121.758L41.9653 122.246L42.0186 122.491ZM45.9123 121.393C46.5488 121.172 47.1792 120.931 47.8026 120.671L47.7063 120.44L47.5138 119.978L47.4176 119.748C46.8128 120 46.2012 120.234 45.5837 120.449L45.6658 120.685L45.8302 121.157L45.9123 121.393ZM49.646 119.836C50.2509 119.539 50.8479 119.224 51.4359 118.89L51.3125 118.673L51.0657 118.238L50.9423 118.02C50.3719 118.344 49.7928 118.65 49.206 118.938L49.316 119.162L49.536 119.611L49.646 119.836ZM53.1649 117.838C53.7287 117.471 54.2829 117.086 54.8265 116.683L54.6777 116.483L54.38 116.081L54.2311 115.88C53.7038 116.271 53.1663 116.644 52.6194 117L52.7558 117.21L53.0285 117.629L53.1649 117.838ZM56.4151 115.429C56.9298 114.997 57.4334 114.547 57.9249 114.081L57.7527 113.899L57.4084 113.537L57.2363 113.355C56.7595 113.808 56.2711 114.244 55.7719 114.664L55.9327 114.855L56.2543 115.238L56.4151 115.429ZM59.35 112.643C59.8075 112.152 60.2525 111.645 60.6842 111.122L60.4914 110.963L60.1059 110.645L59.9131 110.486C59.4942 110.993 59.0625 111.485 58.6187 111.96L58.8015 112.131L59.1671 112.472L59.35 112.643ZM61.9249 109.525C62.1235 109.253 62.3188 108.977 62.5105 108.697L62.3043 108.556L61.8918 108.273L61.6856 108.132C61.4995 108.403 61.3099 108.671 61.1171 108.935L61.3191 109.083L61.723 109.377L61.9249 109.525Z" fill="url(#paint7_linear_409_13505)"/>
<path fill-rule="evenodd" clip-rule="evenodd" d="M339.893 142.641C339.893 142.646 339.893 142.651 339.893 142.656H340.143H340.407L340.628 142.663L340.878 142.67C340.878 142.666 340.878 142.661 340.878 142.656H340.893C340.893 142.489 340.892 142.323 340.889 142.156C340.892 141.99 340.893 141.823 340.893 141.656H340.878C340.878 141.652 340.878 141.647 340.878 141.642L340.628 141.65L340.407 141.656H340.143H339.893C339.893 141.661 339.893 141.666 339.893 141.672L339.878 141.672C339.883 141.833 339.887 141.995 339.889 142.156C339.887 142.318 339.883 142.479 339.878 142.641L339.893 142.641ZM339.527 137.764C339.624 138.408 339.703 139.057 339.762 139.712L340.011 139.69L340.509 139.645L340.758 139.623C340.697 138.948 340.616 138.278 340.516 137.615L340.269 137.652L339.775 137.727L339.527 137.764ZM338.707 133.925C338.882 134.553 339.038 135.189 339.176 135.832L339.42 135.78L339.909 135.675L340.153 135.623C340.012 134.96 339.851 134.305 339.67 133.657L339.43 133.724L338.948 133.858L338.707 133.925ZM337.427 130.216C337.677 130.819 337.909 131.43 338.123 132.051L338.36 131.969L338.832 131.806L339.069 131.725C338.848 131.085 338.609 130.454 338.351 129.833L338.12 129.928L337.658 130.12L337.427 130.216ZM335.706 126.688C336.028 127.257 336.333 127.837 336.62 128.426L336.845 128.316L337.295 128.097L337.519 127.988C337.223 127.38 336.908 126.783 336.577 126.196L336.359 126.319L335.924 126.565L335.706 126.688ZM333.572 123.394C333.96 123.92 334.333 124.459 334.689 125.009L334.899 124.873L335.319 124.601L335.528 124.465C335.161 123.898 334.777 123.343 334.377 122.801L334.176 122.949L333.774 123.246L333.572 123.394ZM331.058 120.38C331.507 120.856 331.941 121.346 332.36 121.849L332.552 121.689L332.936 121.369L333.128 121.209C332.696 120.69 332.248 120.185 331.786 119.694L331.604 119.866L331.24 120.209L331.058 120.38ZM328.2 117.689C328.703 118.108 329.193 118.543 329.669 118.991L329.841 118.809L330.184 118.445L330.355 118.263C329.864 117.801 329.359 117.353 328.841 116.921L328.681 117.113L328.36 117.497L328.2 117.689ZM325.04 115.36C325.59 115.716 326.129 116.089 326.655 116.477L326.804 116.276L327.1 115.873L327.249 115.672C326.706 115.272 326.151 114.888 325.584 114.521L325.448 114.731L325.176 115.15L325.04 115.36ZM321.623 113.429C322.213 113.716 322.792 114.021 323.361 114.343L323.484 114.125L323.73 113.69L323.853 113.472C323.267 113.141 322.669 112.827 322.062 112.53L321.952 112.755L321.733 113.204L321.623 113.429ZM317.999 111.926C318.619 112.14 319.231 112.372 319.834 112.622L319.929 112.391L320.121 111.929L320.217 111.698C319.595 111.441 318.964 111.201 318.325 110.981L318.243 111.217L318.08 111.69L317.999 111.926ZM314.217 110.874C314.86 111.011 315.496 111.168 316.124 111.342L316.191 111.101L316.325 110.62L316.392 110.379C315.745 110.199 315.089 110.037 314.426 109.896L314.374 110.14L314.27 110.629L314.217 110.874ZM310.337 110.288C310.992 110.347 311.642 110.425 312.285 110.522L312.322 110.275L312.397 109.78L312.434 109.533C311.771 109.433 311.102 109.352 310.426 109.292L310.404 109.541L310.359 110.039L310.337 110.288ZM307.393 110.156C307.722 110.156 308.05 110.161 308.377 110.171L308.385 109.921L308.4 109.421L308.407 109.171C308.07 109.161 307.732 109.156 307.393 109.156V109.406V109.906V110.156ZM340.758 144.689C340.697 145.365 340.616 146.034 340.516 146.698L340.269 146.66L339.775 146.586L339.527 146.548C339.624 145.905 339.703 145.255 339.762 144.6L340.011 144.622L340.509 144.667L340.758 144.689ZM340.153 148.689C340.012 149.352 339.851 150.008 339.67 150.655L339.43 150.588L338.948 150.454L338.707 150.387C338.882 149.759 339.038 149.123 339.176 148.48L339.42 148.533L339.909 148.637L340.153 148.689ZM339.069 152.588C338.848 153.228 338.609 153.858 338.351 154.48L338.12 154.384L337.658 154.192L337.427 154.097C337.677 153.494 337.909 152.882 338.123 152.262L338.36 152.343L338.832 152.506L339.069 152.588ZM337.519 156.325C337.223 156.933 336.908 157.53 336.577 158.116L336.359 157.993L335.924 157.747L335.706 157.624C336.028 157.055 336.333 156.476 336.62 155.886L336.845 155.996L337.295 156.215L337.519 156.325ZM335.528 159.847C335.161 160.414 334.777 160.969 334.377 161.512L334.176 161.363L333.774 161.067L333.572 160.918C333.96 160.392 334.333 159.854 334.689 159.304L334.899 159.44L335.319 159.711L335.528 159.847ZM333.128 163.104C332.696 163.622 332.248 164.127 331.786 164.618L331.604 164.447L331.24 164.104L331.058 163.933C331.507 163.456 331.941 162.966 332.36 162.463L332.552 162.623L332.936 162.944L333.128 163.104ZM330.355 166.049C329.864 166.511 329.359 166.959 328.841 167.392L328.681 167.2L328.36 166.816L328.2 166.624C328.703 166.204 329.193 165.77 329.669 165.321L329.841 165.503L330.184 165.867L330.355 166.049ZM327.249 168.641C326.706 169.04 326.151 169.424 325.584 169.792L325.448 169.582L325.176 169.162L325.04 168.952C325.59 168.596 326.129 168.224 326.655 167.836L326.804 168.037L327.1 168.439L327.249 168.641ZM323.853 170.84C323.267 171.172 322.669 171.486 322.062 171.782L321.952 171.558L321.733 171.108L321.623 170.884C322.213 170.596 322.792 170.291 323.361 169.97L323.484 170.187L323.73 170.623L323.853 170.84ZM320.217 172.614C319.595 172.872 318.964 173.111 318.325 173.332L318.243 173.096L318.08 172.623L317.999 172.387C318.619 172.173 319.231 171.94 319.834 171.69L319.929 171.921L320.121 172.383L320.217 172.614ZM316.392 173.934C315.745 174.114 315.089 174.275 314.426 174.417L314.374 174.172L314.27 173.683L314.217 173.439C314.86 173.301 315.496 173.145 316.124 172.97L316.191 173.211L316.325 173.693L316.392 173.934ZM312.434 174.779C311.771 174.879 311.102 174.96 310.426 175.021L310.404 174.772L310.359 174.274L310.337 174.025C310.992 173.966 311.642 173.888 312.285 173.791L312.322 174.038L312.397 174.532L312.434 174.779ZM308.407 175.141C308.07 175.151 307.732 175.156 307.393 175.156C307.054 175.156 306.716 175.151 306.379 175.141L306.386 174.891L306.401 174.392L306.409 174.142C306.736 174.151 307.064 174.156 307.393 174.156C307.722 174.156 308.05 174.151 308.377 174.142L308.385 174.392L308.4 174.891L308.407 175.141ZM304.36 175.021C303.685 174.96 303.015 174.879 302.352 174.779L302.389 174.532L302.464 174.038L302.501 173.791C303.144 173.888 303.794 173.966 304.449 174.025L304.427 174.274L304.382 174.772L304.36 175.021ZM300.36 174.417C299.697 174.275 299.042 174.114 298.394 173.934L298.461 173.693L298.595 173.211L298.662 172.97C299.29 173.145 299.926 173.301 300.569 173.439L300.517 173.683L300.412 174.172L300.36 174.417ZM296.461 173.332C295.822 173.111 295.191 172.872 294.57 172.614L294.665 172.383L294.857 171.921L294.953 171.69C295.555 171.94 296.167 172.173 296.788 172.387L296.706 172.623L296.543 173.096L296.461 173.332ZM292.724 171.782C292.117 171.486 291.519 171.172 290.933 170.84L291.056 170.623L291.302 170.187L291.425 169.97C291.994 170.291 292.573 170.596 293.163 170.884L293.053 171.108L292.834 171.558L292.724 171.782ZM289.202 169.792C288.635 169.424 288.08 169.04 287.538 168.641L287.686 168.439L287.983 168.037L288.131 167.836C288.657 168.224 289.196 168.596 289.746 168.952L289.61 169.162L289.338 169.582L289.202 169.792ZM285.945 167.392C285.427 166.959 284.922 166.511 284.431 166.049L284.603 165.867L284.945 165.503L285.117 165.321C285.593 165.77 286.083 166.204 286.586 166.624L286.426 166.816L286.106 167.2L285.945 167.392ZM283 164.618C282.538 164.127 282.09 163.622 281.658 163.104L281.85 162.944L282.234 162.623L282.426 162.463C282.845 162.966 283.28 163.456 283.728 163.933L283.546 164.104L283.182 164.447L283 164.618ZM280.409 161.512C280.009 160.969 279.625 160.414 279.258 159.847L279.468 159.711L279.887 159.44L280.097 159.304C280.453 159.854 280.826 160.392 281.214 160.918L281.012 161.067L280.61 161.363L280.409 161.512ZM278.209 158.116C277.878 157.53 277.563 156.933 277.267 156.325L277.492 156.215L277.941 155.996L278.166 155.886C278.453 156.476 278.758 157.055 279.08 157.624L278.862 157.747L278.427 157.993L278.209 158.116ZM276.435 154.48C276.178 153.858 275.938 153.228 275.717 152.588L275.954 152.506L276.426 152.343L276.663 152.262C276.877 152.882 277.109 153.494 277.359 154.097L277.128 154.192L276.666 154.384L276.435 154.48ZM275.116 150.655C274.936 150.008 274.774 149.352 274.633 148.689L274.877 148.637L275.366 148.533L275.611 148.48C275.748 149.123 275.904 149.759 276.079 150.387L275.838 150.454L275.357 150.588L275.116 150.655ZM274.27 146.698C274.17 146.034 274.089 145.365 274.029 144.689L274.278 144.667L274.776 144.622L275.025 144.6C275.083 145.255 275.162 145.905 275.259 146.548L275.012 146.586L274.517 146.66L274.27 146.698ZM273.908 142.67C273.898 142.333 273.893 141.995 273.893 141.656H274.143H274.643H274.893C274.893 141.986 274.898 142.314 274.908 142.641L274.658 142.648L274.158 142.663L273.908 142.67Z" fill="url(#paint8_linear_409_13505)"/>
<path d="M274.393 142.688C274.393 124.462 259.618 109.688 241.393 109.688C223.167 109.688 209.393 123.462 209.393 141.688" stroke="white" stroke-width="0.5" stroke-dasharray="2 2"/>
<path fill-rule="evenodd" clip-rule="evenodd" d="M336.94 44.9772C337.026 45.1212 337.111 45.266 337.195 45.4118L337.412 45.2868L337.845 45.0368L338.061 44.9118C337.892 44.6181 337.718 44.3279 337.541 44.0412L337.329 44.1726L337.161 44.2761C337.061 44.1252 336.96 43.9749 336.857 43.8251L336.651 43.9664L336.239 44.249L336.032 44.3903C336.218 44.662 336.4 44.9354 336.577 45.2106L336.787 45.0754L336.94 44.9772ZM334.433 41.358C334.838 41.8666 335.231 42.3901 335.61 42.9282L335.814 42.7843L336.223 42.4966L336.427 42.3527C336.037 41.7982 335.633 41.2587 335.214 40.7343L335.019 40.8903L334.628 41.2021L334.433 41.358ZM331.803 38.4435C332.268 38.9001 332.721 39.3726 333.162 39.8606L333.347 39.6932L333.719 39.3582L333.904 39.1907C333.45 38.6875 332.983 38.2004 332.503 37.7296L332.328 37.9081L331.978 38.265L331.803 38.4435ZM328.84 35.871C329.357 36.268 329.865 36.6818 330.36 37.112L330.524 36.9232L330.852 36.5457L331.016 36.3569C330.505 35.9133 329.982 35.4867 329.448 35.0774L329.296 35.2758L328.992 35.6726L328.84 35.871ZM325.586 33.6764C326.148 34.0083 326.702 34.3577 327.246 34.7245L327.386 34.5172L327.665 34.1027L327.805 33.8954C327.245 33.5173 326.674 33.1571 326.093 32.8149L325.966 33.0303L325.713 33.461L325.586 33.6764ZM322.09 31.8906C322.69 32.1525 323.281 32.4326 323.865 32.7307L323.979 32.5081L324.206 32.0628L324.32 31.8402C323.718 31.5329 323.108 31.2442 322.491 30.9743L322.391 31.2034L322.191 31.6615L322.09 31.8906ZM318.406 30.5376C319.032 30.7259 319.654 30.933 320.268 31.1587L320.355 30.924L320.527 30.4547L320.613 30.22C319.98 29.9874 319.339 29.7739 318.693 29.5799L318.621 29.8193L318.478 30.2981L318.406 30.5376ZM314.585 29.6359C315.23 29.7478 315.872 29.879 316.509 30.0294L316.566 29.7861L316.681 29.2994L316.739 29.0561C316.082 28.9012 315.421 28.7659 314.756 28.6506L314.713 28.8969L314.628 29.3896L314.585 29.6359ZM310.685 29.199C311.339 29.2326 311.991 29.2859 312.641 29.3587L312.669 29.1103L312.725 28.6134L312.753 28.3649C312.083 28.2899 311.41 28.235 310.736 28.2004L310.723 28.45L310.697 28.9494L310.685 29.199ZM306.759 29.2351C307.414 29.1894 308.068 29.1637 308.722 29.1577L308.719 28.9077L308.715 28.4077L308.712 28.1577C308.039 28.1639 307.364 28.1904 306.69 28.2375L306.707 28.4869L306.742 28.9857L306.759 29.2351ZM302.869 29.7458C303.513 29.621 304.159 29.5162 304.806 29.4313L304.774 29.1834L304.709 28.6877L304.676 28.4398C304.009 28.5274 303.343 28.6353 302.679 28.764L302.726 29.0095L302.821 29.5003L302.869 29.7458ZM299.068 30.7253C299.694 30.5228 300.323 30.3403 300.954 30.1776L300.892 29.9355L300.767 29.4513L300.704 29.2092C300.053 29.377 299.405 29.5652 298.76 29.7739L298.837 30.0118L298.991 30.4875L299.068 30.7253ZM295.415 32.158C296.012 31.8813 296.613 31.6242 297.219 31.3867L297.128 31.1539L296.945 30.6884L296.854 30.4557C296.229 30.7006 295.609 30.9656 294.994 31.2507L295.099 31.4775L295.309 31.9312L295.415 32.158ZM292.799 33.516C293.085 33.3514 293.371 33.1915 293.659 33.0365L293.541 32.8164L293.304 32.3761L293.185 32.156C292.889 32.3157 292.593 32.4804 292.299 32.65L292.424 32.8665L292.674 33.2995L292.799 33.516ZM338.46 46.4038C338.792 46.9952 339.104 47.5931 339.396 48.1968L339.171 48.3058L338.721 48.5237L338.496 48.6326C338.212 48.047 337.91 47.4668 337.588 46.893L337.806 46.7707L338.242 46.5261L338.46 46.4038ZM340.223 50.045C340.48 50.6718 340.718 51.3037 340.935 51.9398L340.699 52.0206L340.226 52.1824L339.989 52.2632C339.778 51.6463 339.548 51.0334 339.298 50.4254L339.529 50.3303L339.991 50.1401L340.223 50.045ZM341.531 53.874C341.711 54.5264 341.87 55.1822 342.009 55.8404L341.764 55.892L341.275 55.995L341.03 56.0466C340.896 55.4081 340.741 54.772 340.567 54.1392L340.808 54.0729L341.29 53.9403L341.531 53.874ZM342.366 57.8326C342.464 58.5015 342.543 59.1719 342.601 59.843L342.352 59.8646L341.854 59.9077L341.605 59.9292C341.548 59.2782 341.472 58.6278 341.376 57.9789L341.624 57.9423L342.118 57.8691L342.366 57.8326ZM342.714 61.8636C342.732 62.5388 342.729 63.2136 342.706 63.8872L342.456 63.8786L341.956 63.8614L341.706 63.8528C341.729 63.1993 341.732 62.5445 341.715 61.8895L341.965 61.883L342.464 61.8701L342.714 61.8636ZM342.575 65.9066C342.512 66.5786 342.428 67.2482 342.324 67.9146L342.077 67.8761L341.583 67.7991L341.336 67.7606C341.436 67.114 341.518 66.4642 341.58 65.8122L341.829 65.8358L342.326 65.883L342.575 65.9066ZM341.952 69.9038C341.809 70.5628 341.645 71.2176 341.462 71.8672L341.221 71.7994L340.74 71.6637L340.499 71.5959C340.677 70.9656 340.836 70.3302 340.975 69.6908L341.219 69.7441L341.708 69.8506L341.952 69.9038ZM340.855 73.7976C340.633 74.4341 340.392 75.0645 340.132 75.6878L339.901 75.5916L339.44 75.3991L339.209 75.3028C339.461 74.6981 339.695 74.0865 339.91 73.4689L340.146 73.5511L340.618 73.7154L340.855 73.7976ZM339.297 77.5313C339.001 78.1362 338.685 78.7331 338.352 79.3212L338.134 79.1978L337.699 78.951L337.482 78.8276C337.806 78.2571 338.111 77.6781 338.399 77.0912L338.623 77.2013L339.072 77.4213L339.297 77.5313ZM337.3 81.0502C336.933 81.614 336.548 82.1682 336.145 82.7118L335.944 82.5629L335.542 82.2652L335.341 82.1163C335.732 81.5891 336.106 81.0516 336.462 80.5047L336.671 80.641L337.09 80.9138L337.3 81.0502ZM334.891 84.3004C334.458 84.8151 334.009 85.3186 333.542 85.8101L333.361 85.638L332.998 85.2937L332.817 85.1215C333.27 84.6448 333.706 84.1564 334.125 83.6572L334.317 83.818L334.699 84.1396L334.891 84.3004ZM332.104 87.2352C331.613 87.6927 331.107 88.1377 330.584 88.5695L330.425 88.3767L330.106 87.9912L329.947 87.7984C330.454 87.3795 330.946 86.9477 331.422 86.5039L331.592 86.6867L331.933 87.0524L332.104 87.2352ZM328.986 89.8102C328.714 90.0088 328.438 90.204 328.158 90.3958C327.879 90.5875 327.597 90.7744 327.313 90.9565L327.178 90.7462L326.908 90.3255L326.773 90.1152C327.048 89.9384 327.321 89.757 327.593 89.5708C327.865 89.3847 328.133 89.1952 328.397 89.0024L328.544 89.2043L328.839 89.6082L328.986 89.8102ZM325.58 91.9985C324.988 92.3302 324.39 92.6422 323.787 92.9345L323.678 92.7094L323.46 92.2594L323.351 92.0344C323.936 91.7509 324.517 91.4482 325.09 91.1263L325.213 91.3444L325.457 91.7805L325.58 91.9985ZM321.938 93.7611C321.312 94.0189 320.68 94.2565 320.044 94.4739L319.963 94.2374L319.801 93.7643L319.72 93.5277C320.337 93.3168 320.95 93.0864 321.558 92.8363L321.653 93.0675L321.843 93.5299L321.938 93.7611ZM318.109 95.07C317.457 95.2495 316.801 95.4085 316.143 95.5471L316.091 95.3025L315.988 94.8132L315.937 94.5686C316.575 94.4341 317.211 94.2799 317.844 94.1058L317.91 94.3468L318.043 94.8289L318.109 95.07ZM314.151 95.904C313.482 96.003 312.811 96.0814 312.14 96.1394L312.119 95.8904L312.076 95.3922L312.054 95.1432C312.705 95.0868 313.356 95.0108 314.004 94.9148L314.041 95.1621L314.114 95.6567L314.151 95.904ZM310.12 96.2528C309.445 96.2703 308.77 96.2674 308.096 96.2442L308.105 95.9943L308.122 95.4946L308.131 95.2448C308.784 95.2673 309.439 95.2701 310.094 95.2532L310.1 95.5031L310.113 96.0029L310.12 96.2528ZM306.077 96.1137C305.405 96.05 304.735 95.9661 304.069 95.8622L304.107 95.6152L304.184 95.1212L304.223 94.8742C304.869 94.975 305.519 95.0564 306.171 95.1182L306.148 95.3671L306.1 95.8649L306.077 96.1137ZM302.08 95.4907C301.421 95.347 300.766 95.1835 300.116 95.0004L300.184 94.7597L300.32 94.2785L300.387 94.0379C301.018 94.2156 301.653 94.3742 302.293 94.5136L302.239 94.7579L302.133 95.2464L302.08 95.4907ZM298.186 94.393C297.549 94.1715 296.919 93.9306 296.296 93.6706L296.392 93.4399L296.584 92.9784L296.681 92.7477C297.285 93 297.897 93.2336 298.514 93.4486L298.432 93.6847L298.268 94.1569L298.186 94.393ZM294.452 92.8355C293.847 92.5391 293.25 92.2239 292.662 91.8901L292.786 91.6727L293.032 91.2379L293.156 91.0204C293.726 91.3442 294.305 91.6499 294.892 91.9375L294.782 92.162L294.562 92.611L294.452 92.8355ZM290.933 90.8382C290.369 90.4713 289.815 90.0862 289.272 89.6833L289.42 89.4825L289.718 89.0808L289.867 88.8799C290.394 89.2707 290.932 89.6441 291.479 90.0001L291.342 90.2096L291.07 90.6287L290.933 90.8382ZM287.683 88.4293C287.168 87.9969 286.665 87.5472 286.173 87.0805L286.345 86.8993L286.69 86.5367L286.862 86.3554C287.339 86.8081 287.827 87.2442 288.326 87.6636L288.165 87.855L287.844 88.2379L287.683 88.4293ZM284.748 85.6425C284.291 85.1519 283.846 84.6452 283.414 84.1224L283.607 83.9632L283.992 83.6448L284.185 83.4856C284.604 83.9929 285.036 84.4846 285.479 84.9604L285.297 85.1309L284.931 85.472L284.748 85.6425ZM282.173 82.5248C281.975 82.2526 281.779 81.9766 281.588 81.6968L281.794 81.5555L282.206 81.2729L282.413 81.1316C282.599 81.4032 282.788 81.6711 282.981 81.9353L282.779 82.0826L282.375 82.3774L282.173 82.5248Z" fill="url(#paint9_linear_409_13505)"/>
<path d="M113.091 137.213C113.091 150.177 102.581 160.687 89.6177 160.687C76.6538 160.687 66.1445 150.177 66.1445 137.213" stroke="url(#paint10_linear_409_13505)" stroke-width="0.5" stroke-dasharray="2 2"/>
<path d="M216.145 203.213C216.145 216.177 226.654 226.687 239.618 226.687C252.582 226.687 263.091 216.177 263.091 203.213" stroke="url(#paint11_linear_409_13505)" stroke-width="0.5" stroke-dasharray="2 2"/>
<path d="M164.091 204.213C164.091 217.177 153.581 227.687 140.618 227.687C127.654 227.687 117.145 217.177 117.145 204.213" stroke="url(#paint12_linear_409_13505)" stroke-width="0.5" stroke-dasharray="2 2"/>
<path d="M205.145 27.686C205.145 14.7222 215.654 4.21289 228.618 4.21289C241.582 4.21289 252.091 14.7222 252.091 27.686" stroke="url(#paint13_linear_409_13505)" stroke-width="0.5" stroke-dasharray="2 2"/>
<path d="M164.145 204.687C164.145 176.183 187.252 153.075 215.757 153.075" stroke="white" stroke-width="0.5" stroke-dasharray="2 2"/>
<path d="M215.757 204.687C215.757 176.183 192.65 153.075 164.146 153.075" stroke="white" stroke-width="0.5" stroke-dasharray="2 2"/>
<path d="M155.692 91.498C189.072 91.498 201.692 58.498 205.145 27" stroke="white" stroke-width="0.5" stroke-dasharray="2 2"/>
<path d="M136.704 67C154.929 67 169.704 81.7746 169.704 100" stroke="white" stroke-width="0.5" stroke-dasharray="2 2"/>
<path d="M61.5333 109.239C80.8208 81.0907 119.275 73.9078 147.423 93.1953" stroke="white" stroke-width="0.5" stroke-dasharray="2 2"/>
<path d="M196.306 73.1838C223.012 51.9449 261.608 56.035 282.511 82.3193" stroke="white" stroke-width="0.5" stroke-dasharray="2 2"/>
<defs>
<filter id="filter0_d_409_13505" x="15.7986" y="169.346" width="69.0449" height="69.0449" filterUnits="userSpaceOnUse" color-interpolation-filters="sRGB">
<feFlood flood-opacity="0" result="BackgroundImageFix"/>
<feColorMatrix in="SourceAlpha" type="matrix" values="0 0 0 0 0 0 0 0 0 0 0 0 0 0 0 0 0 0 127 0" result="hardAlpha"/>
<feOffset dy="4.50938"/>
<feGaussianBlur stdDeviation="4.50938"/>
<feComposite in2="hardAlpha" operator="out"/>
<feColorMatrix type="matrix" values="0 0 0 0 0.343614 0 0 0 0 0.154931 0 0 0 0 0.808333 0 0 0 0.18 0"/>
<feBlend mode="normal" in2="BackgroundImageFix" result="effect1_dropShadow_409_13505"/>
<feBlend mode="normal" in="SourceGraphic" in2="effect1_dropShadow_409_13505" result="shape"/>
</filter>
<filter id="filter1_d_409_13505" x="272.871" y="111.963" width="69.0449" height="69.0449" filterUnits="userSpaceOnUse" color-interpolation-filters="sRGB">
<feFlood flood-opacity="0" result="BackgroundImageFix"/>
<feColorMatrix in="SourceAlpha" type="matrix" values="0 0 0 0 0 0 0 0 0 0 0 0 0 0 0 0 0 0 127 0" result="hardAlpha"/>
<feOffset dy="4.50938"/>
<feGaussianBlur stdDeviation="4.50938"/>
<feComposite in2="hardAlpha" operator="out"/>
<feColorMatrix type="matrix" values="0 0 0 0 0.343614 0 0 0 0 0.154931 0 0 0 0 0.808333 0 0 0 0.18 0"/>
<feBlend mode="normal" in2="BackgroundImageFix" result="effect1_dropShadow_409_13505"/>
<feBlend mode="normal" in="SourceGraphic" in2="effect1_dropShadow_409_13505" result="shape"/>
</filter>
<filter id="filter2_d_409_13505" x="274.183" y="31.487" width="69.0449" height="69.0449" filterUnits="userSpaceOnUse" color-interpolation-filters="sRGB">
<feFlood flood-opacity="0" result="BackgroundImageFix"/>
<feColorMatrix in="SourceAlpha" type="matrix" values="0 0 0 0 0 0 0 0 0 0 0 0 0 0 0 0 0 0 127 0" result="hardAlpha"/>
<feOffset dy="4.50938"/>
<feGaussianBlur stdDeviation="4.50938"/>
<feComposite in2="hardAlpha" operator="out"/>
<feColorMatrix type="matrix" values="0 0 0 0 0.343614 0 0 0 0 0.154931 0 0 0 0 0.808333 0 0 0 0.18 0"/>
<feBlend mode="normal" in2="BackgroundImageFix" result="effect1_dropShadow_409_13505"/>
<feBlend mode="normal" in="SourceGraphic" in2="effect1_dropShadow_409_13505" result="shape"/>
</filter>
<filter id="filter3_d_409_13505" x="214.161" y="181.626" width="51.0978" height="51.0978" filterUnits="userSpaceOnUse" color-interpolation-filters="sRGB">
<feFlood flood-opacity="0" result="BackgroundImageFix"/>
<feColorMatrix in="SourceAlpha" type="matrix" values="0 0 0 0 0 0 0 0 0 0 0 0 0 0 0 0 0 0 127 0" result="hardAlpha"/>
<feOffset dy="4.50938"/>
<feGaussianBlur stdDeviation="4.50938"/>
<feComposite in2="hardAlpha" operator="out"/>
<feColorMatrix type="matrix" values="0 0 0 0 0.343614 0 0 0 0 0.154931 0 0 0 0 0.808333 0 0 0 0.18 0"/>
<feBlend mode="normal" in2="BackgroundImageFix" result="effect1_dropShadow_409_13505"/>
<feBlend mode="normal" in="SourceGraphic" in2="effect1_dropShadow_409_13505" result="shape"/>
</filter>
<filter id="filter4_d_409_13505" x="115.925" y="181.626" width="51.0981" height="51.0978" filterUnits="userSpaceOnUse" color-interpolation-filters="sRGB">
<feFlood flood-opacity="0" result="BackgroundImageFix"/>
<feColorMatrix in="SourceAlpha" type="matrix" values="0 0 0 0 0 0 0 0 0 0 0 0 0 0 0 0 0 0 127 0" result="hardAlpha"/>
<feOffset dy="4.50938"/>
<feGaussianBlur stdDeviation="4.50938"/>
<feComposite in2="hardAlpha" operator="out"/>
<feColorMatrix type="matrix" values="0 0 0 0 0.343614 0 0 0 0 0.154931 0 0 0 0 0.808333 0 0 0 0.18 0"/>
<feBlend mode="normal" in2="BackgroundImageFix" result="effect1_dropShadow_409_13505"/>
<feBlend mode="normal" in="SourceGraphic" in2="effect1_dropShadow_409_13505" result="shape"/>
</filter>
<filter id="filter5_d_409_13505" x="103.307" y="4.04726" width="69.0449" height="69.0449" filterUnits="userSpaceOnUse" color-interpolation-filters="sRGB">
<feFlood flood-opacity="0" result="BackgroundImageFix"/>
<feColorMatrix in="SourceAlpha" type="matrix" values="0 0 0 0 0 0 0 0 0 0 0 0 0 0 0 0 0 0 127 0" result="hardAlpha"/>
<feOffset dy="4.50938"/>
<feGaussianBlur stdDeviation="4.50938"/>
<feComposite in2="hardAlpha" operator="out"/>
<feColorMatrix type="matrix" values="0 0 0 0 0.343614 0 0 0 0 0.154931 0 0 0 0 0.808333 0 0 0 0.18 0"/>
<feBlend mode="normal" in2="BackgroundImageFix" result="effect1_dropShadow_409_13505"/>
<feBlend mode="normal" in="SourceGraphic" in2="effect1_dropShadow_409_13505" result="shape"/>
</filter>
<filter id="filter6_d_409_13505" x="202.77" y="7.49062" width="51.0978" height="51.0978" filterUnits="userSpaceOnUse" color-interpolation-filters="sRGB">
<feFlood flood-opacity="0" result="BackgroundImageFix"/>
<feColorMatrix in="SourceAlpha" type="matrix" values="0 0 0 0 0 0 0 0 0 0 0 0 0 0 0 0 0 0 127 0" result="hardAlpha"/>
<feOffset dy="4.50938"/>
<feGaussianBlur stdDeviation="4.50938"/>
<feComposite in2="hardAlpha" operator="out"/>
<feColorMatrix type="matrix" values="0 0 0 0 0.343614 0 0 0 0 0.154931 0 0 0 0 0.808333 0 0 0 0.18 0"/>
<feBlend mode="normal" in2="BackgroundImageFix" result="effect1_dropShadow_409_13505"/>
<feBlend mode="normal" in="SourceGraphic" in2="effect1_dropShadow_409_13505" result="shape"/>
</filter>
<filter id="filter7_d_409_13505" x="63.9724" y="115.505" width="51.0978" height="51.0978" filterUnits="userSpaceOnUse" color-interpolation-filters="sRGB">
<feFlood flood-opacity="0" result="BackgroundImageFix"/>
<feColorMatrix in="SourceAlpha" type="matrix" values="0 0 0 0 0 0 0 0 0 0 0 0 0 0 0 0 0 0 127 0" result="hardAlpha"/>
<feOffset dy="4.50938"/>
<feGaussianBlur stdDeviation="4.50938"/>
<feComposite in2="hardAlpha" operator="out"/>
<feColorMatrix type="matrix" values="0 0 0 0 0.343614 0 0 0 0 0.154931 0 0 0 0 0.808333 0 0 0 0.18 0"/>
<feBlend mode="normal" in2="BackgroundImageFix" result="effect1_dropShadow_409_13505"/>
<feBlend mode="normal" in="SourceGraphic" in2="effect1_dropShadow_409_13505" result="shape"/>
</filter>
<filter id="filter8_d_409_13505" x="0.685332" y="59.7748" width="69.0449" height="69.0449" filterUnits="userSpaceOnUse" color-interpolation-filters="sRGB">
<feFlood flood-opacity="0" result="BackgroundImageFix"/>
<feColorMatrix in="SourceAlpha" type="matrix" values="0 0 0 0 0 0 0 0 0 0 0 0 0 0 0 0 0 0 127 0" result="hardAlpha"/>
<feOffset dy="4.50938"/>
<feGaussianBlur stdDeviation="4.50938"/>
<feComposite in2="hardAlpha" operator="out"/>
<feColorMatrix type="matrix" values="0 0 0 0 0.343614 0 0 0 0 0.154931 0 0 0 0 0.808333 0 0 0 0.18 0"/>
<feBlend mode="normal" in2="BackgroundImageFix" result="effect1_dropShadow_409_13505"/>
<feBlend mode="normal" in="SourceGraphic" in2="effect1_dropShadow_409_13505" result="shape"/>
</filter>
<filter id="filter9_d_409_13505" x="125.075" y="67.656" width="115.92" height="115.92" filterUnits="userSpaceOnUse" color-interpolation-filters="sRGB">
<feFlood flood-opacity="0" result="BackgroundImageFix"/>
<feColorMatrix in="SourceAlpha" type="matrix" values="0 0 0 0 0 0 0 0 0 0 0 0 0 0 0 0 0 0 127 0" result="hardAlpha"/>
<feOffset dy="5.12918"/>
<feGaussianBlur stdDeviation="5.12918"/>
<feComposite in2="hardAlpha" operator="out"/>
<feColorMatrix type="matrix" values="0 0 0 0 0.343614 0 0 0 0 0.154931 0 0 0 0 0.808333 0 0 0 0.18 0"/>
<feBlend mode="normal" in2="BackgroundImageFix" result="effect1_dropShadow_409_13505"/>
<feBlend mode="normal" in="SourceGraphic" in2="effect1_dropShadow_409_13505" result="shape"/>
</filter>
<linearGradient id="paint0_linear_409_13505" x1="3246.23" y1="199.852" x2="1975.63" y2="1684.73" gradientUnits="userSpaceOnUse">
<stop offset="0.18" stop-color="#0052CC"/>
<stop offset="1" stop-color="#2684FF"/>
</linearGradient>
<linearGradient id="paint1_linear_409_13505" x1="3326.5" y1="216.415" x2="1856.74" y2="1835.96" gradientUnits="userSpaceOnUse">
<stop offset="0.18" stop-color="#0052CC"/>
<stop offset="1" stop-color="#2684FF"/>
</linearGradient>
<linearGradient id="paint2_linear_409_13505" x1="1088.26" y1="194.095" x2="1088.26" y2="1908.33" gradientUnits="userSpaceOnUse">
<stop stop-color="#0091E6"/>
<stop offset="1" stop-color="#0079BF"/>
</linearGradient>
<linearGradient id="paint3_linear_409_13505" x1="157.819" y1="142.815" x2="208.569" y2="142.815" gradientUnits="userSpaceOnUse">
<stop stop-color="#8930FD"/>
<stop offset="1" stop-color="#49CCF9"/>
</linearGradient>
<linearGradient id="paint4_linear_409_13505" x1="158.926" y1="108.914" x2="207.552" y2="108.914" gradientUnits="userSpaceOnUse">
<stop stop-color="#FF02F0"/>
<stop offset="1" stop-color="#FFC800"/>
</linearGradient>
<linearGradient id="paint5_linear_409_13505" x1="137.204" y1="11.998" x2="171.194" y2="10.2149" gradientUnits="userSpaceOnUse">
<stop stop-color="white"/>
<stop offset="0.984848" stop-color="white" stop-opacity="0"/>
</linearGradient>
<linearGradient id="paint6_linear_409_13505" x1="29.9419" y1="206.248" x2="31.1824" y2="168.38" gradientUnits="userSpaceOnUse">
<stop stop-color="white"/>
<stop offset="0.984848" stop-color="white" stop-opacity="0"/>
</linearGradient>
<linearGradient id="paint7_linear_409_13505" x1="31.9414" y1="89.5952" x2="43.9815" y2="55.6006" gradientUnits="userSpaceOnUse">
<stop stop-color="white"/>
<stop offset="0.984848" stop-color="white" stop-opacity="0"/>
</linearGradient>
<linearGradient id="paint8_linear_409_13505" x1="266.787" y1="142.156" x2="283.404" y2="98.2721" gradientUnits="userSpaceOnUse">
<stop stop-color="white"/>
<stop offset="0.984848" stop-color="white" stop-opacity="0"/>
</linearGradient>
<linearGradient id="paint9_linear_409_13505" x1="315.192" y1="67.498" x2="291.237" y2="32.1916" gradientUnits="userSpaceOnUse">
<stop stop-color="white"/>
<stop offset="0.984848" stop-color="white" stop-opacity="0"/>
</linearGradient>
<linearGradient id="paint10_linear_409_13505" x1="89.6177" y1="163.176" x2="66.1445" y2="131.523" gradientUnits="userSpaceOnUse">
<stop stop-color="white"/>
<stop offset="0.984848" stop-color="white" stop-opacity="0"/>
</linearGradient>
<linearGradient id="paint11_linear_409_13505" x1="239.618" y1="229.176" x2="263.091" y2="197.523" gradientUnits="userSpaceOnUse">
<stop stop-color="white"/>
<stop offset="0.984848" stop-color="white" stop-opacity="0"/>
</linearGradient>
<linearGradient id="paint12_linear_409_13505" x1="140.618" y1="230.176" x2="117.145" y2="198.523" gradientUnits="userSpaceOnUse">
<stop stop-color="white"/>
<stop offset="0.984848" stop-color="white" stop-opacity="0"/>
</linearGradient>
<linearGradient id="paint13_linear_409_13505" x1="228.618" y1="1.72332" x2="252.091" y2="33.3765" gradientUnits="userSpaceOnUse">
<stop stop-color="white"/>
<stop offset="0.984848" stop-color="white" stop-opacity="0"/>
</linearGradient>
<clipPath id="clip0_409_13505">
<rect width="27.3929" height="27.3929" fill="white" transform="translate(35.2078 185.19)"/>
</clipPath>
</defs>
</svg>
