<svg fill="none" height="217" viewBox="0 0 571 217" width="571" xmlns="http://www.w3.org/2000/svg" xmlns:xlink="http://www.w3.org/1999/xlink"><filter id="a" color-interpolation-filters="sRGB" filterUnits="userSpaceOnUse" height="194" width="509" x="62" y="23"><feFlood flood-opacity="0" result="BackgroundImageFix"/><feBlend in="SourceGraphic" in2="BackgroundImageFix" mode="normal" result="shape"/><feGaussianBlur result="effect1_foregroundBlur_1_31" stdDeviation="25"/></filter><filter id="b" color-interpolation-filters="sRGB" filterUnits="userSpaceOnUse" height="170.487" width="261.411" x="301.852" y="11.4594"><feFlood flood-opacity="0" result="BackgroundImageFix"/><feBlend in="SourceGraphic" in2="BackgroundImageFix" mode="normal" result="shape"/><feGaussianBlur result="effect1_foregroundBlur_1_31" stdDeviation="27"/></filter><filter id="c" color-interpolation-filters="sRGB" filterUnits="userSpaceOnUse" height="201.025" width="327.955" x=".900208" y=".024597"><feFlood flood-opacity="0" result="BackgroundImageFix"/><feBlend in="SourceGraphic" in2="BackgroundImageFix" mode="normal" result="shape"/><feGaussianBlur result="effect1_foregroundBlur_1_31" stdDeviation="25"/></filter><linearGradient id="d" gradientUnits="userSpaceOnUse" x1="472.385" x2="97.4818" y1="66.8133" y2="89.5196"><stop offset="0" stop-color="#fa12e3"/><stop offset=".495434" stop-color="#7612fa"/><stop offset="1" stop-color="#12d0fa"/></linearGradient><g filter="url(#a)"><ellipse cx="316.5" cy="120" fill="#7612fa" rx="204.5" ry="47"/></g><g filter="url(#b)"><path d="m509.206 89.3611c1.606 16.7679-31.409 33.6479-73.741 37.7029-42.332 4.054-77.951-6.252-79.557-23.02-1.606-16.7678 31.409-33.6478 73.741-37.7024s77.951 6.2516 79.557 23.0195z" fill="#fa12e3"/></g><g filter="url(#c)"><ellipse cx="113.891" cy="50.6986" fill="#12d0fa" rx="113.891" ry="50.6986" transform="matrix(.999319 .0368996 -.119615 .99282 57.1289 46)"/></g><path d="m123 51h355v75h-355z" fill="url(#d)"/></svg>