<svg width="576" height="386" fill="none" xmlns="http://www.w3.org/2000/svg"><mask id="prefix__a" style="mask-type:alpha" maskUnits="userSpaceOnUse" x="0" y="-48" width="850" height="426"><path d="M849.096 377.422a424.5 424.5 0 10-849 0h322.622a101.873 101.873 0 0162.891-94.123 101.892 101.892 0 0177.974 0 101.87 101.87 0 0155.135 55.136 101.873 101.873 0 017.755 38.987h322.623z" fill="url(#prefix__paint0_radial_389_64850)"/></mask><g mask="url(#prefix__a)"><g style="mix-blend-mode:soft-light" opacity=".6" fill="#1D1E6E"><path d="M400.802 381.433a3.225 3.225 0 100-6.45 3.225 3.225 0 000 6.45zM410.492 370.045a3.248 3.248 0 10-1.998 3 3.236 3.236 0 001.998-3zM415.946 379.42a3.29 3.29 0 00-2.034-3.044 3.292 3.292 0 00-4.493 2.401 3.3 3.3 0 001.401 3.383 3.296 3.296 0 005.126-2.74zM440.369 378.871a3.276 3.276 0 003.216-3.922 3.278 3.278 0 00-6.495.651 3.274 3.274 0 003.279 3.271zM447.898 370.659a3.216 3.216 0 100-6.432 3.216 3.216 0 000 6.432zM433.187 372.671a3.326 3.326 0 00-5.679-2.353 3.319 3.319 0 00-.911 1.703 3.332 3.332 0 005.618 3.004 3.322 3.322 0 00.972-2.354zM419.329 374.044a3.314 3.314 0 003.072-2.045 3.319 3.319 0 10-6.383-1.266 3.31 3.31 0 003.311 3.311zM426.211 364.543a3.272 3.272 0 100-6.544 3.272 3.272 0 000 6.544zM437.043 367.449a3.264 3.264 0 100-6.528 3.264 3.264 0 000 6.528zM445.366 359.573a3.185 3.185 0 100-6.37 3.185 3.185 0 000 6.37zM437.735 352.779a3.21 3.21 0 10-4.991 2.668 3.214 3.214 0 004.052-.399 3.212 3.212 0 00.939-2.269zM439.959 344.802c0 .623.185 1.233.531 1.752a3.159 3.159 0 003.237 1.34 3.148 3.148 0 002.478-2.477 3.156 3.156 0 00-1.341-3.237 3.148 3.148 0 00-3.981.392 3.15 3.15 0 00-.924 2.23zM441.354 335.016a3.082 3.082 0 100-6.164 3.082 3.082 0 000 6.164zM450.752 323.141a3.021 3.021 0 00-2.962 3.608 3.017 3.017 0 002.373 2.372 3.012 3.012 0 003.608-2.961 3.002 3.002 0 00-.882-2.137 3.02 3.02 0 00-2.137-.882zM436.459 319.308a3.01 3.01 0 001.859 2.783 3.011 3.011 0 10-1.859-2.783zM430.776 330.766a3.074 3.074 0 100-6.149 3.075 3.075 0 000 6.149zM433.472 336.484a3.152 3.152 0 101.206 6.067 3.159 3.159 0 001.416-1.161 3.15 3.15 0 00-.393-3.982 3.153 3.153 0 00-2.229-.924zM425.815 343.789c-.623 0-1.233.185-1.751.532a3.147 3.147 0 00-1.341 3.237 3.15 3.15 0 002.477 2.477 3.156 3.156 0 003.237-1.341 3.148 3.148 0 00-.392-3.981 3.15 3.15 0 00-2.23-.924zM418.761 356.784a3.216 3.216 0 10.001-6.433 3.216 3.216 0 00-.001 6.433zM413.543 365.152a3.246 3.246 0 002.296-5.544 3.235 3.235 0 00-1.663-.889 3.239 3.239 0 00-1.876.185 3.242 3.242 0 00-2.005 3 3.248 3.248 0 003.248 3.248zM401.812 363.479a3.2 3.2 0 100-6.401 3.2 3.2 0 000 6.401zM395.427 371.869a3.16 3.16 0 001.752-.531 3.15 3.15 0 001.34-3.237 3.147 3.147 0 00-2.477-2.478 3.148 3.148 0 00-3.237 1.341 3.148 3.148 0 00.392 3.982 3.153 3.153 0 002.23.923zM389.112 374.195a3.153 3.153 0 10.001 6.306 3.153 3.153 0 00-.001-6.306zM380.701 367.583a3.119 3.119 0 001.919 2.883 3.11 3.11 0 003.397-.674 3.113 3.113 0 00-2.21-5.315 3.105 3.105 0 00-3.106 3.106zM390.177 361.924a3.153 3.153 0 10-.001-6.306 3.153 3.153 0 00.001 6.306zM396.53 346.945a3.153 3.153 0 10.001 6.306 3.153 3.153 0 00-.001-6.306zM403.326 338.313a3.15 3.15 0 00-3.137 3.744 3.156 3.156 0 002.467 2.499 3.16 3.16 0 003.249-1.334 3.155 3.155 0 00-2.579-4.909zM404.625 351.747a3.152 3.152 0 005.383 2.23 3.156 3.156 0 00-.478-4.852 3.155 3.155 0 00-4.905 2.622zM414.741 346.385a3.147 3.147 0 10-.001-6.293 3.147 3.147 0 00.001 6.293zM425.674 335.638a3.152 3.152 0 10-6.067 1.206 3.155 3.155 0 006.067-1.206zM410.711 336.024a3.082 3.082 0 10.001-6.165 3.082 3.082 0 00-.001 6.165zM415.568 324.918a3.066 3.066 0 106.134.017 3.066 3.066 0 00-6.134-.017zM429.616 317.066a3.005 3.005 0 00-3.592-2.945 3 3 0 00-2.358 2.364 3.008 3.008 0 001.284 3.082 3.008 3.008 0 003.792-.378 3 3 0 00.874-2.123zM433.446 311.436a2.957 2.957 0 100-5.914 2.957 2.957 0 000 5.914zM420.825 303.586a2.943 2.943 0 00-2.9 3.522 2.953 2.953 0 002.319 2.318 2.944 2.944 0 003.028-1.259 2.948 2.948 0 00.494-1.641c0-.779-.31-1.527-.861-2.079a2.945 2.945 0 00-2.08-.861zM413.763 311.469a2.982 2.982 0 00-2.923 3.561 2.98 2.98 0 005.903-.581 2.988 2.988 0 00-2.98-2.98zM403.293 322.504a3.025 3.025 0 003.621 2.968 3.03 3.03 0 002.376-2.382 3.03 3.03 0 00-1.294-3.107 3.021 3.021 0 00-1.684-.506 3.023 3.023 0 00-2.137.887 3.006 3.006 0 00-.882 2.14zM398.91 328.023a3.047 3.047 0 00-2.818 1.884 3.046 3.046 0 00.661 3.325c.427.426.97.717 1.562.835a3.057 3.057 0 003.132-1.298 3.05 3.05 0 00-2.537-4.746zM387.125 332.296a3.004 3.004 0 10-.001-6.007 3.004 3.004 0 00.001 6.007zM376.9 338.269a3.012 3.012 0 105.793-1.162 3.011 3.011 0 00-5.793 1.162zM373.156 350.351a3.003 3.003 0 100-6.006 3.003 3.003 0 000 6.006zM388.631 339.754a3.068 3.068 0 003.663 3.016 3.063 3.063 0 002.412-2.412 3.066 3.066 0 00-3.016-3.663 3.06 3.06 0 00-3.059 3.059zM384.918 345.469a3.077 3.077 0 00-2.841 1.9 3.079 3.079 0 00.67 3.351 3.074 3.074 0 102.171-5.251zM378.516 354.469a3.066 3.066 0 100 6.131 3.066 3.066 0 000-6.131zM372.17 369.672a3.043 3.043 0 100-6.086 3.043 3.043 0 000 6.086zM366.211 372.961a3.024 3.024 0 00-2.969 3.618c.117.587.405 1.126.828 1.55a3.034 3.034 0 003.299.656 3.03 3.03 0 00.002-5.596 3.017 3.017 0 00-1.16-.228zM377.696 379.712a3.09 3.09 0 100-6.18 3.09 3.09 0 000 6.18zM354.347 378.678a2.955 2.955 0 10.001-5.91 2.955 2.955 0 00-.001 5.91zM360.392 368.96a2.972 2.972 0 10-.001-5.945 2.972 2.972 0 00.001 5.945zM366.66 359.569a2.995 2.995 0 100-5.99 2.995 2.995 0 000 5.99zM351.713 355.753a2.93 2.93 0 003.5 2.885 2.93 2.93 0 002.308-2.302 2.94 2.94 0 00-.165-1.696 2.94 2.94 0 00-2.711-1.812 2.931 2.931 0 00-2.932 2.925zM361.149 343.336a2.94 2.94 0 10-.016 5.88 2.94 2.94 0 00.016-5.88zM365.012 336.941a2.949 2.949 0 105.898 0 2.949 2.949 0 00-5.898 0zM375.142 330.678a2.956 2.956 0 100-5.912 2.956 2.956 0 000 5.912zM379.564 318.722a2.932 2.932 0 105.866 0 2.932 2.932 0 00-5.866 0zM394.558 317.477a2.986 2.986 0 00-2.123 5.097 2.984 2.984 0 003.257.651 2.982 2.982 0 001.846-2.761 2.989 2.989 0 00-2.98-2.987zM387.354 309.722a2.915 2.915 0 005.778.564 2.914 2.914 0 00-2.87-3.481 2.914 2.914 0 00-2.908 2.917zM375.033 308.073a2.877 2.877 0 102.878-2.878 2.886 2.886 0 00-2.878 2.878zM373.094 294.828a2.794 2.794 0 00-2.586 1.728 2.797 2.797 0 002.04 3.816 2.794 2.794 0 002.872-1.19 2.799 2.799 0 00-2.326-4.354zM386.201 301.989a2.846 2.846 0 100-5.693 2.846 2.846 0 000 5.693zM384.2 289.713a2.784 2.784 0 10-5.567-.001 2.784 2.784 0 005.567.001zM377.697 279.189a2.723 2.723 0 003.251 2.667 2.722 2.722 0 001.982-3.708 2.725 2.725 0 00-4.438-.885 2.704 2.704 0 00-.795 1.926zM391.026 271.266a2.72 2.72 0 10-.001 5.44 2.72 2.72 0 00.001-5.44zM402.56 275.203a2.773 2.773 0 00-2.563 1.705 2.765 2.765 0 002.017 3.776 2.76 2.76 0 002.842-1.181c.304-.457.465-.993.463-1.541a2.759 2.759 0 00-2.759-2.759zM392.966 284.227a2.789 2.789 0 00-2.737 3.335 2.787 2.787 0 003.805 2.034c.51-.212.946-.569 1.253-1.028a2.79 2.79 0 00-2.321-4.341zM404.996 293.192a2.838 2.838 0 100-5.676 2.838 2.838 0 000 5.676zM397.633 302.403a2.878 2.878 0 100-5.756 2.878 2.878 0 000 5.756zM401.946 308.406a2.949 2.949 0 102.726 1.819 2.945 2.945 0 00-.638-.958 2.945 2.945 0 00-2.088-.861zM406.416 302.62a2.915 2.915 0 005.778.569 2.915 2.915 0 00-2.861-3.486 2.924 2.924 0 00-2.063.854 2.924 2.924 0 00-.854 2.063zM413.834 293.854a2.874 2.874 0 001.773 2.652 2.872 2.872 0 003.912-2.097 2.865 2.865 0 00-1.227-2.945 2.876 2.876 0 00-1.596-.48 2.852 2.852 0 00-2.029.839 2.864 2.864 0 00-.833 2.031zM414.244 279.25a2.794 2.794 0 00-2.586 1.728 2.8 2.8 0 003.657 3.656 2.8 2.8 0 00.908-4.564 2.8 2.8 0 00-1.979-.82zM426.983 283.875a2.838 2.838 0 00-2.622 1.743 2.832 2.832 0 003.7 3.7 2.827 2.827 0 001.744-2.621 2.823 2.823 0 00-2.822-2.822zM427.188 295.359a2.906 2.906 0 00-2.687 1.796 2.914 2.914 0 00.63 3.17 2.905 2.905 0 003.17.631 2.906 2.906 0 001.796-2.688 2.909 2.909 0 00-2.909-2.909zM437.516 285.744a2.817 2.817 0 001.744 2.608 2.82 2.82 0 003.683-3.693 2.821 2.821 0 00-2.613-1.737 2.815 2.815 0 00-2.814 2.822zM434.631 296.549a2.88 2.88 0 005.7.557 2.877 2.877 0 00-2.831-3.434 2.867 2.867 0 00-2.869 2.877zM444.452 303.586a2.921 2.921 0 00-2.868 3.495 2.917 2.917 0 002.297 2.298 2.926 2.926 0 003.496-2.868c0-.776-.308-1.52-.857-2.068a2.921 2.921 0 00-2.068-.857zM446.289 295.393a2.866 2.866 0 001.767 2.644 2.86 2.86 0 003.901-2.086 2.86 2.86 0 00-4.83-2.582 2.866 2.866 0 00-.838 2.024zM457.648 292.963a2.822 2.822 0 105.645-.002 2.822 2.822 0 00-5.645.002zM457.215 308.13a2.894 2.894 0 100-5.787 2.894 2.894 0 000 5.787zM450.665 312.195a2.96 2.96 0 00-2.738 1.83 2.964 2.964 0 102.738-1.83zM461.046 316.523a2.965 2.965 0 10.001 5.93 2.965 2.965 0 00-.001-5.93zM464.445 311.151a2.906 2.906 0 003.463 2.854 2.905 2.905 0 002.283-2.277 2.899 2.899 0 00-4.893-2.623 2.9 2.9 0 00-.853 2.046zM469.82 297.938a2.824 2.824 0 00-2.62 1.741 2.836 2.836 0 00.609 3.087 2.824 2.824 0 003.085.617 2.834 2.834 0 001.749-2.615 2.831 2.831 0 00-2.823-2.83zM469.521 289.603a2.777 2.777 0 004.738 1.962 2.772 2.772 0 00.601-3.024 2.777 2.777 0 00-4.526-.9 2.776 2.776 0 00-.813 1.962zM482 299.808a2.781 2.781 0 002.728-3.329 2.783 2.783 0 10-2.728 3.329zM476.467 309.221a2.85 2.85 0 001.756 2.642 2.856 2.856 0 003.896-2.075 2.85 2.85 0 00-2.798-3.413 2.853 2.853 0 00-2.854 2.846zM488.543 318.621a2.838 2.838 0 100-5.676 2.838 2.838 0 000 5.676zM487.566 326.37a2.913 2.913 0 00-1.796-2.688 2.912 2.912 0 00-3.966 2.12 2.91 2.91 0 002.853 3.477 2.905 2.905 0 002.909-2.909zM485.975 338.042a2.948 2.948 0 10-5.895-.015 2.948 2.948 0 005.895.015zM473.21 334.538a2.964 2.964 0 100-5.928 2.964 2.964 0 000 5.928zM471.074 320.518a2.915 2.915 0 003.486 2.861 2.913 2.913 0 002.292-2.292 2.92 2.92 0 00-1.24-2.994 2.922 2.922 0 00-3.683.363 2.922 2.922 0 00-.855 2.062zM462.22 327.234a3.014 3.014 0 00-2.953 3.599 3.011 3.011 0 102.953-3.599zM451.641 334.266a3.08 3.08 0 00-2.18 5.262 3.084 3.084 0 004.36-4.36 3.085 3.085 0 00-2.18-.902zM453.991 352.182a3.148 3.148 0 002.913-1.947 3.148 3.148 0 00-.683-3.436 3.148 3.148 0 00-3.436-.684 3.159 3.159 0 00-1.416 1.161 3.16 3.16 0 00.392 3.982 3.158 3.158 0 002.23.924zM456.647 363.056a3.145 3.145 0 10.002-6.29 3.145 3.145 0 00-.002 6.29zM465.864 355.751a3.082 3.082 0 100-6.165 3.082 3.082 0 000 6.165zM464.973 341.426a3.065 3.065 0 00-5.232-2.179 3.067 3.067 0 105.232 2.179zM475.072 342.527a3.01 3.01 0 00-1.859-2.782 3.014 3.014 0 00-3.282.653 3.007 3.007 0 00-.653 3.282 3.014 3.014 0 004.912.976 3.007 3.007 0 00.882-2.129zM479.675 352.859a3.004 3.004 0 100-6.008 3.004 3.004 0 000 6.008zM490.325 344.063a2.952 2.952 0 00-2.724 1.821 2.953 2.953 0 00.642 3.214 2.951 2.951 0 103.21-4.814 2.93 2.93 0 00-1.128-.221zM498.816 343.19a2.873 2.873 0 001.772 2.651 2.868 2.868 0 002.692-5.037 2.87 2.87 0 00-4.464 2.386zM513.195 339.984a2.808 2.808 0 00-1.984 4.791 2.803 2.803 0 004.318-.425 2.808 2.808 0 00-2.334-4.366zM508.039 334.652a2.806 2.806 0 100-5.613 2.806 2.806 0 000 5.613zM497.294 334.627a2.888 2.888 0 00-1.781-2.665 2.881 2.881 0 00-3.934 2.103 2.879 2.879 0 001.227 2.961 2.885 2.885 0 004.488-2.399zM497.516 321.031a2.833 2.833 0 00-2.615 1.747 2.833 2.833 0 002.063 3.859 2.833 2.833 0 002.905-1.203 2.833 2.833 0 00-.352-3.574 2.83 2.83 0 00-2.001-.829zM508.937 322.956a2.759 2.759 0 100-5.517 2.759 2.759 0 000 5.517zM517.303 321.845a2.704 2.704 0 105.408.015 2.704 2.704 0 00-5.408-.015zM524.264 333.165a2.736 2.736 0 10-5.47.017 2.736 2.736 0 005.47-.017zM530.57 325.852a2.66 2.66 0 001.635 2.46 2.654 2.654 0 002.898-.571 2.655 2.655 0 00.579-2.896 2.659 2.659 0 00-5.112 1.007zM536.427 338.711a2.671 2.671 0 10-5.342.08 2.671 2.671 0 005.342-.08zM545.154 339.5a2.618 2.618 0 100-5.235 2.618 2.618 0 000 5.235zM543.545 324.539a2.586 2.586 0 105.171-.002 2.586 2.586 0 00-5.171.002zM540.463 310.742a2.585 2.585 0 102.388 1.59 2.579 2.579 0 00-1.399-1.396 2.582 2.582 0 00-.989-.194zM528.032 315.946a2.64 2.64 0 100-5.28 2.64 2.64 0 000 5.28zM535.576 303.968a2.562 2.562 0 100-5.124 2.562 2.562 0 000 5.124zM523.664 299.273a2.638 2.638 0 00-2.432 1.626 2.627 2.627 0 001.919 3.59 2.64 2.64 0 002.703-1.12c.289-.433.443-.942.443-1.463a2.64 2.64 0 00-2.633-2.633zM513.092 293.336c0 .519.154 1.027.442 1.459a2.63 2.63 0 002.695 1.116 2.632 2.632 0 002.063-2.063 2.627 2.627 0 00-4.431-2.368 2.622 2.622 0 00-.769 1.856zM508.448 287.032a2.647 2.647 0 00-4.519-1.884 2.65 2.65 0 104.317 2.896c.133-.321.202-.665.202-1.012zM501.977 299.97a2.7 2.7 0 001.671 2.499 2.705 2.705 0 002.529-4.752 2.7 2.7 0 00-1.504-.451 2.698 2.698 0 00-2.696 2.704zM514.204 306.211a2.708 2.708 0 00-2.499 1.671 2.707 2.707 0 001.976 3.686 2.707 2.707 0 002.434-4.57 2.684 2.684 0 00-1.911-.787zM500.914 314.44a2.767 2.767 0 100-5.534 2.767 2.767 0 100 5.534zM488.977 304.056a2.784 2.784 0 102.775-2.783 2.771 2.771 0 00-2.566 1.719c-.139.337-.21.699-.209 1.064zM494.196 294.814a2.711 2.711 0 10.001-5.423 2.711 2.711 0 00-.001 5.423zM484.247 281.617a2.708 2.708 0 00-2.499 1.671 2.71 2.71 0 00.59 2.948 2.698 2.698 0 002.949.581 2.708 2.708 0 00.871-4.413 2.7 2.7 0 00-1.911-.787zM494.676 281.61a2.657 2.657 0 100-5.313 2.657 2.657 0 000 5.313zM507.314 278.312a2.586 2.586 0 100-5.173 2.586 2.586 0 000 5.173zM505.208 267.046a2.54 2.54 0 100-5.079 2.54 2.54 0 000 5.079zM490.965 267.039a2.595 2.595 0 004.427 1.834 2.593 2.593 0 10-4.427-1.834zM482.135 267.055a2.645 2.645 0 00-2.447 1.635 2.645 2.645 0 00.574 2.886 2.648 2.648 0 004.522-1.872 2.632 2.632 0 00-.774-1.876 2.642 2.642 0 00-1.875-.773zM474.456 275.586a2.702 2.702 0 00-2.652 3.231 2.702 2.702 0 003.687 1.971 2.703 2.703 0 00-1.035-5.202zM468.001 265.992a2.664 2.664 0 10-.002 5.329 2.664 2.664 0 00.002-5.329zM471.082 258.156a2.612 2.612 0 001.613 2.412 2.612 2.612 0 003.557-1.908 2.614 2.614 0 00-1.117-2.677 2.602 2.602 0 00-1.451-.436 2.587 2.587 0 00-1.843.765 2.605 2.605 0 00-.759 1.844zM484.879 253.344a2.56 2.56 0 00-2.522 3.06 2.562 2.562 0 005.076-.506 2.555 2.555 0 00-2.554-2.554zM497.46 252.344a2.511 2.511 0 00-2.323 1.552 2.51 2.51 0 00.545 2.741 2.517 2.517 0 004.293-1.778 2.516 2.516 0 00-2.515-2.515zM503.766 246.825a2.451 2.451 0 10.001-4.903 2.451 2.451 0 00-.001 4.903zM512.059 251.969a2.462 2.462 0 00-2.279 1.523 2.468 2.468 0 102.279-1.523zM515.316 266.921a2.505 2.505 0 002.996 2.459 2.513 2.513 0 001.97-1.97 2.501 2.501 0 00-1.066-2.573 2.503 2.503 0 00-3.165.311 2.509 2.509 0 00-.735 1.773zM520.062 277.352a2.551 2.551 0 00-2.505 3.052 2.55 2.55 0 002.007 2.007 2.559 2.559 0 002.622-1.086 2.56 2.56 0 00-.318-3.225 2.555 2.555 0 00-1.806-.748zM528.464 287.258a2.553 2.553 0 00-2.505 3.052 2.557 2.557 0 003.483 1.862 2.559 2.559 0 001.577-2.36 2.556 2.556 0 00-2.555-2.554zM541.653 286.719a2.495 2.495 0 00-2.308 1.542 2.497 2.497 0 001.821 3.408c.485.096.987.047 1.444-.142a2.504 2.504 0 001.542-2.309 2.496 2.496 0 00-2.499-2.499zM548.017 303.185a2.499 2.499 0 100-4.997 2.499 2.499 0 000 4.997zM553.148 314.389a2.507 2.507 0 10-.002-5.014 2.507 2.507 0 00.002 5.014zM556.379 322.226a2.507 2.507 0 105.013 0 2.507 2.507 0 00-5.013 0zM557.23 331.109a2.538 2.538 0 10-.016 5.075 2.538 2.538 0 00.016-5.075zM567.274 342.889a2.493 2.493 0 001.759-4.256 2.49 2.49 0 00-4.25 1.772 2.484 2.484 0 002.491 2.484zM569.11 379.717a2.517 2.517 0 002.337-1.553 2.526 2.526 0 00-.545-2.753 2.515 2.515 0 00-1.293-.691 2.52 2.52 0 00-3.013 2.482 2.521 2.521 0 00.736 1.779 2.52 2.52 0 001.778.736zM566.322 368.428a2.53 2.53 0 100-5.06 2.53 2.53 0 000 5.06zM563.75 353.694a2.52 2.52 0 003.01 2.484 2.528 2.528 0 001.844-3.439 2.525 2.525 0 00-4.662-.009 2.516 2.516 0 00-.192.964zM555.529 349.351a2.562 2.562 0 100-5.124 2.562 2.562 0 000 5.124zM546.817 349.75a2.645 2.645 0 00-1.636-2.434 2.635 2.635 0 00-2.875.577 2.647 2.647 0 00-.569 2.878 2.643 2.643 0 003.452 1.426 2.64 2.64 0 001.628-2.447zM530.057 351.72a2.71 2.71 0 105.421 0 2.71 2.71 0 00-5.421 0zM543.743 362.063a2.67 2.67 0 00-3.193-2.621 2.67 2.67 0 00-1.948 3.644 2.676 2.676 0 002.469 1.65 2.675 2.675 0 002.672-2.673zM551.256 360.851a2.592 2.592 0 005.137.506 2.595 2.595 0 00-2.544-3.099 2.593 2.593 0 00-2.593 2.593zM556.838 378.062a2.585 2.585 0 100-5.17 2.585 2.585 0 000 5.17zM545.918 375.634a2.657 2.657 0 100-5.314 2.657 2.657 0 000 5.314zM535.229 373.345a2.74 2.74 0 00-1.711-2.505 2.738 2.738 0 00-2.97.613 2.739 2.739 0 00-.579 2.977 2.743 2.743 0 002.524 1.682c.362 0 .72-.072 1.054-.212a2.727 2.727 0 001.483-1.499c.135-.335.203-.695.199-1.056zM531.698 362.423a2.752 2.752 0 10-5.505 0 2.752 2.752 0 005.505 0zM523.72 347.987a2.75 2.75 0 002.698-3.288 2.75 2.75 0 00-3.751-2.005 2.755 2.755 0 00-1.698 2.542 2.752 2.752 0 002.751 2.751zM518.801 358.878a2.798 2.798 0 100-5.597 2.798 2.798 0 000 5.597zM508.213 356.286a2.854 2.854 0 100-5.709 2.854 2.854 0 000 5.709zM497.538 358.263a2.915 2.915 0 00.564-5.778 2.914 2.914 0 00-3.481 2.869 2.915 2.915 0 002.917 2.909zM498.438 366.089a2.948 2.948 0 10-2.917 2.933 2.944 2.944 0 002.917-2.933zM489.323 360.074a2.991 2.991 0 00-1.849-2.768 2.99 2.99 0 00-3.265.65 2.99 2.99 0 00.454 4.609 2.998 2.998 0 004.66-2.491zM478.194 359.028a3.06 3.06 0 00-5.222-2.171 3.053 3.053 0 00-.661 3.337 3.053 3.053 0 002.832 1.884 3.062 3.062 0 002.155-.895 3.063 3.063 0 00.896-2.155zM470.159 365.27a3.112 3.112 0 00-1.913-2.876 3.105 3.105 0 00-4.239 2.264 3.106 3.106 0 003.054 3.71 3.098 3.098 0 003.098-3.098zM458.501 374.377a3.17 3.17 0 100-6.338 3.17 3.17 0 000 6.338zM453.952 378.826a3.212 3.212 0 00-1.985-2.972 3.223 3.223 0 00-3.505.697 3.216 3.216 0 105.49 2.275zM470.002 379.759c.613 0 1.212-.182 1.722-.522a3.098 3.098 0 10-1.722.522zM478.674 372.711a3.043 3.043 0 10-.002-6.086 3.043 3.043 0 00.002 6.086zM488.087 377.819a2.995 2.995 0 10.001-5.99 2.995 2.995 0 00-.001 5.99zM499.298 379.06a2.924 2.924 0 100-5.848 2.924 2.924 0 000 5.848zM510.192 365.182a2.87 2.87 0 10-5.74-.001 2.87 2.87 0 005.74.001zM518.933 365.328a2.81 2.81 0 00-2.592 1.733 2.802 2.802 0 00.608 3.058 2.802 2.802 0 004.318-.425 2.81 2.81 0 00-.349-3.544 2.807 2.807 0 00-1.985-.822zM524.585 379.103a2.786 2.786 0 00-1.722-2.578 2.791 2.791 0 101.722 2.578zM507.896 377.198c0 .566.168 1.119.483 1.589.314.471.761.838 1.284 1.054a2.862 2.862 0 10-1.767-2.643zM571.114 328.708a2.452 2.452 0 100-4.905 2.452 2.452 0 000 4.905zM573.809 302.795a2.366 2.366 0 104.731.001 2.366 2.366 0 00-4.731-.001zM567.536 315.458a2.422 2.422 0 002.372-2.907 2.425 2.425 0 00-1.91-1.903 2.426 2.426 0 00-2.184 4.101 2.42 2.42 0 001.722.709zM561.717 303.872a2.428 2.428 0 100-4.856 2.428 2.428 0 000 4.856zM569.853 288.5a2.367 2.367 0 00-1.672 4.037 2.365 2.365 0 101.672-4.037zM575.883 280.513a2.294 2.294 0 104.587.001 2.294 2.294 0 00-4.587-.001zM569.449 268.021a2.278 2.278 0 104.557.013 2.278 2.278 0 00-4.557-.013zM561.008 278.74a2.367 2.367 0 004.037 1.672c.331-.33.556-.752.647-1.211a2.358 2.358 0 00-1.005-2.427 2.364 2.364 0 00-3.679 1.966zM555.559 287.148a2.436 2.436 0 102.246 1.505 2.43 2.43 0 00-2.246-1.505zM548.922 280.278a2.42 2.42 0 100-4.84 2.42 2.42 0 000 4.84zM540.629 266.06a2.367 2.367 0 004.037 1.673 2.365 2.365 0 10-4.037-1.673zM531.957 277.983a2.487 2.487 0 001.538 2.302 2.496 2.496 0 002.715-.54 2.493 2.493 0 00-1.762-4.253 2.498 2.498 0 00-2.491 2.491zM527.605 266.444a2.46 2.46 0 004.872.48 2.456 2.456 0 00-2.412-2.94 2.452 2.452 0 00-2.46 2.46zM537.894 255.269a2.365 2.365 0 100-4.73 2.365 2.365 0 000 4.73zM525.154 251.891a2.426 2.426 0 00-2.354 2.916 2.428 2.428 0 102.354-2.916zM516.104 242.802a2.363 2.363 0 004.037 1.673 2.361 2.361 0 00.513-2.578 2.367 2.367 0 00-3.858-.767 2.367 2.367 0 00-.692 1.672zM531.398 242.831a2.333 2.333 0 100-4.666 2.333 2.333 0 000 4.666zM545.958 242.018a2.278 2.278 0 10-2.278-2.271c0 .299.059.595.173.871a2.285 2.285 0 001.234 1.229c.276.114.572.172.871.171zM550.799 256.651a2.32 2.32 0 002.144-1.427 2.322 2.322 0 00-1.667-3.174 2.324 2.324 0 10-.477 4.601zM554.803 266.576a2.363 2.363 0 004.037 1.672c.331-.33.556-.752.647-1.211a2.358 2.358 0 00-1.005-2.427 2.367 2.367 0 00-2.987.294 2.365 2.365 0 00-.692 1.672zM559.415 246.595a2.25 2.25 0 002.076-1.389 2.248 2.248 0 10-2.076 1.389zM561.244 234.508a2.185 2.185 0 001.534-3.731 2.177 2.177 0 00-2.379-.469 2.18 2.18 0 00-1.179 2.854 2.177 2.177 0 001.186 1.182c.266.109.551.165.838.164zM564.99 220.921a2.12 2.12 0 001.176-.352 2.119 2.119 0 00.905-2.168 2.115 2.115 0 00-3.83-.768 2.119 2.119 0 00.26 2.666c.394.396.93.62 1.489.622zM551.594 212.199a2.122 2.122 0 104.243 0 2.122 2.122 0 00-4.243 0zM549.324 227.25a2.2 2.2 0 10.002-4.398 2.2 2.2 0 00-.002 4.398zM536.569 229.978a2.255 2.255 0 100-4.51 2.255 2.255 0 000 4.51zM528.772 219.227a2.223 2.223 0 100-4.445 2.223 2.223 0 000 4.445zM538.43 210.699c0 .429.127.849.366 1.205a2.162 2.162 0 002.227.921 2.166 2.166 0 001.575-2.961 2.172 2.172 0 00-2.008-1.333 2.17 2.17 0 00-2.16 2.168zM525.186 202.894c0 .43.127.849.365 1.206a2.175 2.175 0 002.228.92 2.165 2.165 0 001.575-2.961 2.161 2.161 0 00-2.008-1.332 2.168 2.168 0 00-2.16 2.167zM514.047 212.926a2.248 2.248 0 002.685 2.204 2.248 2.248 0 00.81-4.072 2.247 2.247 0 00-3.495 1.868zM519.398 228.341a2.304 2.304 0 003.93 1.628 2.302 2.302 0 00-1.628-3.93 2.314 2.314 0 00-2.302 2.302zM507.652 233.677a2.364 2.364 0 002.827 2.32 2.365 2.365 0 10-2.827-2.32zM506.833 219.524a2.332 2.332 0 00-1.282.411 2.332 2.332 0 00-.954 2.395 2.326 2.326 0 102.236-2.806zM494.598 232.638a2.363 2.363 0 004.037 1.673 2.361 2.361 0 00.513-2.578 2.371 2.371 0 00-2.185-1.46 2.369 2.369 0 00-2.365 2.365zM493.086 217.656a2.364 2.364 0 00-2.32 2.827c.091.458.317.88.647 1.211a2.373 2.373 0 002.578.512 2.365 2.365 0 00-.905-4.55zM479.517 215.117a2.367 2.367 0 00-1.672 4.037 2.365 2.365 0 101.672-4.037zM481.41 231.131a2.434 2.434 0 002.914 2.389 2.44 2.44 0 001.912-1.918 2.433 2.433 0 00-1.042-2.5 2.441 2.441 0 00-3.075.307 2.418 2.418 0 00-.709 1.722zM489.718 241.305a2.477 2.477 0 00-2.3 1.527 2.486 2.486 0 00.533 2.709 2.485 2.485 0 102.716-4.047 2.476 2.476 0 00-.949-.189zM474 242.929a2.514 2.514 0 105.028-.016 2.514 2.514 0 00-5.028.016zM471.161 230.833a2.436 2.436 0 10-.001-4.871 2.436 2.436 0 00.001 4.871zM457.744 221.703a2.431 2.431 0 00-1.716 4.145 2.425 2.425 0 003.735-.368 2.427 2.427 0 00-2.019-3.777zM466.265 211.758a2.36 2.36 0 00-2.185 1.46 2.365 2.365 0 102.185-1.46zM453.021 212.589a2.363 2.363 0 001.673-4.037 2.365 2.365 0 10-1.673 4.037zM444.42 218.445a2.438 2.438 0 00-1.733 4.156 2.444 2.444 0 002.656.532 2.444 2.444 0 001.323-3.183 2.433 2.433 0 00-2.246-1.505zM430.76 220.903a2.42 2.42 0 100-4.84 2.42 2.42 0 000 4.84zM417.451 219.629a2.412 2.412 0 10.001-4.825 2.412 2.412 0 00-.001 4.825zM403.687 218.449a2.364 2.364 0 002.32-2.827 2.373 2.373 0 00-.647-1.211 2.373 2.373 0 00-2.578-.512 2.365 2.365 0 00.905 4.55zM395.741 224.953a2.456 2.456 0 00-2.273 1.518 2.463 2.463 0 001.793 3.354 2.46 2.46 0 10.48-4.872zM406.629 228.694a2.48 2.48 0 001.527 2.3 2.483 2.483 0 10.956-4.775 2.478 2.478 0 00-2.294 1.526 2.472 2.472 0 00-.189.949zM422.513 227.391a2.492 2.492 0 00-2.443 2.98 2.495 2.495 0 001.961 1.955 2.491 2.491 0 002.973-2.452 2.488 2.488 0 00-1.539-2.297 2.488 2.488 0 00-.952-.186zM436.214 233.865a2.5 2.5 0 100-4.998 2.5 2.5 0 000 4.998zM428.425 244.015a2.562 2.562 0 100-5.124 2.562 2.562 0 000 5.124zM438.666 244.726a2.572 2.572 0 001.586 2.387c.471.197.989.249 1.49.15a2.571 2.571 0 002.03-2.023 2.58 2.58 0 00-4.91-1.499 2.58 2.58 0 00-.196.985zM433.432 251.328a2.636 2.636 0 00-2.583 3.147 2.636 2.636 0 003.59 1.919 2.633 2.633 0 001.626-2.433 2.636 2.636 0 00-.774-1.859 2.636 2.636 0 00-1.859-.774zM446.045 261.712a2.657 2.657 0 100-5.314 2.657 2.657 0 000 5.314zM453.172 250.156a2.578 2.578 0 10-.001-5.155 2.578 2.578 0 00.001 5.155zM446.746 234.304a2.505 2.505 0 002.996 2.458 2.502 2.502 0 001.97-1.969 2.514 2.514 0 00-1.066-2.574 2.512 2.512 0 00-3.166.312 2.508 2.508 0 00-.734 1.773zM459.863 237.28a2.503 2.503 0 001.548 2.316 2.501 2.501 0 002.732-.543 2.513 2.513 0 00.543-2.732 2.507 2.507 0 00-4.823.959zM465.935 251.491a2.562 2.562 0 100-5.124 2.562 2.562 0 000 5.124zM456.812 259.141a2.635 2.635 0 105.066-1.008 2.629 2.629 0 00-2.432-1.625 2.638 2.638 0 00-1.862.771 2.62 2.62 0 00-.772 1.862zM452.658 270.384a2.707 2.707 0 003.232 2.652 2.71 2.71 0 002.124-2.125 2.704 2.704 0 10-5.356-.527zM460.203 280.72a2.757 2.757 0 001.699 2.542 2.75 2.75 0 003.594-3.595 2.755 2.755 0 00-2.542-1.698 2.752 2.752 0 00-2.751 2.751zM448.875 283.15c0 .552.164 1.092.47 1.551a2.796 2.796 0 002.865 1.186 2.793 2.793 0 002.034-3.805 2.787 2.787 0 00-3.647-1.512 2.777 2.777 0 00-1.722 2.58zM441.6 272.603c0 .541.16 1.07.461 1.519a2.73 2.73 0 002.808 1.164 2.735 2.735 0 001.993-3.73 2.735 2.735 0 00-3.575-1.483 2.72 2.72 0 00-1.687 2.53zM431.43 265.524c0 .535.158 1.058.455 1.503a2.709 2.709 0 004.161.409 2.71 2.71 0 00.74-1.384 2.71 2.71 0 00-1.15-2.776 2.707 2.707 0 00-1.502-.456 2.711 2.711 0 00-2.704 2.704zM433.455 279.792a2.774 2.774 0 10-2.775-2.767 2.77 2.77 0 002.775 2.767zM422.679 271.453a2.755 2.755 0 00-2.543 1.7 2.751 2.751 0 102.543-1.7zM424.572 262.29a2.683 2.683 0 00-3.204-2.629 2.682 2.682 0 00-1.953 3.654 2.676 2.676 0 002.476 1.655 2.68 2.68 0 002.681-2.68zM418.461 251.11a2.624 2.624 0 105.249 0 2.624 2.624 0 00-5.249 0zM411.674 241.117a2.556 2.556 0 001.578 2.373 2.566 2.566 0 002.796-.554 2.563 2.563 0 10-4.374-1.819zM401.521 237.875a2.536 2.536 0 00-2.345 1.567 2.54 2.54 0 00.55 2.766 2.538 2.538 0 101.795-4.333zM385.264 238.21a2.51 2.51 0 001.547 2.316 2.512 2.512 0 002.732-.543 2.502 2.502 0 00.544-2.732 2.503 2.503 0 00-2.316-1.548 2.508 2.508 0 00-2.507 2.507zM384.588 247.313a2.573 2.573 0 00-2.383 1.593 2.576 2.576 0 00.563 2.81 2.58 2.58 0 002.812.554 2.577 2.577 0 00.828-4.205 2.574 2.574 0 00-1.82-.752zM396.781 249.016a2.595 2.595 0 00-1.834 4.427 2.593 2.593 0 101.834-4.427zM409.198 257.204a2.638 2.638 0 002.427-1.631 2.631 2.631 0 00-.576-2.867 2.629 2.629 0 00-4.049.403 2.63 2.63 0 00.331 3.326 2.637 2.637 0 001.867.769zM411.429 271.314a2.712 2.712 0 100-5.425 2.712 2.712 0 000 5.425zM400.204 267.321a2.667 2.667 0 002.469-1.649 2.676 2.676 0 00-.58-2.913 2.674 2.674 0 00-4.562 1.89 2.673 2.673 0 002.673 2.672zM388.094 264.344a2.64 2.64 0 10.001-5.28 2.64 2.64 0 00-.001 5.28zM377.916 265.461a2.665 2.665 0 10.002 5.33 2.665 2.665 0 00-.002-5.33zM376.947 256.992a2.603 2.603 0 00-3.104-2.56 2.596 2.596 0 00-2.048 2.042 2.606 2.606 0 001.104 2.673 2.606 2.606 0 003.85-1.16c.131-.316.198-.654.198-.995zM363.814 260.094c-.511 0-1.011.151-1.436.436a2.58 2.58 0 00-1.1 2.654 2.59 2.59 0 002.032 2.032 2.591 2.591 0 002.654-1.1 2.586 2.586 0 00.241-2.427 2.572 2.572 0 00-2.391-1.595zM367.401 271.711a2.661 2.661 0 00-1.881 4.551 2.66 2.66 0 002.906.573 2.666 2.666 0 001.436-3.486 2.663 2.663 0 00-1.442-1.438 2.659 2.659 0 00-1.019-.2zM366.982 285.97a2.727 2.727 0 105.454-.017 2.727 2.727 0 00-5.454.017zM358.115 294.446a2.746 2.746 0 003.274 2.7 2.748 2.748 0 002.16-2.154 2.746 2.746 0 00-2.69-3.281 2.74 2.74 0 00-1.937.801 2.738 2.738 0 00-.807 1.934zM349.979 303.251a2.738 2.738 0 001.689 2.541 2.738 2.738 0 002.994-.593 2.747 2.747 0 00.593-2.993 2.741 2.741 0 00-2.541-1.69 2.736 2.736 0 00-2.735 2.735zM345.951 315.37a2.76 2.76 0 100-5.519 2.76 2.76 0 000 5.519zM340.031 325.581a2.76 2.76 0 100-5.519 2.76 2.76 0 000 5.519zM326.162 322.259a2.706 2.706 0 003.23 2.66 2.703 2.703 0 00.971-4.904 2.692 2.692 0 00-1.505-.452 2.696 2.696 0 00-2.696 2.696zM319.691 312.907a2.65 2.65 0 105.095-1.01 2.65 2.65 0 00-2.454-1.631 2.64 2.64 0 00-2.641 2.641zM333.848 308.172a2.695 2.695 0 00-1.906 4.602 2.695 2.695 0 101.906-4.602zM339.659 298.203a2.687 2.687 0 00-.535 5.324 2.685 2.685 0 003.215-2.636 2.69 2.69 0 00-2.68-2.688zM332.494 289.578a2.616 2.616 0 004.471 1.848 2.615 2.615 0 00.562-2.855 2.62 2.62 0 00-4.836.006 2.608 2.608 0 00-.197 1.001zM320.424 286.242a2.554 2.554 0 105.109-.015 2.554 2.554 0 00-5.109.015zM332.644 274.164a2.552 2.552 0 00-2.36 1.577 2.554 2.554 0 102.36-1.577zM320.583 275.388a2.475 2.475 0 100-4.95 2.475 2.475 0 000 4.95zM310.405 277.367a2.473 2.473 0 00-2.274 1.529 2.465 2.465 0 00.54 2.686 2.465 2.465 0 004.021-2.693 2.474 2.474 0 00-1.34-1.336 2.463 2.463 0 00-.947-.186zM312.572 290.391a2.53 2.53 0 10.968 4.868 2.53 2.53 0 00-.968-4.868zM328.07 299.742a2.617 2.617 0 10-5.233 0 2.617 2.617 0 005.233 0zM312.517 308.203a2.577 2.577 0 10-2.376-1.592 2.554 2.554 0 001.391 1.395c.312.13.647.197.985.197zM301.196 297.031a2.493 2.493 0 00-1.759 4.256 2.5 2.5 0 002.718.535 2.492 2.492 0 001.532-2.307 2.486 2.486 0 00-2.491-2.484zM299.935 315.858a2.543 2.543 0 002.351-1.561 2.544 2.544 0 00-.546-2.769 2.53 2.53 0 00-2.767-.554 2.536 2.536 0 00-1.569 2.346 2.54 2.54 0 002.531 2.538zM293.283 322.016a2.526 2.526 0 00-2.344 1.556 2.528 2.528 0 001.839 3.455 2.527 2.527 0 002.6-1.074 2.527 2.527 0 00-2.095-3.937zM287.425 338.717a2.515 2.515 0 100-5.03 2.515 2.515 0 000 5.03zM274.229 338.122a2.428 2.428 0 100-4.856 2.428 2.428 0 000 4.856zM276.773 324.53a2.453 2.453 0 004.857.478 2.452 2.452 0 10-4.857-.478zM281.953 313.678a2.459 2.459 0 001.508 2.271 2.455 2.455 0 002.675-.527 2.45 2.45 0 10-4.183-1.744zM289.915 301.516a2.445 2.445 0 00-1.365.41 2.447 2.447 0 00-1.048 2.518 2.45 2.45 0 004.447.881 2.466 2.466 0 00.223-2.301 2.434 2.434 0 00-2.257-1.508zM275.695 303.09a2.373 2.373 0 100-4.746 2.373 2.373 0 000 4.746zM286.992 289.797a2.362 2.362 0 00-2.157 1.487 2.366 2.366 0 102.157-1.487zM299.202 284.336a2.447 2.447 0 00-2.406 2.916 2.447 2.447 0 001.918 1.924 2.441 2.441 0 002.511-1.038 2.443 2.443 0 00-2.023-3.802zM298.754 270.742a2.364 2.364 0 100 4.728 2.364 2.364 0 000-4.728zM305.762 265.232a2.363 2.363 0 004.037 1.673 2.365 2.365 0 10-4.037-1.673zM295.655 256.084a2.324 2.324 0 004.604.424 2.326 2.326 0 10-4.604-.424zM289.403 242.883a2.235 2.235 0 00-2.074 1.376 2.243 2.243 0 00.48 2.443 2.24 2.24 0 003.172-3.161 2.241 2.241 0 00-1.578-.658zM278.705 256.286a2.245 2.245 0 002.685 2.203c.436-.086.836-.3 1.15-.615a2.244 2.244 0 00-1.588-3.835 2.248 2.248 0 00-2.247 2.247zM285.816 266.13a2.315 2.315 0 001.431 2.141 2.314 2.314 0 003.16-1.689 2.319 2.319 0 10-4.591-.452zM284.162 279.068a2.364 2.364 0 104.728 0 2.364 2.364 0 00-4.728 0zM274.726 282.828a2.308 2.308 0 00-2.257 2.765 2.31 2.31 0 102.257-2.765zM273.651 272.666a2.263 2.263 0 100-4.526 2.263 2.263 0 000 4.526zM266.842 258.563a2.177 2.177 0 10-.002-4.354 2.177 2.177 0 00.002 4.354zM274.441 241.195a2.166 2.166 0 00-.423 4.295 2.175 2.175 0 002.226-.922 2.172 2.172 0 00-.27-2.738 2.17 2.17 0 00-1.533-.635zM259.802 244.882a2.105 2.105 0 100-4.21 2.105 2.105 0 000 4.21zM242.812 242.659a2.04 2.04 0 001.256 1.879 2.038 2.038 0 002.217-.441 2.032 2.032 0 00-.309-3.129 2.027 2.027 0 00-1.908-.188 2.028 2.028 0 00-1.101 1.101 2.053 2.053 0 00-.155.778zM239.297 226.062a1.952 1.952 0 00-1.806 1.207 1.96 1.96 0 00.423 2.131 1.958 1.958 0 003.008-.296 1.956 1.956 0 00-1.625-3.042zM253.985 225.68a2.005 2.005 0 00-1.857 1.241 2.006 2.006 0 00.435 2.19 2.014 2.014 0 002.191.436 2.014 2.014 0 001.241-1.857 2.014 2.014 0 00-2.01-2.01zM268.37 227.055a2.086 2.086 0 00-1.477 3.566 2.095 2.095 0 002.277.453 2.08 2.08 0 00.937-.77 2.09 2.09 0 00-1.737-3.249zM280.227 231.199a2.151 2.151 0 102.144-2.144 2.143 2.143 0 00-2.144 2.144zM278.808 218.756a2.07 2.07 0 001.921-1.274 2.077 2.077 0 00-.445-2.263 2.07 2.07 0 00-2.26-.453 2.078 2.078 0 00-1.282 1.917 2.075 2.075 0 002.066 2.073zM263.971 211.875a2 2 0 00-1.964 2.393 2.001 2.001 0 101.964-2.393zM246.904 211.666a1.924 1.924 0 103.849-.001 1.924 1.924 0 00-3.849.001zM233.794 211.258a1.871 1.871 0 00-1.832 2.236 1.873 1.873 0 001.472 1.466 1.87 1.87 0 001.075-3.563 1.866 1.866 0 00-.715-.139zM216.948 215.306a1.798 1.798 0 10-.002-3.596 1.798 1.798 0 00.002 3.596zM223.554 230.151a1.876 1.876 0 100-3.752 1.876 1.876 0 000 3.752zM227.857 243.33a1.952 1.952 0 001.207 1.806 1.956 1.956 0 10-1.207-1.806zM226.526 272.333a2.017 2.017 0 10.001-4.035 2.017 2.017 0 00-.001 4.035zM234.158 258.151a2.041 2.041 0 104.082 0 2.041 2.041 0 00-4.082 0zM250.837 258.53a2.103 2.103 0 001.932-1.3 2.1 2.1 0 00-1.533-2.854 2.092 2.092 0 00-2.151.893 2.094 2.094 0 00.264 2.649 2.106 2.106 0 001.488.612zM258.557 269.805a2.173 2.173 0 002.01-1.343 2.175 2.175 0 10-4.186-.833 2.17 2.17 0 00.635 1.541 2.163 2.163 0 001.541.635zM258.311 279.793a2.233 2.233 0 002.664 2.197 2.235 2.235 0 001.755-1.755 2.229 2.229 0 00-.954-2.292 2.23 2.23 0 00-3.465 1.85zM247.014 288.965a2.2 2.2 0 104.399-.002 2.2 2.2 0 00-4.399.002zM244.375 274.96a2.128 2.128 0 100-4.257 2.128 2.128 0 000 4.257zM232.935 280.883a2.088 2.088 0 10-.002 4.176 2.088 2.088 0 00.002-4.176zM236.885 293.703a2.149 2.149 0 00-1.989 1.329 2.15 2.15 0 001.569 2.934 2.15 2.15 0 002.572-2.111 2.143 2.143 0 00-2.152-2.152zM245.69 307.923a2.223 2.223 0 100-4.447 2.223 2.223 0 000 4.447zM241.198 319.824a2.212 2.212 0 00-1.363-2.039 2.201 2.201 0 00-3.009 1.609 2.2 2.2 0 00.938 2.266 2.207 2.207 0 003.434-1.836zM232.091 308.652a2.13 2.13 0 10-4.258 0 2.13 2.13 0 004.258 0zM206.755 320.656a2.035 2.035 0 00-.397 4.029 2.038 2.038 0 002.088-.865 2.037 2.037 0 00-1.691-3.164zM211.887 308.917a2.054 2.054 0 001.264 1.906 2.057 2.057 0 10-1.264-1.906zM219.873 295.511a2.063 2.063 0 002.468 2.025 2.06 2.06 0 001.623-1.622 2.068 2.068 0 00-.878-2.121 2.066 2.066 0 00-1.939-.193 2.068 2.068 0 00-1.119 1.119c-.103.251-.156.52-.155.792zM213.299 282.471a2.006 2.006 0 001.236 1.85 2 2 0 002.616-2.616 2 2 0 00-3.266-.65 2.005 2.005 0 00-.586 1.416zM210.24 269.338a1.935 1.935 0 00-1.194-1.806 1.939 1.939 0 00-2.529 2.55 1.935 1.935 0 001.815 1.179 1.942 1.942 0 001.908-1.923zM197.154 283.518a1.895 1.895 0 001.761-1.169 1.897 1.897 0 00-1.385-2.594 1.897 1.897 0 00-2.268 1.871 1.9 1.9 0 001.892 1.892zM204.91 293.5a1.958 1.958 0 00-1.813 1.212 1.956 1.956 0 00.425 2.139 1.97 1.97 0 002.139.425 1.957 1.957 0 001.212-1.813 1.957 1.957 0 00-1.963-1.963zM197.168 311.613a1.955 1.955 0 100-3.91 1.955 1.955 0 000 3.91zM188.867 296.806a1.864 1.864 0 00-1.155-1.727 1.866 1.866 0 00-2.546 1.367 1.862 1.862 0 00.801 1.917c.308.204.67.313 1.04.311a1.864 1.864 0 001.318-.548 1.847 1.847 0 00.542-1.32zM179.415 284.001a1.791 1.791 0 001.66-1.11 1.792 1.792 0 00-1.31-2.45 1.79 1.79 0 00-1.845.764 1.8 1.8 0 001.495 2.796zM162.324 285.57a1.71 1.71 0 100-3.422 1.71 1.71 0 000 3.422zM168.748 301.454a1.764 1.764 0 001.632-1.09 1.775 1.775 0 00-.383-1.925 1.766 1.766 0 10-1.249 3.015zM151.791 307.765a1.703 1.703 0 103.406 0 1.703 1.703 0 00-3.406 0zM163.68 321.43a1.789 1.789 0 101.781-1.789 1.779 1.779 0 00-1.781 1.789zM179.44 314.752a1.852 1.852 0 10.002-3.704 1.852 1.852 0 00-.002 3.704zM187.834 324.08a1.934 1.934 0 001.192 1.784 1.93 1.93 0 002.524-2.523 1.928 1.928 0 00-1.785-1.193 1.937 1.937 0 00-1.365.566 1.93 1.93 0 00-.566 1.366zM200.077 336.19a2 2 0 00-1.226-1.848 1.988 1.988 0 00-2.176.427 1.99 1.99 0 00-.436 2.174 2 2 0 00.734.897 2.002 2.002 0 002.517-.245c.374-.372.585-.878.587-1.405zM206.526 345.875a2.054 2.054 0 00-1.906 1.265 2.051 2.051 0 00-.12 1.189 2.051 2.051 0 001.614 1.621 2.053 2.053 0 002.115-.874 2.057 2.057 0 00.193-1.93 2.037 2.037 0 00-1.896-1.271zM212.896 363.702a2.105 2.105 0 100-4.21 2.105 2.105 0 000 4.21zM227.346 364.461a2.183 2.183 0 100-4.367 2.183 2.183 0 000 4.367zM235.245 351.602a2.223 2.223 0 100-4.447 2.223 2.223 0 000 4.447zM221.97 349.976a2.144 2.144 0 10.001-4.289 2.144 2.144 0 00-.001 4.289zM215.892 337.069c.417.002.824-.12 1.171-.351a2.104 2.104 0 10-3.268-1.754 2.095 2.095 0 002.097 2.105zM225.399 321.972a2.123 2.123 0 00-1.311-1.968 2.122 2.122 0 10-.778 4.081 2.121 2.121 0 002.089-2.113zM232.588 336.391a2.198 2.198 0 001.555-3.755 2.2 2.2 0 00-3.384.334c-.241.361-.37.787-.37 1.222a2.198 2.198 0 00.642 1.557 2.177 2.177 0 001.557.642zM247.141 328.224c0 .452.134.895.385 1.271a2.291 2.291 0 003.52.342 2.293 2.293 0 00.491-2.494 2.293 2.293 0 00-2.992-1.231 2.272 2.272 0 00-1.233 1.237 2.285 2.285 0 00-.171.875zM254.898 313.836a2.288 2.288 0 00-2.113 1.411 2.29 2.29 0 00.496 2.492 2.29 2.29 0 002.491.495 2.283 2.283 0 001.412-2.112 2.283 2.283 0 00-2.286-2.286zM257.066 303.263a2.283 2.283 0 003.903 1.616 2.28 2.28 0 00.496-2.491 2.283 2.283 0 00-2.112-1.411 2.285 2.285 0 00-2.287 2.286zM263.995 294.76a2.288 2.288 0 00.446-4.529 2.288 2.288 0 00-2.732 2.243 2.285 2.285 0 002.286 2.286zM270.051 315.363a2.372 2.372 0 100-4.744 2.372 2.372 0 000 4.744zM264.879 327.777a2.365 2.365 0 100-4.73 2.365 2.365 0 000 4.73zM257.689 337.599a2.364 2.364 0 002.827 2.32 2.369 2.369 0 001.858-1.858 2.369 2.369 0 00-1.006-2.428 2.364 2.364 0 00-3.679 1.966zM243.861 340.31a2.294 2.294 0 001.406 2.117 2.285 2.285 0 002.151-4.01 2.29 2.29 0 00-2.884.281 2.285 2.285 0 00-.673 1.612zM248.268 355.206a2.314 2.314 0 001.642-3.944 2.316 2.316 0 00-2.521-.499 2.306 2.306 0 00-1.422 2.141 2.301 2.301 0 002.301 2.302zM239.139 363.552a2.26 2.26 0 003.848 1.613 2.262 2.262 0 00-2.426-3.717 2.252 2.252 0 00-1.422 2.104zM249.781 376.113a2.364 2.364 0 10-2.365-2.365 2.33 2.33 0 002.365 2.365zM257.373 365.277a2.373 2.373 0 100-4.746 2.373 2.373 0 000 4.746zM265.248 374.856a2.42 2.42 0 100-4.84 2.42 2.42 0 000 4.84zM329.734 378.23a2.794 2.794 0 002.586-1.728 2.805 2.805 0 00-.607-3.05 2.798 2.798 0 10-1.979 4.778zM314.426 374.251a2.726 2.726 0 005.403.521 2.728 2.728 0 10-5.403-.521zM311.579 365.376a2.68 2.68 0 100-5.36 2.68 2.68 0 000 5.36zM299.281 363.703a2.618 2.618 0 100-5.235 2.618 2.618 0 000 5.235zM292.084 374.484a2.572 2.572 0 002.381-1.592 2.581 2.581 0 00-.558-2.809 2.58 2.58 0 00-4.401 1.823 2.584 2.584 0 002.578 2.578zM304.651 375.798a2.657 2.657 0 10-2.649-2.649 2.65 2.65 0 002.649 2.649zM276.396 371.437a2.496 2.496 0 001.543 2.308 2.496 2.496 0 002.724-.541 2.5 2.5 0 10-4.078-2.725 2.48 2.48 0 00-.189.958zM286.083 357.734a2.541 2.541 0 00-2.498 3.029 2.537 2.537 0 005.029-.49 2.538 2.538 0 00-2.531-2.539zM274.503 359.905a2.45 2.45 0 10-4.901-.017 2.45 2.45 0 004.901.017zM260.078 353.089a2.373 2.373 0 100-4.746 2.373 2.373 0 000 4.746zM268.338 347.014a2.441 2.441 0 001.505 2.264 2.445 2.445 0 10-1.505-2.264zM279.684 348.241a2.493 2.493 0 001.537 2.315 2.496 2.496 0 002.726-.537 2.501 2.501 0 00-.375-3.847 2.5 2.5 0 00-3.888 2.069zM294.189 346.594c-.509 0-1.006.151-1.429.433a2.575 2.575 0 00-1.091 2.641 2.566 2.566 0 002.024 2.017 2.56 2.56 0 001.485-.149 2.572 2.572 0 00.826-4.192 2.569 2.569 0 00-1.815-.75zM299.842 335.406a2.586 2.586 0 100 5.173 2.586 2.586 0 000-5.173zM305.674 324.875a2.595 2.595 0 00-1.824 4.43 2.59 2.59 0 002.826.559 2.597 2.597 0 001.599-2.395 2.59 2.59 0 00-2.601-2.594zM311.998 320.688a2.616 2.616 0 002.411-1.611 2.612 2.612 0 00-1.902-3.558 2.612 2.612 0 00-2.679 1.109 2.61 2.61 0 002.17 4.06zM319.155 331.493a2.673 2.673 0 10.002-5.346 2.673 2.673 0 00-.002 5.346zM324.216 344.924a2.728 2.728 0 100-5.456 2.728 2.728 0 000 5.456zM312.51 336.617a2.661 2.661 0 00-2.461 1.645 2.662 2.662 0 001.941 3.633 2.662 2.662 0 002.736-1.133c.293-.438.449-.953.449-1.48a2.651 2.651 0 00-.778-1.887 2.66 2.66 0 00-1.887-.778zM309.143 350.18a2.628 2.628 0 00-1.625-2.433 2.643 2.643 0 00-1.522-.15 2.64 2.64 0 00-2.068 2.069 2.635 2.635 0 001.119 2.703 2.628 2.628 0 003.323-.33 2.64 2.64 0 00.773-1.859zM318.265 355.142a2.711 2.711 0 100-5.423 2.711 2.711 0 000 5.423zM326.723 364.212a2.755 2.755 0 00-1.703-2.549 2.761 2.761 0 00-3.762 2.011 2.761 2.761 0 002.706 3.297 2.755 2.755 0 002.759-2.759zM327.535 354.041a2.79 2.79 0 001.714 2.577 2.782 2.782 0 003.638-3.638 2.782 2.782 0 00-5.352 1.061zM336.773 347.129a2.807 2.807 0 100-5.615 2.807 2.807 0 000 5.615zM328.883 333.353a2.754 2.754 0 001.698 2.542 2.756 2.756 0 003.752-2.005 2.756 2.756 0 00-1.17-2.825 2.756 2.756 0 00-3.474.342 2.752 2.752 0 00-.806 1.946zM340.936 334.33a2.824 2.824 0 003.37 2.776 2.808 2.808 0 001.447-.773 2.823 2.823 0 10-4.817-2.003zM348.584 324.627a2.827 2.827 0 001.747 2.615 2.833 2.833 0 003.859-2.063 2.833 2.833 0 00-1.204-2.905 2.827 2.827 0 00-1.572-.477 2.82 2.82 0 00-2.83 2.83zM357.918 312.195a2.832 2.832 0 00-2.784 3.378 2.834 2.834 0 002.221 2.228 2.836 2.836 0 002.908-1.202 2.834 2.834 0 00-.349-3.572 2.832 2.832 0 00-1.996-.832zM362.324 306.041a2.815 2.815 0 105.63.013 2.815 2.815 0 00-5.63-.013zM370.184 314.078a2.894 2.894 0 00-2.647 1.792 2.89 2.89 0 00.63 3.134 2.884 2.884 0 003.134.63 2.892 2.892 0 001.792-2.647 2.892 2.892 0 00-.845-2.064 2.886 2.886 0 00-2.064-.845zM360.266 326.252a2.894 2.894 0 102.885-2.885 2.885 2.885 0 00-2.885 2.885zM355.86 332.797a2.89 2.89 0 00-2.846 3.456 2.897 2.897 0 002.276 2.275 2.895 2.895 0 002.61-4.886 2.885 2.885 0 00-2.04-.845zM349 342.359a2.877 2.877 0 102.878 2.878 2.88 2.88 0 00-.841-2.037 2.873 2.873 0 00-2.037-.841zM342.553 357.981a2.863 2.863 0 002.649-1.761 2.856 2.856 0 00-.615-3.121 2.864 2.864 0 00-3.119-.624 2.857 2.857 0 00-1.769 2.644 2.861 2.861 0 002.854 2.862zM336.152 367.973a2.838 2.838 0 100-5.676 2.838 2.838 0 000 5.676zM348.38 368.56a2.91 2.91 0 10-1.114-5.596 2.913 2.913 0 00-1.795 2.687 2.905 2.905 0 002.909 2.909zM342.047 378.669a2.877 2.877 0 10.001-5.755 2.877 2.877 0 00-.001 5.755zM233.827 377.978a2.242 2.242 0 002.196-2.676 2.244 2.244 0 00-1.759-1.759 2.247 2.247 0 00-1.294.127 2.245 2.245 0 00-1.214 2.927 2.228 2.228 0 002.071 1.381zM218.918 377.726a2.136 2.136 0 100-4.272 2.136 2.136 0 000 4.272zM35.095 356.519a1.054 1.054 0 00.964-.653 1.049 1.049 0 10-2.02-.396 1.056 1.056 0 001.056 1.049zM36.427 318.766a1.029 1.029 0 00-.954.637 1.034 1.034 0 10.954-.637zM44.87 287.394a1.04 1.04 0 100-2.082 1.04 1.04 0 000 2.082zM53.818 255.086a1.05 1.05 0 00-.204 2.077 1.055 1.055 0 001.076-.446 1.048 1.048 0 00-.872-1.631zM71.667 275.141a1.181 1.181 0 10.979 1.834 1.18 1.18 0 00-.15-1.488 1.181 1.181 0 00-.83-.346zM82.765 301.656a1.291 1.291 0 001.193-.788 1.285 1.285 0 10-1.193.788zM61.204 307.662a1.168 1.168 0 00.825-1.992 1.167 1.167 0 10-.825 1.992zM58.122 335.623a1.175 1.175 0 100-2.35 1.175 1.175 0 000 2.35zM62.087 355.906a1.21 1.21 0 00-1.122.75 1.213 1.213 0 001.587 1.586 1.219 1.219 0 00.75-1.122 1.213 1.213 0 00-1.215-1.214zM82.483 370.59a1.326 1.326 0 10-2.651 0 1.326 1.326 0 002.65 0zM167.716 371.032a1.828 1.828 0 10-3.656-.001 1.828 1.828 0 003.656.001zM148.891 373.883a1.727 1.727 0 10-.001-3.453 1.727 1.727 0 00.001 3.453zM118.043 373.887a1.545 1.545 0 100-3.09 1.545 1.545 0 000 3.09zM134.892 363.701a1.64 1.64 0 100-3.278 1.64 1.64 0 000 3.278zM141.324 342.703a1.67 1.67 0 00-1.64 1.997 1.673 1.673 0 003.311-.326c0-.443-.176-.868-.49-1.181a1.667 1.667 0 00-1.181-.49zM155.033 357.813a1.758 1.758 0 100-3.516 1.758 1.758 0 000 3.516zM172.794 355.791a1.868 1.868 0 100-3.735 1.868 1.868 0 000 3.735zM185.634 368.65a1.934 1.934 0 00-1.192-1.784 1.93 1.93 0 00-2.633 1.407 1.929 1.929 0 003.257 1.741c.362-.362.566-.852.568-1.364zM200.195 373.886a2.046 2.046 0 001.261 1.886 2.042 2.042 0 10-1.261-1.886zM197.09 362.278a2.01 2.01 0 10.001-4.02 2.01 2.01 0 00-.001 4.02zM188.031 350.66a1.947 1.947 0 100-3.893 1.947 1.947 0 000 3.893zM177.956 336.901a1.876 1.876 0 10.001-3.753 1.876 1.876 0 00-.001 3.753zM162.741 339.36a1.793 1.793 0 00-1.105-1.653 1.792 1.792 0 00-2.44 1.304 1.794 1.794 0 00.761 1.837 1.789 1.789 0 002.784-1.488zM147.291 328.358a1.687 1.687 0 100-3.375 1.687 1.687 0 000 3.375zM135.993 313.724a1.6 1.6 0 100-3.2 1.6 1.6 0 000 3.2zM115.986 316.467a1.506 1.506 0 103.012-.002 1.506 1.506 0 00-3.012.002zM127.055 333.825a1.577 1.577 0 100-3.153 1.577 1.577 0 000 3.153zM119.856 349.109a1.578 1.578 0 10.603 3.034 1.584 1.584 0 00.974-1.457 1.58 1.58 0 00-1.577-1.577zM101.07 358.367a1.435 1.435 0 10-.001 2.87 1.435 1.435 0 00.001-2.87zM83.475 347.821a1.332 1.332 0 100-2.665 1.332 1.332 0 000 2.665zM79.4 326.179a1.293 1.293 0 10.003-2.585 1.293 1.293 0 00-.003 2.585zM104.255 338.198a1.45 1.45 0 100-2.902 1.45 1.45 0 000 2.902zM96.576 317.098a1.387 1.387 0 102.773 0 1.387 1.387 0 00-2.773 0zM105.635 298.528a1.421 1.421 0 001.696 1.392 1.421 1.421 0 001.034-1.935 1.42 1.42 0 00-1.311-.876 1.428 1.428 0 00-1.419 1.419zM127.023 296.809a1.53 1.53 0 100-3.06 1.53 1.53 0 000 3.06zM145.88 292.67a1.632 1.632 0 100-3.265 1.632 1.632 0 000 3.265zM133.992 276.09a1.53 1.53 0 100-3.06 1.53 1.53 0 000 3.06zM150.579 269.405a1.617 1.617 0 00.971 1.534 1.622 1.622 0 002.155-2.102 1.62 1.62 0 00-1.51-1.009 1.619 1.619 0 00-1.616 1.577zM170.996 264.422c-.34 0-.672.101-.955.289a1.725 1.725 0 00-.731 1.765 1.724 1.724 0 001.351 1.35 1.722 1.722 0 001.764-.731 1.716 1.716 0 00-.216-2.167 1.727 1.727 0 00-1.213-.506zM158.99 250.999a1.62 1.62 0 001.003 1.5 1.627 1.627 0 001.77-.352 1.625 1.625 0 10-2.773-1.148zM178.918 249.617a1.737 1.737 0 001.065 1.608 1.74 1.74 0 001.893-.371 1.738 1.738 0 00.379-1.891 1.73 1.73 0 00-1.603-1.072 1.732 1.732 0 00-1.734 1.726zM169.136 235.217a1.627 1.627 0 001.5-1.003 1.62 1.62 0 00-.352-1.77 1.625 1.625 0 10-1.148 2.773zM159.131 217.848a1.523 1.523 0 001.084-2.598 1.525 1.525 0 00-2.345.236 1.528 1.528 0 00.191 1.918 1.51 1.51 0 001.07.444zM147.465 234.732a1.519 1.519 0 001.813 1.501 1.514 1.514 0 001.2-1.193 1.523 1.523 0 00-1.492-1.821 1.52 1.52 0 00-1.521 1.513zM138.832 253.818a1.526 1.526 0 00.939 1.419 1.529 1.529 0 10-.939-1.419zM118.463 257.38a1.415 1.415 0 00.876 1.311 1.415 1.415 0 001.546-.308 1.415 1.415 0 00-.215-2.183 1.415 1.415 0 00-1.789.179 1.423 1.423 0 00-.418 1.001zM115.948 277.974a1.428 1.428 0 10-2.856.002 1.428 1.428 0 002.856-.002zM94.992 282.223a1.308 1.308 0 10-2.616.015 1.308 1.308 0 002.616-.015zM97.404 263.32a1.3 1.3 0 10.001-2.6 1.3 1.3 0 000 2.6zM80.188 249.209a1.175 1.175 0 100-2.35 1.175 1.175 0 000 2.35zM105.06 241.328a1.293 1.293 0 100-2.586 1.293 1.293 0 000 2.586zM127.78 238.135a1.41 1.41 0 100-2.821 1.41 1.41 0 000 2.821zM137.964 218.307a1.411 1.411 0 100-2.823 1.411 1.411 0 000 2.823zM150.185 199.057a1.412 1.412 0 10-.001-2.823 1.412 1.412 0 00.001 2.823zM126.975 196.918a1.302 1.302 0 002.22.92 1.3 1.3 0 10-2.22-.92zM104.595 197.966a1.174 1.174 0 100-2.348 1.174 1.174 0 000 2.348zM115.521 219.289a1.304 1.304 0 001.216-.804 1.312 1.312 0 00-.954-1.788 1.302 1.302 0 00-1.345.561 1.309 1.309 0 00-.217.73 1.301 1.301 0 001.3 1.301zM91.137 220.078a1.169 1.169 0 00-1.144 1.394 1.166 1.166 0 101.144-1.394zM64.539 227.433a1.04 1.04 0 100-2.082 1.04 1.04 0 000 2.082zM78.257 197.806a1.04 1.04 0 10-2.08 0 1.04 1.04 0 002.08 0zM93.605 172.995a1.05 1.05 0 001.028-1.253 1.045 1.045 0 00-.823-.823 1.047 1.047 0 00-.944 1.767c.196.196.462.307.74.309zM119.493 174.748a1.19 1.19 0 10.272-2.364 1.19 1.19 0 00-.272 2.364zM141.693 178.758a1.313 1.313 0 001.222-.807 1.315 1.315 0 00-.954-1.8 1.316 1.316 0 00-1.576 1.29 1.318 1.318 0 00.38.931 1.31 1.31 0 00.928.386zM164.304 181.057a1.418 1.418 0 001.003-2.423 1.421 1.421 0 00-2.183.215 1.421 1.421 0 00-.133 1.333 1.405 1.405 0 00.769.769c.172.071.357.107.544.106zM170.822 199.387a1.514 1.514 0 100-3.028 1.514 1.514 0 000 3.028zM178.5 213.188a1.576 1.576 0 101.577 1.576 1.616 1.616 0 00-1.577-1.576zM185.186 229.875a1.697 1.697 0 001.051 1.573 1.708 1.708 0 001.855-.369 1.708 1.708 0 00.37-1.856 1.705 1.705 0 00-3.147 0 1.715 1.715 0 00-.129.652zM194.93 241.985a1.791 1.791 0 002.141 1.754 1.786 1.786 0 001.299-2.444 1.788 1.788 0 00-2.342-.963 1.776 1.776 0 00-1.098 1.653zM189.112 264.555a1.825 1.825 0 00-1.682 1.124 1.822 1.822 0 101.682-1.124zM201.355 257.65a1.852 1.852 0 100-3.704 1.852 1.852 0 000 3.704zM219.367 258.754a1.955 1.955 0 100-3.91 1.955 1.955 0 000 3.91zM213.526 244.205a1.864 1.864 0 001.732-1.147 1.87 1.87 0 00-1.356-2.553 1.869 1.869 0 10-.376 3.7zM204.389 227.54a1.791 1.791 0 002.141 1.754 1.79 1.79 0 10-2.141-1.754zM195.947 213.828a1.703 1.703 0 103.406 0 1.703 1.703 0 00-3.406 0zM190.177 199.451a1.617 1.617 0 10-.001-3.233 1.617 1.617 0 00.001 3.233zM184.027 181.277a1.504 1.504 0 001.477-1.799 1.507 1.507 0 00-2.729-.543 1.508 1.508 0 00.187 1.901 1.51 1.51 0 001.065.441zM178.62 161.299a1.411 1.411 0 100-2.823 1.411 1.411 0 000 2.823zM199.195 167.184a1.53 1.53 0 100-3.06 1.53 1.53 0 000 3.06zM203.026 184.537a1.616 1.616 0 100-3.232 1.616 1.616 0 000 3.232zM209.017 200.906a1.703 1.703 0 100-3.406 1.703 1.703 0 000 3.406zM219.219 184.875a1.705 1.705 0 002.035 1.67 1.707 1.707 0 001.241-2.322 1.703 1.703 0 00-3.276.652zM227.582 200.454a1.791 1.791 0 001.266-3.055 1.79 1.79 0 10-1.266 3.055zM242.868 196.775a1.83 1.83 0 100-3.658 1.83 1.83 0 000 3.658zM259.13 199.651a1.901 1.901 0 001.763-1.177 1.908 1.908 0 10-2.494 1.034c.232.096.481.144.731.143zM272.881 201.377a1.99 1.99 0 001.233 1.844 1.993 1.993 0 002.602-2.612 1.99 1.99 0 00-1.849-1.226 1.995 1.995 0 00-1.986 1.994zM269.033 185.337a1.907 1.907 0 103.814.015 1.907 1.907 0 00-3.814-.015zM266.107 168.633c0 .357.106.707.305 1.003a1.8 1.8 0 002.777.274 1.806 1.806 0 10-3.082-1.277zM263.814 150.805a1.716 1.716 0 001.061 1.587 1.722 1.722 0 001.873-.372 1.724 1.724 0 00.373-1.873 1.717 1.717 0 00-2.803-.558c-.322.323-.504.76-.504 1.216zM249.246 142.766a1.634 1.634 0 00-1.569 1.985 1.635 1.635 0 002.262 1.135 1.626 1.626 0 00.962-1.544 1.627 1.627 0 00-1.655-1.576zM227.558 124.276a1.45 1.45 0 100-2.901 1.45 1.45 0 000 2.901zM231.192 138.453a1.578 1.578 0 00-.308 3.123 1.575 1.575 0 10.308-3.123zM232.635 158.601a1.65 1.65 0 001.019 1.523 1.653 1.653 0 001.796-.361 1.644 1.644 0 00.352-1.798 1.647 1.647 0 00-2.157-.886 1.646 1.646 0 00-1.01 1.522zM251.074 161.859a1.738 1.738 0 00-1.608 1.067 1.727 1.727 0 00.374 1.894 1.738 1.738 0 001.894.375 1.739 1.739 0 001.067-1.609 1.738 1.738 0 00-1.727-1.727zM254.292 182.791a1.822 1.822 0 10-.002-3.644 1.822 1.822 0 00.002 3.644zM235.064 177.523a1.736 1.736 0 002.961 1.235 1.738 1.738 0 00.375-1.894 1.739 1.739 0 00-2.83-.561 1.722 1.722 0 00-.506 1.22zM218.446 170.185a1.624 1.624 0 100-3.248 1.624 1.624 0 000 3.248zM215.654 152.09a1.531 1.531 0 001.509-1.826 1.538 1.538 0 00-.419-.785 1.527 1.527 0 00-2.611 1.089 1.521 1.521 0 001.521 1.522zM196.915 149.299a1.438 1.438 0 001.333-.89 1.443 1.443 0 10-1.333.89zM184.547 136.876a1.352 1.352 0 001.24-.838 1.345 1.345 0 00-.987-1.833 1.354 1.354 0 00-1.382.575 1.343 1.343 0 00.173 1.701c.254.253.598.395.956.395zM164.484 144.586a1.29 1.29 0 001.193-.788 1.286 1.286 0 10-2.47-.497 1.288 1.288 0 001.277 1.285zM156.342 162.863a1.31 1.31 0 00.996-.346 1.324 1.324 0 00.422-.966 1.324 1.324 0 00-.422-.966 1.325 1.325 0 00-.996-.347 1.316 1.316 0 000 2.625zM136.073 153.014a1.19 1.19 0 100-2.381 1.19 1.19 0 000 2.381zM110.468 148.284a1.048 1.048 0 10-.013-2.097 1.048 1.048 0 00.013 2.097zM126.74 123.55a1.031 1.031 0 001.012-1.237 1.03 1.03 0 00-.816-.81 1.036 1.036 0 00-1.059.446 1.033 1.033 0 00-.091.97 1.018 1.018 0 00.559.555c.125.051.26.077.395.076zM148.419 130.427a1.158 1.158 0 100-2.315 1.158 1.158 0 000 2.315zM150.72 100.863a1.05 1.05 0 100-2.099 1.05 1.05 0 000 2.099zM177.367 74.972a1.039 1.039 0 001.02-1.244 1.042 1.042 0 00-.817-.817 1.04 1.04 0 10-.203 2.06zM176.735 99.794a1.154 1.154 0 001.069-.705c.088-.21.112-.442.069-.665a1.153 1.153 0 00-2.281.22 1.151 1.151 0 001.143 1.15zM169.528 120.897a1.211 1.211 0 001.12-.739 1.201 1.201 0 00-.256-1.318 1.205 1.205 0 00-1.858.18 1.204 1.204 0 00.994 1.877zM194.387 117.07a1.292 1.292 0 100-2.585 1.292 1.292 0 000 2.585zM207.732 130.669a1.416 1.416 0 00.876 1.311 1.418 1.418 0 10-.876-1.311zM216.27 108.243a1.332 1.332 0 100-2.665 1.332 1.332 0 000 2.665zM199.661 94.56a1.204 1.204 0 001.12-.738 1.2 1.2 0 00-.256-1.318 1.21 1.21 0 00-1.316-.264 1.204 1.204 0 00-.746 1.115 1.195 1.195 0 00.738 1.114c.146.06.302.092.46.092zM208.426 75.896a1.16 1.16 0 10-1.07-.709 1.155 1.155 0 00.628.624c.14.057.291.086.442.085zM204.484 52.847a1.033 1.033 0 100-2.067 1.033 1.033 0 000 2.067zM231.075 63.935a1.166 1.166 0 10-1.167-1.167 1.176 1.176 0 001.167 1.167zM228.568 88.445a1.285 1.285 0 100-2.57 1.285 1.285 0 000 2.57zM239.478 108.635a1.418 1.418 0 00.276-2.811 1.41 1.41 0 00-.819.081 1.415 1.415 0 00-.459 2.312c.266.266.626.416 1.002.418zM247.678 126.402a1.539 1.539 0 00.338-3.043 1.542 1.542 0 00-1.587.655 1.533 1.533 0 00-.257.859 1.53 1.53 0 001.506 1.529zM263.097 110.738a1.504 1.504 0 001.477-1.799 1.509 1.509 0 00-2.053-1.098 1.5 1.5 0 00-.675.555 1.502 1.502 0 001.251 2.342zM263.326 130.663a1.583 1.583 0 00.973 1.456 1.571 1.571 0 001.719-.342 1.577 1.577 0 10-2.692-1.114zM280.259 141.828a1.71 1.71 0 100-3.421 1.71 1.71 0 000 3.421zM284.011 157.743a1.809 1.809 0 00-1.114-1.668 1.81 1.81 0 00-1.968.391 1.812 1.812 0 00-.391 1.968 1.803 1.803 0 002.944.585c.339-.338.529-.797.529-1.276zM295.537 148.282a1.809 1.809 0 001.115 1.668 1.806 1.806 0 10-1.115-1.668zM296.309 165.626a1.901 1.901 0 001.174 1.756 1.897 1.897 0 002.072-.415 1.906 1.906 0 00.406-2.073 1.897 1.897 0 00-1.76-1.167 1.901 1.901 0 00-1.892 1.899zM282.387 174.627a1.908 1.908 0 101.176-1.765 1.903 1.903 0 00-1.176 1.765zM286.983 192.528a1.979 1.979 0 10-.002-3.958 1.979 1.979 0 00.002 3.958zM300.203 179.992c-.394 0-.78.117-1.108.337a1.988 1.988 0 00-.847 2.05 1.99 1.99 0 001.571 1.565 1.996 1.996 0 10.384-3.952zM314.141 177.278a1.994 1.994 0 100-3.989 1.994 1.994 0 000 3.989zM313.345 162.206a1.916 1.916 0 100-3.832 1.916 1.916 0 000 3.832zM313.259 147.049a1.837 1.837 0 10-.002-3.674 1.837 1.837 0 00.002 3.674zM327.258 138.416a1.827 1.827 0 001.689-1.119 1.817 1.817 0 00-.39-1.987 1.822 1.822 0 10-1.299 3.106zM327.236 153.009a1.918 1.918 0 003.271 1.355 1.922 1.922 0 00.415-2.088 1.913 1.913 0 00-1.77-1.182 1.92 1.92 0 00-1.916 1.915zM328.875 169.708a2.001 2.001 0 001.849-1.226 1.996 1.996 0 00-3.499-1.878 1.997 1.997 0 001.65 3.104zM328.843 185.014a2.077 2.077 0 001.923-1.285 2.087 2.087 0 00-.451-2.268 2.082 2.082 0 00-2.944 2.943c.391.391.92.61 1.472.61zM315.591 188.391a2.084 2.084 0 00-1.923 1.284 2.082 2.082 0 101.923-1.284zM304.729 197.589a2.073 2.073 0 10-4.146.001 2.073 2.073 0 004.146-.001zM290.232 207.787a2.073 2.073 0 100-4.146 2.073 2.073 0 000 4.146zM293.533 221.859a2.144 2.144 0 100-4.288 2.144 2.144 0 000 4.288zM303.553 212.613a2.163 2.163 0 001.335 1.997 2.162 2.162 0 002.019-3.797 2.168 2.168 0 00-2.727.273 2.16 2.16 0 00-.627 1.527zM315.545 205.418a2.16 2.16 0 104.32.016 2.16 2.16 0 00-4.32-.016zM330.23 195.773a2.165 2.165 0 00-1.995 1.334 2.158 2.158 0 002.822 2.822 2.153 2.153 0 001.333-1.996 2.16 2.16 0 00-2.16-2.16zM342.427 192.226a2.146 2.146 0 001.994-1.323 2.146 2.146 0 00-.461-2.348 2.146 2.146 0 00-2.346-.47 2.151 2.151 0 00-1.331 1.989 2.151 2.151 0 00.625 1.521 2.146 2.146 0 001.519.631zM344.917 202.203a2.245 2.245 0 00-2.075 1.379 2.232 2.232 0 001.632 3.056 2.242 2.242 0 002.3-.957 2.245 2.245 0 00-.28-2.824 2.228 2.228 0 00-1.577-.654zM346.708 217.935a2.316 2.316 0 00-1.421-2.14 2.305 2.305 0 00-3.154 1.678 2.305 2.305 0 00.981 2.374 2.309 2.309 0 002.167.217 2.307 2.307 0 001.427-2.129zM356.08 221.047a2.367 2.367 0 00-1.672 4.037 2.36 2.36 0 003.638-.358 2.364 2.364 0 00-1.966-3.679zM359.651 212.166a2.295 2.295 0 100-4.59 2.295 2.295 0 000 4.59zM366.068 222.467a2.367 2.367 0 004.038 1.672 2.369 2.369 0 00.512-2.577 2.362 2.362 0 00-2.185-1.46 2.367 2.367 0 00-2.365 2.365zM358.32 236.178c-.001.484.141.957.408 1.36.268.403.649.717 1.095.904a2.45 2.45 0 002.666-.525 2.444 2.444 0 10-4.169-1.739zM346.645 244.506a2.46 2.46 0 104.918.002 2.46 2.46 0 00-4.918-.002zM343.529 231.951a2.364 2.364 0 104.728 0 2.364 2.364 0 00-4.728 0zM332.391 240.084a2.366 2.366 0 104.731.001 2.366 2.366 0 00-4.731-.001zM323.303 249.318a2.363 2.363 0 004.037 1.672 2.36 2.36 0 00-.358-3.638 2.367 2.367 0 00-2.987.294 2.365 2.365 0 00-.692 1.672zM319.581 238.878a2.326 2.326 0 100-4.652 2.326 2.326 0 000 4.652zM329.734 226.958c0 .457.136.904.39 1.283a2.305 2.305 0 002.371.983 2.307 2.307 0 001.815-1.815 2.311 2.311 0 00-2.266-2.761 2.317 2.317 0 00-2.31 2.31zM331.493 214.439a2.24 2.24 0 10-.001-4.48 2.24 2.24 0 00.001 4.48zM319.612 218.391a2.244 2.244 0 00-2.204 2.685 2.248 2.248 0 004.451-.439 2.247 2.247 0 00-2.247-2.246zM305.713 227.426a2.243 2.243 0 002.678 2.196 2.24 2.24 0 10-1.303-4.264 2.234 2.234 0 00-1.375 2.068zM295.395 230.492a2.21 2.21 0 00-2.165 2.638 2.201 2.201 0 001.734 1.734 2.204 2.204 0 002.638-2.164 2.206 2.206 0 00-2.207-2.208zM304.413 239.398a2.289 2.289 0 00-2.242 2.733 2.284 2.284 0 001.796 1.796 2.288 2.288 0 001.322-4.357 2.287 2.287 0 00-.876-.172zM309.617 250.662a2.364 2.364 0 104.728 0 2.364 2.364 0 00-4.728 0zM319.36 262.872a2.42 2.42 0 10-.002-4.842 2.42 2.42 0 00.002 4.842zM330.798 265.849a2.49 2.49 0 100-4.981 2.49 2.49 0 000 4.981zM342.347 264.695a2.548 2.548 0 10.975 4.899 2.547 2.547 0 00-.975-4.899zM344.729 282.633a2.617 2.617 0 100-5.235 2.617 2.617 0 000 5.235zM345.572 291.758a2.696 2.696 0 001.654 2.49 2.693 2.693 0 002.932-.578 2.687 2.687 0 10-4.586-1.912zM357.452 280.047a2.676 2.676 0 00-2.469 1.65 2.666 2.666 0 00.579 2.912 2.67 2.67 0 004.112-.405 2.676 2.676 0 00-.333-3.374 2.669 2.669 0 00-1.889-.783zM357.018 270.938a2.61 2.61 0 10-5.22.002 2.61 2.61 0 005.22-.002zM348.779 257.992a2.539 2.539 0 105.077-.001 2.539 2.539 0 00-5.077.001zM336.467 253.272a2.47 2.47 0 002.949 2.42 2.467 2.467 0 10-2.949-2.42zM359.053 249.851a2.511 2.511 0 001.552 2.323 2.518 2.518 0 002.741-.545 2.52 2.52 0 00.545-2.741 2.515 2.515 0 00-4.838.963zM370.514 244.788a2.51 2.51 0 001.558 2.318 2.514 2.514 0 10-1.558-2.318zM374.544 236.247a2.46 2.46 0 100-4.918 2.46 2.46 0 000 4.918zM380.102 224.342a2.417 2.417 0 002.892 2.374 2.421 2.421 0 10-2.71-3.301 2.397 2.397 0 00-.182.927zM389.734 216.168a2.373 2.373 0 100-4.746 2.373 2.373 0 000 4.746zM395.994 203.138a2.327 2.327 0 004.601.488 2.32 2.32 0 00-.954-2.394 2.321 2.321 0 00-2.182-.247 2.339 2.339 0 00-1.282 1.257c-.12.283-.182.588-.183.896zM384.665 197.953a2.288 2.288 0 00-2.242 2.732 2.283 2.283 0 003.117 1.666 2.283 2.283 0 001.411-2.112 2.272 2.272 0 00-.667-1.619 2.297 2.297 0 00-1.619-.667zM372.881 211.177a2.367 2.367 0 004.037 1.673 2.361 2.361 0 00.513-2.578 2.365 2.365 0 00-4.55.905zM368.236 197.887a2.248 2.248 0 004.451.439 2.252 2.252 0 00-.956-2.307 2.244 2.244 0 00-1.248-.378 2.232 2.232 0 00-1.591.655 2.246 2.246 0 00-.656 1.591zM358.958 195.653a2.212 2.212 0 00-1.368-2.047 2.216 2.216 0 101.368 2.047zM351.918 181.519a2.13 2.13 0 104.258 0 2.13 2.13 0 00-4.258 0zM359.794 165.953a2.062 2.062 0 00-2.025 2.471c.08.401.278.769.567 1.058a2.074 2.074 0 002.254.443 2.069 2.069 0 00-.006-3.818 2.078 2.078 0 00-.79-.154zM342.489 176.287a2.066 2.066 0 10-1.91-1.274 2.05 2.05 0 001.119 1.119c.251.103.52.156.791.155zM343.563 159.666a1.98 1.98 0 001.222 1.842 1.985 1.985 0 002.598-2.598 1.986 1.986 0 00-3.82.756zM341.078 144.275a1.899 1.899 0 003.246 1.341 1.895 1.895 0 00.407-2.074 1.903 1.903 0 00-1.761-1.167 1.899 1.899 0 00-1.892 1.9zM354.496 135.611a1.877 1.877 0 103.755 0 1.877 1.877 0 00-3.755 0zM358.035 150.447a1.96 1.96 0 001.212 1.814 1.96 1.96 0 002.676-1.431 1.965 1.965 0 00-.834-2.015 1.963 1.963 0 00-3.054 1.632zM372.163 157.031a2.022 2.022 0 00-1.859 1.252 2.01 2.01 0 00.442 2.196 2.013 2.013 0 002.199.434 2.02 2.02 0 001.089-2.638 2.017 2.017 0 00-1.871-1.244zM377.373 147.246a1.963 1.963 0 100-3.926 1.963 1.963 0 000 3.926zM370.886 132.596a1.868 1.868 0 100-3.735 1.868 1.868 0 000 3.735zM385.24 131.533a1.9 1.9 0 103.8.012 1.9 1.9 0 00-3.8-.012zM392.802 119.697a1.819 1.819 0 001.682-1.124 1.824 1.824 0 00-.395-1.985 1.813 1.813 0 00-.932-.498 1.826 1.826 0 00-2.177 1.786 1.82 1.82 0 001.822 1.821zM386.053 104.679a1.715 1.715 0 001.587-1.061 1.721 1.721 0 00-.372-1.872 1.724 1.724 0 00-1.873-.373 1.719 1.719 0 00-1.061 1.588 1.727 1.727 0 001.719 1.718zM372.084 114.008a1.772 1.772 0 003.025 1.265 1.775 1.775 0 10-3.025-1.265zM357.697 103.444a1.67 1.67 0 100-3.342 1.67 1.67 0 000 3.342zM358.604 118.758a1.768 1.768 0 00-1.096-1.626 1.767 1.767 0 101.096 1.626zM341.118 129.064a1.798 1.798 0 10-.002-3.596 1.798 1.798 0 00.002 3.596zM341.56 110.359a1.708 1.708 0 00-1.046-1.579 1.7 1.7 0 00-2.326 1.236 1.703 1.703 0 103.372.343zM338.407 95.161a1.578 1.578 0 100-3.155 1.578 1.578 0 000 3.155zM353.053 84.966a1.575 1.575 0 001.115-2.692 1.573 1.573 0 00-1.718-.341 1.578 1.578 0 00.603 3.033zM371.689 92.062a1.642 1.642 0 002.8 1.16 1.64 1.64 0 10-2.8-1.16zM369.042 76.41a1.538 1.538 0 10-.08-3.075 1.538 1.538 0 00.08 3.075zM354.527 64.534a1.45 1.45 0 100-2.9 1.45 1.45 0 000 2.9zM334.504 73.917a1.482 1.482 0 10-.001-2.964 1.482 1.482 0 00.001 2.964zM321.717 88.238a1.526 1.526 0 001.414-.945 1.53 1.53 0 00-2.69-1.428 1.526 1.526 0 00-.253.852 1.52 1.52 0 001.529 1.521zM320.054 102.766a1.627 1.627 0 00-1.501 1.002 1.62 1.62 0 00.352 1.77 1.62 1.62 0 001.77.352 1.627 1.627 0 001.003-1.5 1.624 1.624 0 00-1.624-1.624zM323.924 118.172a1.717 1.717 0 00-1.588 1.061 1.721 1.721 0 00.372 1.873 1.723 1.723 0 001.873.372 1.719 1.719 0 001.061-1.588 1.726 1.726 0 00-1.718-1.718zM308.693 129.367a1.75 1.75 0 001.07 1.615c.319.133.669.169 1.008.103.338-.067.649-.232.894-.475a1.74 1.74 0 00-.261-2.683 1.744 1.744 0 00-2.711 1.44zM294.465 132.359a1.709 1.709 0 001.209-2.92 1.705 1.705 0 00-1.864-.371 1.709 1.709 0 00-.555 2.79 1.71 1.71 0 001.21.501zM279.163 119.374a1.57 1.57 0 001 1.428 1.579 1.579 0 002.125-1.174 1.58 1.58 0 00-.677-1.607 1.573 1.573 0 00-1.484-.14 1.59 1.59 0 00-.964 1.493zM284.043 102.559a1.53 1.53 0 100-3.058 1.53 1.53 0 000 3.058zM301.599 114.733a1.63 1.63 0 001.154-2.786 1.633 1.633 0 10-1.154 2.786zM303.065 95.59a1.538 1.538 0 00.323-3.04 1.535 1.535 0 00-1.86 1.463 1.54 1.54 0 00.94 1.456c.189.08.392.121.597.121zM269.806 88.432a1.411 1.411 0 100-2.823 1.411 1.411 0 000 2.823zM250.602 93.79a1.381 1.381 0 00.976-2.355 1.38 1.38 0 10-.976 2.355zM251.635 73.523a1.285 1.285 0 100-2.57 1.285 1.285 0 000 2.57zM273.66 65.398a1.29 1.29 0 001.195-.798 1.299 1.299 0 00-.281-1.409 1.293 1.293 0 10-.914 2.207zM255.741 49.959a1.167 1.167 0 10-1.078-.714 1.17 1.17 0 00.632.628c.142.057.293.087.446.086zM232.714 38.151a1.045 1.045 0 00.962-.642 1.04 1.04 0 10-.962.642zM260.849 22.776a1.039 1.039 0 001.021-1.243 1.036 1.036 0 00-.818-.818 1.04 1.04 0 10-.203 2.061zM280.321 40.334a1.176 1.176 0 00.831-2.006 1.179 1.179 0 00-1.28-.254 1.174 1.174 0 00-.725 1.085 1.16 1.16 0 001.174 1.175zM290.697 12.355a1.056 1.056 0 10-1.049-1.049 1.062 1.062 0 00.308.742 1.037 1.037 0 00.741.307zM304.46 38.616a1.227 1.227 0 001.143-.756 1.232 1.232 0 00-.897-1.68 1.229 1.229 0 10-.246 2.436zM295.309 59.391a1.323 1.323 0 00.933-2.264 1.322 1.322 0 00-2.038.21 1.326 1.326 0 00.599 1.956c.16.066.332.099.506.098zM289.372 81.096a1.419 1.419 0 10-1.419-1.395 1.41 1.41 0 001.419 1.395zM309.78 74.823a1.435 1.435 0 10.001-2.87 1.435 1.435 0 00-.001 2.87zM319.038 56.892a1.356 1.356 0 10-1.349-1.356 1.355 1.355 0 00.831 1.252c.164.068.34.104.518.104zM340.196 53.837a1.373 1.373 0 00.97-2.342 1.37 1.37 0 10-.97 2.342zM355.82 37.918a1.312 1.312 0 00.803 1.215 1.306 1.306 0 001.789-.949 1.312 1.312 0 00-1.283-1.567 1.31 1.31 0 00-1.309 1.3zM344.335 17.974a1.166 1.166 0 100-2.333 1.166 1.166 0 000 2.333zM330.728 36.89a1.266 1.266 0 001.178-.778 1.264 1.264 0 00-.27-1.386 1.269 1.269 0 10-.908 2.164zM316.553 19.786a1.143 1.143 0 10-1.143-1.143 1.15 1.15 0 001.143 1.143zM369.388 16.178a1.202 1.202 0 001.112-.735 1.2 1.2 0 00-.254-1.308 1.201 1.201 0 00-1.846.178 1.199 1.199 0 00.988 1.865zM380.567 37.414a1.324 1.324 0 10.014-2.648 1.324 1.324 0 00-.014 2.648zM372.714 56.385a1.429 1.429 0 001.318-.88 1.428 1.428 0 10-1.318.88zM392.209 55.075a1.453 1.453 0 00.895 1.34 1.454 1.454 0 001.581-.314 1.45 1.45 0 10-2.476-1.026zM403.61 38.915a1.337 1.337 0 001.238-.828 1.341 1.341 0 00-2.353-1.257 1.341 1.341 0 001.115 2.085zM418.72 23.663a1.255 1.255 0 001.23-1.498 1.26 1.26 0 00-.985-.985 1.253 1.253 0 10-.245 2.483zM409.436 2.88a1.125 1.125 0 001.041-.696 1.126 1.126 0 10-2.168-.432 1.125 1.125 0 001.127 1.128zM392.823 18.272a1.214 1.214 0 100-2.427 1.214 1.214 0 000 2.427zM436.546 7.912a1.168 1.168 0 00.825-1.992 1.17 1.17 0 00-1.795.177 1.16 1.16 0 00.145 1.473 1.167 1.167 0 00.825.342zM457.199 17.05a1.21 1.21 0 00.75 1.122 1.213 1.213 0 10.464-2.336 1.208 1.208 0 00-1.214 1.214zM476.924 8.747a1.153 1.153 0 001.137-1.373 1.152 1.152 0 00-1.573-.84 1.155 1.155 0 00-.707 1.07 1.15 1.15 0 001.143 1.143zM501.04 16.787a1.166 1.166 0 100-2.332 1.166 1.166 0 000 2.332zM504.594 39.633a1.3 1.3 0 00.909-2.224 1.3 1.3 0 10-.909 2.224zM524.452 25.725a1.198 1.198 0 10.017-2.396 1.198 1.198 0 00-.017 2.396zM524.609 47.613a1.317 1.317 0 102.633.014 1.317 1.317 0 00-2.633-.014zM504.294 60.377a1.419 1.419 0 100-2.838 1.419 1.419 0 000 2.838zM519.076 72.878a1.458 1.458 0 100-2.917 1.458 1.458 0 000 2.917zM501.929 78.063a1.54 1.54 0 00-1.391.976 1.53 1.53 0 00.358 1.662 1.533 1.533 0 001.67.316 1.54 1.54 0 00-.035-2.85 1.529 1.529 0 00-.602-.104zM483.822 69.834a1.51 1.51 0 00.93 1.39 1.505 1.505 0 10.576-2.896 1.51 1.51 0 00-1.506 1.506zM484.87 91.404a1.624 1.624 0 10-1.502-1.001 1.61 1.61 0 001.502 1.001zM466.707 79.28a1.574 1.574 0 002.692 1.115 1.581 1.581 0 00.341-1.719 1.575 1.575 0 00-3.033.604zM464.365 60.623a1.481 1.481 0 101.474-1.482 1.477 1.477 0 00-1.364.915c-.073.18-.111.372-.11.567zM483.01 50.06a1.395 1.395 0 102.79.017 1.395 1.395 0 00-2.79-.018zM482.529 30.554a1.27 1.27 0 100-2.538 1.27 1.27 0 000 2.538zM464.09 40.54a1.343 1.343 0 001.315-1.602 1.346 1.346 0 00-1.053-1.053 1.343 1.343 0 00-1.602 1.315 1.338 1.338 0 001.34 1.34zM441.992 31.64a1.3 1.3 0 100-2.6 1.3 1.3 0 000 2.6zM447.984 52.58a1.424 1.424 0 001.318-.88 1.427 1.427 0 10-1.318.88zM447.7 74.185a1.579 1.579 0 001.546-1.885 1.581 1.581 0 00-1.239-1.239 1.576 1.576 0 10-.307 3.124zM432.541 61.902a1.488 1.488 0 001.469-1.779 1.486 1.486 0 00-1.173-1.173 1.489 1.489 0 10-.296 2.952zM425.856 43.603a1.372 1.372 0 100-2.744 1.372 1.372 0 000 2.744zM413.628 58.956a1.467 1.467 0 10-.015-2.934 1.467 1.467 0 00.015 2.934zM406.069 75.028a1.575 1.575 0 00.307-3.123 1.579 1.579 0 00-1.884 1.547 1.576 1.576 0 001.577 1.576zM386.038 74.06a1.581 1.581 0 001.456-.974 1.57 1.57 0 00-.342-1.718 1.574 1.574 0 00-2.425.239 1.57 1.57 0 00.196 1.99c.295.297.696.463 1.115.463zM392.406 87.726a1.634 1.634 0 001.95 1.6 1.631 1.631 0 10-1.95-1.6zM403.711 104.14a1.727 1.727 0 10-.014-3.454 1.727 1.727 0 00.014 3.454zM409.301 119.001a1.822 1.822 0 001.795-2.174 1.82 1.82 0 00-3.608.361 1.813 1.813 0 001.813 1.813zM407.109 132.619a1.915 1.915 0 00-1.173-1.768 1.902 1.902 0 00-2.081.408 1.908 1.908 0 103.254 1.36zM394.481 148.114a1.979 1.979 0 10-.002-3.958 1.979 1.979 0 00.002 3.958zM409.112 146.609a2.01 2.01 0 100 4.02 2.01 2.01 0 000-4.02zM402.262 162.847a2.088 2.088 0 104.176.002 2.088 2.088 0 00-4.176-.002zM386.061 159.542a2.053 2.053 0 001.265 1.894 2.05 2.05 0 10-1.265-1.894zM392.47 176.195a2.14 2.14 0 001.974-1.319 2.14 2.14 0 00-.463-2.328 2.131 2.131 0 00-2.328-.464 2.14 2.14 0 00-1.319 1.974 2.136 2.136 0 002.136 2.137zM377.136 174.132a2.122 2.122 0 10-.001-4.243 2.122 2.122 0 00.001 4.243zM367.307 185.179a2.157 2.157 0 002.118-2.581 2.158 2.158 0 00-2.945-1.574 2.158 2.158 0 00.827 4.155zM378.918 186.121a2.211 2.211 0 001.364 2.04 2.206 2.206 0 10.835-4.247 2.208 2.208 0 00-2.199 2.207zM394.52 186.438a2.234 2.234 0 00-2.075 1.378 2.242 2.242 0 001.632 3.057 2.238 2.238 0 002.674-2.204 2.232 2.232 0 00-2.231-2.231zM406.85 180.867a2.182 2.182 0 001.544-3.727 2.182 2.182 0 10-1.544 3.727zM418.549 173.601a2.149 2.149 0 001.981-1.324 2.14 2.14 0 00-1.563-2.923 2.14 2.14 0 00-2.563 2.103 2.145 2.145 0 002.145 2.144zM421.544 155.375a2.06 2.06 0 00-2.009 2.464 2.057 2.057 0 102.009-2.464zM421.574 142.027a1.968 1.968 0 001.814-1.211 1.966 1.966 0 00-1.431-2.677 1.965 1.965 0 00-2.346 1.926 1.963 1.963 0 001.963 1.962zM422.552 122.156a1.864 1.864 0 00-1.313 3.179 1.858 1.858 0 003.173-1.326 1.86 1.86 0 00-1.86-1.853zM436.033 133.464a1.904 1.904 0 001.768-1.172 1.908 1.908 0 10-1.768 1.172zM446.359 139.768a1.955 1.955 0 103.91.013 1.955 1.955 0 00-3.91-.013zM458.635 147.252a1.978 1.978 0 103.956.001 1.978 1.978 0 00-3.956-.001zM463.553 160.456a2.048 2.048 0 003.501 1.439 2.049 2.049 0 10-3.501-1.439zM451.294 172.257a2.123 2.123 0 002.08-2.537 2.119 2.119 0 00-1.671-1.665 2.127 2.127 0 00-2.176.909 2.12 2.12 0 001.767 3.293zM448.583 158.42a2.062 2.062 0 001.906-1.265 2.06 2.06 0 00-.441-2.245 2.06 2.06 0 00-3.167.308 2.056 2.056 0 001.702 3.202zM434.834 147.188a2.006 2.006 0 00-1.962 2.407 2.01 2.01 0 101.962-2.407zM433.338 165.886a2.11 2.11 0 002.52 2.081 2.113 2.113 0 10-2.52-2.081zM429.498 181.61a2.184 2.184 0 100-4.368 2.184 2.184 0 000 4.368zM440.771 181.535a2.211 2.211 0 001.365 2.041 2.212 2.212 0 002.406-.483 2.205 2.205 0 00-1.571-3.765 2.21 2.21 0 00-2.2 2.207zM431.674 193.474a2.282 2.282 0 001.408 2.105 2.278 2.278 0 10.862-4.384 2.273 2.273 0 00-2.27 2.279zM417.508 189.45a2.252 2.252 0 001.387 2.076 2.243 2.243 0 002.448-.487 2.245 2.245 0 10-3.175-3.176 2.256 2.256 0 00-.66 1.587zM407.134 194.916a2.261 2.261 0 002.219-2.704 2.268 2.268 0 00-1.778-1.778 2.266 2.266 0 00-2.704 2.219 2.26 2.26 0 002.263 2.263zM412.667 206.8a2.334 2.334 0 100-4.668 2.334 2.334 0 000 4.668zM425.681 202.234a2.367 2.367 0 00-1.672 4.038 2.369 2.369 0 002.577.512 2.362 2.362 0 001.46-2.185 2.367 2.367 0 00-2.365-2.365zM436.877 207.552a2.362 2.362 0 001.46 2.185 2.366 2.366 0 003.09-3.09 2.365 2.365 0 00-4.55.905zM447.692 198.736a2.288 2.288 0 002.113-1.411 2.288 2.288 0 00-1.667-3.117 2.285 2.285 0 10-.446 4.528zM459.699 199.364a2.29 2.29 0 002.735 2.242 2.287 2.287 0 10-2.735-2.242zM474.921 205.854a2.294 2.294 0 100-4.588 2.294 2.294 0 000 4.588zM484.958 192.5a2.23 2.23 0 00-2.197 2.661 2.233 2.233 0 001.751 1.758 2.231 2.231 0 10.446-4.419zM489.19 204.734a2.283 2.283 0 00-1.616 3.903 2.284 2.284 0 003.903-1.616 2.28 2.28 0 00-2.287-2.287zM502.766 210.658a2.263 2.263 0 100-4.526 2.263 2.263 0 000 4.526zM496.994 194.27a2.2 2.2 0 104.399.014 2.2 2.2 0 00-4.399-.014zM513.494 200.352a2.184 2.184 0 100-4.368 2.184 2.184 0 000 4.368zM512.628 181.391a2.096 2.096 0 00-1.172.351 2.107 2.107 0 001.974 3.697c.385-.161.713-.432.944-.779a2.104 2.104 0 00-1.746-3.269zM497.648 180.105a2.123 2.123 0 003.621 1.499 2.122 2.122 0 00-1.5-3.62 2.122 2.122 0 00-2.121 2.121zM486.117 179.914a2.15 2.15 0 00-1.976 1.329 2.141 2.141 0 00.47 2.334 2.147 2.147 0 002.336.462 2.151 2.151 0 001.322-1.981 2.15 2.15 0 00-1.329-1.983 2.151 2.151 0 00-.823-.161zM469.734 187.926a2.21 2.21 0 002.638 2.165 2.214 2.214 0 001.735-1.734 2.212 2.212 0 00-.939-2.266 2.204 2.204 0 00-1.226-.372 2.192 2.192 0 00-1.563.644 2.196 2.196 0 00-.645 1.563zM456.696 188.149a2.215 2.215 0 100-4.43 2.215 2.215 0 000 4.43zM464.595 177.288a2.136 2.136 0 10.001-4.273 2.136 2.136 0 00-.001 4.273zM477.46 169.25a2.104 2.104 0 102.097 2.097 2.098 2.098 0 00-2.097-2.097zM481.481 154.797a2.01 2.01 0 102.01 2.01 2.017 2.017 0 00-2.01-2.01zM474.418 145.394a1.947 1.947 0 10.017-3.893 1.947 1.947 0 00-.017 3.893zM489.158 143.363a1.92 1.92 0 001.776-1.179 1.915 1.915 0 10-3.684-.729 1.907 1.907 0 001.908 1.908zM495.457 154.588a1.975 1.975 0 001.217 1.821 1.97 1.97 0 10-1.217-1.821zM490.49 167.995a2.065 2.065 0 101.269-1.908 2.049 2.049 0 00-1.114 1.118 2.06 2.06 0 00-.155.79zM509.182 169.591a2.018 2.018 0 100-4.036 2.018 2.018 0 000 4.036zM524.176 174.364a2.01 2.01 0 10.001-4.02 2.01 2.01 0 00-.001 4.02zM538.643 176.508a2 2 0 00-1.964 2.393 2.001 2.001 0 101.964-2.393zM523.979 188.073a2.087 2.087 0 004.138.408 2.096 2.096 0 00-.889-2.145 2.09 2.09 0 00-3.249 1.737zM537.412 194.448a2.082 2.082 0 104.164 0 2.082 2.082 0 00-4.164 0zM552.729 200.724a2.057 2.057 0 10.001-4.115 2.057 2.057 0 00-.001 4.115zM552.817 185.926a1.994 1.994 0 100-3.989 1.994 1.994 0 000 3.989zM552.886 170.339a1.916 1.916 0 100-3.832 1.916 1.916 0 000 3.832zM536.6 162.408a1.922 1.922 0 003.283 1.36 1.924 1.924 0 10-3.283-1.36zM526.999 156.892a1.923 1.923 0 10-3.847-.001 1.923 1.923 0 003.847.001zM511.949 154.644a1.929 1.929 0 001.886-2.313 1.936 1.936 0 00-1.52-1.513 1.935 1.935 0 00-1.98.822 1.934 1.934 0 001.614 3.004zM535.135 144.555a1.825 1.825 0 002.188 1.794 1.827 1.827 0 001.328-2.499 1.823 1.823 0 00-1.695-1.123 1.808 1.808 0 00-1.687 1.128c-.091.222-.136.46-.134.7zM547.613 134.164c0 .345.102.682.294.968a1.735 1.735 0 001.788.741 1.74 1.74 0 001.27-2.376 1.746 1.746 0 00-2.844-.567 1.727 1.727 0 00-.508 1.234zM551.706 150.344a1.842 1.842 0 00-1.023.305 1.839 1.839 0 001.716 3.229 1.833 1.833 0 001.136-1.697 1.835 1.835 0 00-1.829-1.837zM565.043 144.422a1.75 1.75 0 10.001-3.499 1.75 1.75 0 00-.001 3.499zM566.053 158.993a1.825 1.825 0 001.124 1.682 1.822 1.822 0 10-.593-2.972 1.793 1.793 0 00-.531 1.29zM569.702 174.298a1.888 1.888 0 00-2.252-1.848 1.888 1.888 0 00-1.48 1.481 1.888 1.888 0 001.848 2.251 1.881 1.881 0 001.884-1.884zM565.17 189.666a1.963 1.963 0 101.963-1.963 1.958 1.958 0 00-1.963 1.963zM566.55 205.943a2.034 2.034 0 10-.001-4.067 2.034 2.034 0 00.001 4.067zM575.285 229.733a2.112 2.112 0 10-1.954-1.303 2.102 2.102 0 001.954 1.303zM574.385 244.539a2.166 2.166 0 001.541-3.701 2.173 2.173 0 00-2.367-.468 2.164 2.164 0 00-1.334 2.009 2.167 2.167 0 002.16 2.16zM565.745 257.751a2.254 2.254 0 100-4.508 2.254 2.254 0 000 4.508zM569.309 66.758a1.326 1.326 0 100-2.651 1.326 1.326 0 000 2.651zM574.417 43.146a1.182 1.182 0 100-2.364 1.182 1.182 0 000 2.364zM570.381 17.378a1.047 1.047 0 001.028-1.253 1.05 1.05 0 10-1.028 1.253zM544.949 7.59a1.058 1.058 0 10.015-2.116 1.058 1.058 0 00-.015 2.115zM547.804 33.623a1.182 1.182 0 100-2.364 1.182 1.182 0 000 2.364zM551.902 54.078a1.295 1.295 0 001.195-.798 1.29 1.29 0 00-.281-1.41 1.289 1.289 0 00-1.409-.28 1.293 1.293 0 00.495 2.488zM535.923 66.127a1.401 1.401 0 001.375-1.68 1.398 1.398 0 00-1.106-1.1 1.406 1.406 0 00-1.44.603 1.401 1.401 0 00-.232.781 1.388 1.388 0 00.411.99 1.39 1.39 0 00.992.406zM551.523 77.213a1.423 1.423 0 001.318-.88 1.427 1.427 0 10-1.318.88zM566.345 88.573a1.451 1.451 0 100-2.902 1.451 1.451 0 000 2.902zM565.493 109.575a1.572 1.572 0 001.456-.973 1.57 1.57 0 00-.341-1.718 1.578 1.578 0 00-2.426.239 1.57 1.57 0 00.196 1.99c.296.296.697.462 1.115.462zM565.249 126.623a1.66 1.66 0 001.53-1.023 1.653 1.653 0 00-1.212-2.257 1.652 1.652 0 00-1.698.711 1.65 1.65 0 00-.275.922 1.634 1.634 0 00.483 1.17 1.64 1.64 0 001.172.477zM548.892 114.859a1.66 1.66 0 00-1.53 1.024 1.653 1.653 0 00.362 1.805 1.65 1.65 0 001.807.354 1.655 1.655 0 001.016-1.535 1.643 1.643 0 00-1.021-1.527 1.64 1.64 0 00-.634-.121zM532.793 126.859a1.726 1.726 0 100-3.453 1.726 1.726 0 000 3.453zM522.45 141.611a1.845 1.845 0 100-3.69 1.845 1.845 0 000 3.69zM514.465 127.548a1.78 1.78 0 001.646-1.1 1.786 1.786 0 00-1.298-2.429 1.78 1.78 0 00-1.608 3.007c.335.334.788.522 1.26.522zM518.58 111.749a1.68 1.68 0 100-3.359 1.68 1.68 0 000 3.359zM534.251 107.17a1.62 1.62 0 001.5-1.003 1.626 1.626 0 00-2.122-2.122 1.626 1.626 0 00-.526 2.649 1.62 1.62 0 001.148.476zM550.151 98.403a1.575 1.575 0 00.307-3.123 1.575 1.575 0 00-1.884 1.547 1.575 1.575 0 001.577 1.576zM534.701 86.87a1.507 1.507 0 001.065-2.57 1.508 1.508 0 00-2.571 1.065 1.514 1.514 0 001.506 1.506zM518.043 93.622a1.576 1.576 0 100-3.152 1.576 1.576 0 000 3.152zM501.023 99.561a1.654 1.654 0 001.623-1.979 1.652 1.652 0 00-3-.597 1.655 1.655 0 001.377 2.576zM500.322 113.312a1.748 1.748 0 001.07 1.616 1.745 1.745 0 002.381-1.265 1.748 1.748 0 00-1.709-2.085 1.745 1.745 0 00-1.742 1.734zM505.232 141.213a1.868 1.868 0 100-3.736 1.868 1.868 0 000 3.736zM495.829 128.376a1.817 1.817 0 001.689-1.12 1.828 1.828 0 00-.394-1.988 1.82 1.82 0 00-3.108 1.295 1.813 1.813 0 001.813 1.813zM479.856 128.596a1.837 1.837 0 100-3.674 1.837 1.837 0 000 3.674zM484.848 111.234c.344 0 .681-.102.968-.293a1.75 1.75 0 00.74-1.789 1.745 1.745 0 00-1.368-1.369 1.744 1.744 0 00-1.572 2.941c.326.327.77.51 1.232.51zM467.582 98.43a1.694 1.694 0 103.388.015 1.694 1.694 0 00-3.388-.016zM467.204 113.406a1.791 1.791 0 00-1.266 3.055 1.79 1.79 0 101.266-3.055zM463.64 133.456a1.891 1.891 0 10-1.892-1.892 1.877 1.877 0 00.552 1.34 1.889 1.889 0 001.34.552zM452.437 122.556a1.849 1.849 0 00-1.138-1.705 1.852 1.852 0 00-2.011.4 1.852 1.852 0 00-.4 2.011 1.845 1.845 0 001.705 1.138 1.844 1.844 0 001.306-.538 1.82 1.82 0 00.538-1.306zM451.856 107.289a1.744 1.744 0 001.616-1.08 1.742 1.742 0 00-.379-1.907 1.747 1.747 0 00-1.907-.38 1.757 1.757 0 00-1.081 1.617 1.75 1.75 0 001.751 1.75zM453.187 90.6a1.64 1.64 0 10-.001-3.28 1.64 1.64 0 00.001 3.28zM435.867 94.53a1.684 1.684 0 001.564-1.036 1.688 1.688 0 10-1.564 1.036zM426.975 78.09a1.577 1.577 0 100-3.153 1.577 1.577 0 000 3.154zM413.463 89.398a1.657 1.657 0 001.024 1.53 1.654 1.654 0 002.256-1.212 1.66 1.66 0 00-.711-1.699 1.654 1.654 0 00-.922-.275 1.648 1.648 0 00-1.647 1.656zM422.119 106.961a1.75 1.75 0 10.001-3.499 1.75 1.75 0 00-.001 3.499zM434.756 113.11a1.791 1.791 0 001.109 1.66 1.795 1.795 0 002.451-1.309 1.793 1.793 0 00-.764-1.846 1.8 1.8 0 00-2.796 1.495z"/></g><g opacity=".75" fill="#fff"><path d="M156.34 162.848a1.325 1.325 0 00.996-.347 1.32 1.32 0 00.312-1.493 1.324 1.324 0 00-.774-.716 1.315 1.315 0 00-1.399 2.137c.225.244.534.393.865.419zM239.478 108.627a1.418 1.418 0 10-.543-2.73 1.415 1.415 0 00-.459 2.312c.266.266.626.416 1.002.418zM232.714 38.143a1.045 1.045 0 00.962-.642 1.04 1.04 0 10-.962.642zM330.728 36.882a1.27 1.27 0 10-.476-2.442 1.272 1.272 0 00-.785 1.173 1.266 1.266 0 001.261 1.27zM524.609 47.605a1.317 1.317 0 102.633.014 1.317 1.317 0 00-2.633-.014zM44.87 287.378a1.04 1.04 0 100-2.082 1.04 1.04 0 000 2.082zM58.122 335.615a1.175 1.175 0 100-2.35 1.175 1.175 0 000 2.35zM145.88 292.654a1.632 1.632 0 100-3.264 1.632 1.632 0 000 3.264zM204.389 227.524a1.791 1.791 0 002.141 1.754 1.786 1.786 0 001.299-2.444 1.788 1.788 0 00-3.44.69z"/></g><g filter="url(#prefix__filter0_f_389_64850)" fill="#fff"><path d="M156.342 162.848a1.328 1.328 0 00.996-.347 1.32 1.32 0 00.312-1.493 1.324 1.324 0 00-.774-.716 1.315 1.315 0 00-1.399 2.137c.225.244.534.393.865.419zM239.478 108.627a1.418 1.418 0 10-.543-2.73 1.415 1.415 0 00-.459 2.312c.266.266.626.416 1.002.418zM232.714 38.143a1.045 1.045 0 00.962-.642 1.04 1.04 0 10-.962.642zM330.728 36.882a1.27 1.27 0 10-.476-2.442 1.272 1.272 0 00-.785 1.173 1.266 1.266 0 001.261 1.27zM524.609 47.605a1.317 1.317 0 102.633.014 1.317 1.317 0 00-2.633-.014zM44.87 287.378a1.04 1.04 0 100-2.082 1.04 1.04 0 000 2.082zM58.122 335.615a1.175 1.175 0 100-2.35 1.175 1.175 0 000 2.35zM145.88 292.654a1.632 1.632 0 100-3.264 1.632 1.632 0 000 3.264zM204.389 227.524a1.791 1.791 0 002.141 1.754 1.786 1.786 0 001.299-2.444 1.788 1.788 0 00-3.44.69z"/></g></g><defs><radialGradient id="prefix__paint0_radial_389_64850" cx="0" cy="0" r="1" gradientUnits="userSpaceOnUse" gradientTransform="rotate(90 23.587 401.009) scale(424.5)"><stop offset=".245" stop-color="#fff" stop-opacity="0"/><stop offset=".573" stop-color="#fff"/><stop offset="1" stop-color="#fff"/></radialGradient><filter id="prefix__filter0_f_389_64850" x="39.925" y="30.438" width="698.264" height="309.082" filterUnits="userSpaceOnUse" color-interpolation-filters="sRGB"><feFlood flood-opacity="0" result="BackgroundImageFix"/><feBlend in="SourceGraphic" in2="BackgroundImageFix" result="shape"/><feGaussianBlur stdDeviation="1.953" result="effect1_foregroundBlur_389_64850"/></filter></defs></svg>